<svg width="117" height="117" viewBox="0 0 117 117" fill="none" xmlns="http://www.w3.org/2000/svg">
<ellipse opacity="0.1" cx="58.3878" cy="58.5" rx="58.3878" ry="58.5" fill="white"/>
<ellipse cx="58.389" cy="58.4999" rx="40.1416" ry="40.2187" fill="white"/>
<path d="M72.0165 54.539L54.3941 44.3381C53.8903 44.0394 53.3167 43.8798 52.7314 43.8753C51.8113 43.8753 50.929 44.2415 50.2784 44.8933C49.6278 45.5451 49.2623 46.4292 49.2623 47.351V69.244C49.2624 69.8557 49.4261 70.4562 49.7363 70.9831C50.0465 71.51 50.4919 71.944 51.0262 72.24C51.5606 72.536 52.1643 72.6832 52.7746 72.6663C53.3849 72.6494 53.9795 72.469 54.4967 72.1438L72.1396 60.9763C72.6882 60.6323 73.1385 60.1518 73.4466 59.5816C73.7547 59.0114 73.9102 58.371 73.8977 57.7227C73.8853 57.0744 73.7055 56.4404 73.3758 55.8825C73.0461 55.3245 72.5778 54.8616 72.0165 54.539Z" fill="#DD3F61"/>
</svg>
