<svg width="25" height="15" viewBox="0 0 25 15" fill="none" xmlns="http://www.w3.org/2000/svg">
<path d="M6.77021 12.4993H4.68698C4.39949 12.4993 4.16617 12.266 4.16617 11.9785C4.16617 11.691 4.39949 11.4577 4.68698 11.4577H6.77021C7.05769 11.4577 7.29101 11.691 7.29101 11.9785C7.29101 12.266 7.05769 12.4993 6.77021 12.4993Z" fill="#151515"/>
<path d="M23.6977 12.4994H22.3957C22.1082 12.4994 21.8749 12.2661 21.8749 11.9786C21.8749 11.6911 22.1082 11.4578 22.3957 11.4578H23.2654L23.9675 7.71631C23.9581 5.80182 22.3228 4.16649 20.3124 4.16649H16.8928L15.2356 11.4578H18.2292C18.5167 11.4578 18.75 11.6911 18.75 11.9786C18.75 12.2661 18.5167 12.4994 18.2292 12.4994H14.5836C14.4252 12.4994 14.2753 12.4275 14.1763 12.3036C14.0773 12.1807 14.0398 12.0182 14.0753 11.864L15.9689 3.53111C16.0231 3.29258 16.2335 3.12488 16.4772 3.12488H20.3124C22.8967 3.12488 24.9997 5.22789 24.9997 7.81214L24.2091 12.0744C24.1633 12.3213 23.9487 12.4994 23.6977 12.4994Z" fill="#151515"/>
<path d="M20.3135 14.5827C18.8781 14.5827 17.7094 13.415 17.7094 11.9787C17.7094 10.5423 18.8781 9.37463 20.3135 9.37463C21.7488 9.37463 22.9175 10.5423 22.9175 11.9787C22.9175 13.415 21.7488 14.5827 20.3135 14.5827ZM20.3135 10.4162C19.4521 10.4162 18.7511 11.1172 18.7511 11.9787C18.7511 12.8401 19.4521 13.5411 20.3135 13.5411C21.1749 13.5411 21.8759 12.8401 21.8759 11.9787C21.8759 11.1172 21.1749 10.4162 20.3135 10.4162Z" fill="#151515"/>
<path d="M8.85379 14.5827C7.41844 14.5827 6.24975 13.415 6.24975 11.9787C6.24975 10.5423 7.41844 9.37463 8.85379 9.37463C10.2891 9.37463 11.4578 10.5423 11.4578 11.9787C11.4578 13.415 10.2891 14.5827 8.85379 14.5827ZM8.85379 10.4162C7.99237 10.4162 7.29137 11.1172 7.29137 11.9787C7.29137 12.8401 7.99237 13.5411 8.85379 13.5411C9.7152 13.5411 10.4162 12.8401 10.4162 11.9787C10.4162 11.1172 9.7152 10.4162 8.85379 10.4162Z" fill="#151515"/>
<path d="M6.77183 3.1247H2.60538C2.31789 3.1247 2.08457 2.89138 2.08457 2.60389C2.08457 2.31641 2.31789 2.08309 2.60538 2.08309H6.77183C7.05931 2.08309 7.29264 2.31641 7.29264 2.60389C7.29264 2.89138 7.05931 3.1247 6.77183 3.1247Z" fill="#151515"/>
<path d="M6.76967 6.24958H1.56161C1.27412 6.24958 1.0408 6.01625 1.0408 5.72877C1.0408 5.44128 1.27412 5.20796 1.56161 5.20796H6.76967C7.05716 5.20796 7.29048 5.44128 7.29048 5.72877C7.29048 6.01625 7.05716 6.24958 6.76967 6.24958Z" fill="#151515"/>
<path d="M6.77049 9.37445H0.520807C0.233321 9.37445 0 9.14113 0 8.85365C0 8.56616 0.233321 8.33284 0.520807 8.33284H6.77049C7.05797 8.33284 7.29129 8.56616 7.29129 8.85365C7.29129 9.14113 7.05797 9.37445 6.77049 9.37445Z" fill="#151515"/>
<path d="M14.5823 12.4994H10.9367C10.6492 12.4994 10.4159 12.266 10.4159 11.9786C10.4159 11.6911 10.6492 11.4577 10.9367 11.4577H14.1667L16.5332 1.04161H4.68698C4.39949 1.04161 4.16617 0.808292 4.16617 0.520807C4.16617 0.233321 4.39949 0 4.68698 0H17.1863C17.3447 0 17.4947 0.0718715 17.5936 0.195823C17.6926 0.318734 17.7301 0.481225 17.6946 0.635384L15.0906 12.0931C15.0364 12.3317 14.825 12.4994 14.5823 12.4994Z" fill="#151515"/>
</svg>
