<svg width="28" height="28" viewBox="0 0 28 28" fill="none" xmlns="http://www.w3.org/2000/svg">
<g clip-path="url(#clip0_60_7403)">
<path d="M25.5344 6.96163C25.4829 6.89253 25.4182 6.83426 25.3441 6.79016C25.27 6.74605 25.188 6.71698 25.1027 6.70459C25.0173 6.6922 24.9304 6.69674 24.8469 6.71795C24.7633 6.73916 24.6847 6.77663 24.6156 6.82822L14.0303 14.7281C13.9925 14.7565 13.9464 14.7719 13.8991 14.7719C13.8518 14.7719 13.8057 14.7565 13.7678 14.7281L3.39034 6.79322C3.32182 6.74095 3.24368 6.70268 3.16038 6.6806C3.07707 6.65852 2.99023 6.65306 2.90482 6.66454C2.8194 6.67601 2.73708 6.70419 2.66256 6.74748C2.58804 6.79076 2.52277 6.84829 2.47049 6.91679C2.41821 6.9853 2.37993 7.06342 2.35785 7.14671C2.33577 7.23001 2.33031 7.31683 2.34178 7.40223C2.35326 7.48763 2.38145 7.56994 2.42474 7.64444C2.46803 7.71895 2.52557 7.78421 2.59409 7.83648L10.7535 14.0764L2.68377 20.1566C2.61425 20.2084 2.55563 20.2734 2.51125 20.3479C2.46686 20.4224 2.43759 20.5049 2.4251 20.5907C2.4126 20.6765 2.41714 20.764 2.43844 20.848C2.45974 20.9321 2.49739 21.0111 2.54924 21.0806C2.60109 21.1501 2.66613 21.2087 2.74064 21.2531C2.81515 21.2975 2.89767 21.3268 2.98349 21.3393C3.06931 21.3517 3.15675 21.3472 3.24082 21.3259C3.32489 21.3046 3.40394 21.267 3.47346 21.2151L11.8363 14.9031L12.9694 15.7779C13.2336 15.9801 13.5565 16.0908 13.8892 16.0932C14.222 16.0955 14.5464 15.9895 14.8135 15.7911L16.0035 14.9031L24.4647 21.2151C24.5338 21.2667 24.6124 21.3041 24.6959 21.3253C24.7795 21.3465 24.8664 21.3511 24.9517 21.3387C25.037 21.3263 25.1191 21.2972 25.1932 21.2531C25.2672 21.209 25.3319 21.1508 25.3835 21.0817C25.435 21.0126 25.4725 20.9341 25.4937 20.8505C25.5149 20.767 25.5194 20.6801 25.507 20.5948C25.4946 20.5095 25.4656 20.4275 25.4215 20.3534C25.3774 20.2793 25.3191 20.2147 25.25 20.1631L17.0994 14.0742L25.401 7.87366C25.5387 7.7697 25.6299 7.61571 25.6548 7.44502C25.6798 7.27433 25.6365 7.10067 25.5344 6.96163Z" fill="#DD3F61"/>
<path d="M24.7188 4.15576H3.28125C2.41101 4.15576 1.57641 4.5014 0.961056 5.11665C0.345702 5.7319 0 6.56636 0 7.43645L0 20.5592C0 21.4293 0.345702 22.2638 0.961056 22.879C1.57641 23.4943 2.41101 23.8399 3.28125 23.8399H24.7188C25.589 23.8399 26.4236 23.4943 27.0389 22.879C27.6543 22.2638 28 21.4293 28 20.5592V7.43645C28 6.56636 27.6543 5.7319 27.0389 5.11665C26.4236 4.5014 25.589 4.15576 24.7188 4.15576ZM26.6875 20.5592C26.6875 21.0813 26.4801 21.5819 26.1109 21.9511C25.7417 22.3202 25.2409 22.5276 24.7188 22.5276H3.28125C2.7591 22.5276 2.25835 22.3202 1.88913 21.9511C1.51992 21.5819 1.3125 21.0813 1.3125 20.5592V7.43645C1.3125 6.91439 1.51992 6.41372 1.88913 6.04457C2.25835 5.67542 2.7591 5.46804 3.28125 5.46804H24.7188C25.2409 5.46804 25.7417 5.67542 26.1109 6.04457C26.4801 6.41372 26.6875 6.91439 26.6875 7.43645V20.5592Z" fill="#DD3F61"/>
</g>
<defs>
<clipPath id="clip0_60_7403">
<rect width="28" height="27.9952" fill="white"/>
</clipPath>
</defs>
</svg>
