<svg width="25" height="15" viewBox="0 0 25 15" fill="none" xmlns="http://www.w3.org/2000/svg">
<path d="M6.76895 12.4988H4.68581C4.39833 12.4988 4.16502 12.2655 4.16502 11.978C4.16502 11.6906 4.39833 11.4573 4.68581 11.4573H6.76895C7.05642 11.4573 7.28974 11.6906 7.28974 11.978C7.28974 12.2655 7.05642 12.4988 6.76895 12.4988Z" fill="white"/>
<path d="M23.6977 12.4989H22.3958C22.1083 12.4989 21.875 12.2656 21.875 11.9781C21.875 11.6906 22.1083 11.4573 22.3958 11.4573H23.2655L23.9675 7.716C23.9581 5.80159 22.3229 4.16632 20.3126 4.16632H16.8931L15.236 11.4573H18.2295C18.517 11.4573 18.7503 11.6906 18.7503 11.9781C18.7503 12.2656 18.517 12.4989 18.2295 12.4989H14.584C14.4257 12.4989 14.2757 12.427 14.1767 12.3031C14.0778 12.1802 14.0403 12.0177 14.0757 11.8635L15.9693 3.53097C16.0234 3.29245 16.2338 3.12475 16.4776 3.12475H20.3126C22.8968 3.12475 24.9997 5.22769 24.9997 7.81183L24.2091 12.0739C24.1633 12.3208 23.9488 12.4989 23.6977 12.4989Z" fill="white"/>
<path d="M20.3117 14.5821C18.8764 14.5821 17.7078 13.4145 17.7078 11.9782C17.7078 10.5419 18.8764 9.37426 20.3117 9.37426C21.747 9.37426 22.9156 10.5419 22.9156 11.9782C22.9156 13.4145 21.747 14.5821 20.3117 14.5821ZM20.3117 10.4158C19.4503 10.4158 18.7493 11.1168 18.7493 11.9782C18.7493 12.8396 19.4503 13.5405 20.3117 13.5405C21.1731 13.5405 21.874 12.8396 21.874 11.9782C21.874 11.1168 21.1731 10.4158 20.3117 10.4158Z" fill="white"/>
<path d="M8.85442 14.5821C7.41914 14.5821 6.25049 13.4145 6.25049 11.9782C6.25049 10.5419 7.41914 9.37426 8.85442 9.37426C10.2897 9.37426 11.4584 10.5419 11.4584 11.9782C11.4584 13.4145 10.2897 14.5821 8.85442 14.5821ZM8.85442 10.4158C7.99304 10.4158 7.29207 11.1168 7.29207 11.9782C7.29207 12.8396 7.99304 13.5405 8.85442 13.5405C9.7158 13.5405 10.4168 12.8396 10.4168 11.9782C10.4168 11.1168 9.7158 10.4158 8.85442 10.4158Z" fill="white"/>
<path d="M6.77057 3.12458H2.60428C2.31681 3.12458 2.0835 2.89126 2.0835 2.60379C2.0835 2.31632 2.31681 2.083 2.60428 2.083H6.77057C7.05805 2.083 7.29136 2.31632 7.29136 2.60379C7.29136 2.89126 7.05805 3.12458 6.77057 3.12458Z" fill="white"/>
<path d="M6.7704 6.24933H1.56254C1.27506 6.24933 1.04175 6.01602 1.04175 5.72854C1.04175 5.44107 1.27506 5.20776 1.56254 5.20776H6.7704C7.05787 5.20776 7.29118 5.44107 7.29118 5.72854C7.29118 6.01602 7.05787 6.24933 6.7704 6.24933Z" fill="white"/>
<path d="M6.77022 9.37408H0.520786C0.233312 9.37408 0 9.14077 0 8.8533C0 8.56582 0.233312 8.33251 0.520786 8.33251H6.77022C7.05769 8.33251 7.291 8.56582 7.291 8.8533C7.291 9.14077 7.05769 9.37408 6.77022 9.37408Z" fill="white"/>
<path d="M14.5807 12.4989H10.9352C10.6478 12.4989 10.4145 12.2656 10.4145 11.9781C10.4145 11.6906 10.6478 11.4573 10.9352 11.4573H14.1652L16.5316 1.04157H4.68581C4.39833 1.04157 4.16502 0.80826 4.16502 0.520786C4.16502 0.233312 4.39833 0 4.68581 0H17.1847C17.343 0 17.493 0.0718687 17.5919 0.195816C17.6909 0.318721 17.7284 0.481206 17.693 0.635359L15.089 12.0927C15.0349 12.3312 14.8234 12.4989 14.5807 12.4989Z" fill="white"/>
</svg>
