<svg width="26" height="17" viewBox="0 0 26 17" fill="none" xmlns="http://www.w3.org/2000/svg">
<path d="M25.3454 2.45754C25.1 1.29189 23.8583 0.979395 22.7552 1.07523C22.3803 0.875676 21.926 0.898532 21.5626 0.972603C21.4211 0.750043 21.2398 0.568783 21.022 0.432491C20.9156 0.365956 20.7845 0.345232 20.663 0.375574C20.541 0.405966 20.435 0.485838 20.3722 0.594564C20.2576 0.79278 20.1 1.21737 20.3066 1.86031C19.721 2.85586 19.667 4.12577 18.1228 4.12577C16.0266 4.12577 15.6936 2.77058 14.8929 1.74098C14.1895 0.836608 13.092 -0.625473 11.7535 0.290646C11.4894 0.471311 11.1357 0.598629 10.6064 0.70339C10.405 0.743301 10.2741 0.938939 10.3139 1.14038C10.3538 1.34182 10.5491 1.47285 10.7509 1.43294C11.3836 1.30766 11.8223 1.14469 12.1734 0.904432C12.8575 0.436209 13.4619 1.11256 14.3059 2.1976C15.0362 3.13682 15.5886 4.8695 18.1229 4.8695C20.2185 4.8695 20.4516 3.04619 20.9681 2.20345C21.0668 2.04237 21.0879 1.84673 21.0259 1.66656C20.9939 1.5737 20.9739 1.4907 20.9624 1.41688C20.9702 1.43056 20.9779 1.44454 20.9853 1.45872C21.1012 1.68004 21.3503 1.7912 21.5909 1.72923C21.9546 1.63542 22.2595 1.64083 22.4273 1.7441C22.5275 1.80578 22.6488 1.83309 22.7693 1.82095C23.0443 1.79318 24.4261 1.70077 24.6177 2.61084C24.6461 2.74574 24.6406 2.80891 24.6366 2.83077C24.5661 2.87058 24.3294 2.89532 24.1544 2.91362C22.446 3.0923 21.943 3.63598 21.0246 4.64347C19.6372 6.16594 18.7205 7.17189 16.7415 6.58022C16.3792 6.47184 15.9852 6.63505 15.8043 6.96798C15.3691 7.76917 14.6214 8.50006 13.8751 9.04682C13.6966 9.17751 13.6283 9.20587 13.5762 9.32788C13.5755 9.32957 13.5745 9.3311 13.5738 9.33279L12.5936 11.7298C12.5035 11.9065 11.7637 13.3924 11.3695 15.2507C11.2925 15.6136 11.4871 15.9749 11.8321 16.1095C11.9494 16.1553 12.0592 16.2046 12.1598 16.2563H11.1789C11.18 15.8816 11.1203 15.835 10.8682 15.4928C10.8621 15.4845 10.8609 15.474 10.8649 15.4647C11.1378 14.8353 11.7747 13.2192 11.7968 11.8073L12.9624 8.95574C13.0725 8.68638 13.0256 8.37983 12.84 8.15569C12.6547 7.93194 12.363 7.82877 12.0781 7.88672C10.2832 8.25147 8.41346 8.04409 6.90552 7.07338C7.02094 6.76381 7.19759 6.23446 7.31673 5.61695C7.35564 5.41532 7.22372 5.22032 7.02208 5.1814C6.82049 5.14263 6.62545 5.27441 6.58653 5.47605C6.35083 6.69752 6.00532 7.45365 5.22782 8.43824C4.61612 9.21157 3.6525 10.1803 2.23539 10.9827C2.06186 11.081 1.93425 11.2389 1.87604 11.4273C1.7047 11.982 1.16369 13.9099 1.39731 15.4303C1.43623 15.6846 1.63221 15.8898 1.88496 15.941C2.04981 15.9743 2.32032 16.0574 2.46935 16.2562H0.755211C1.10742 14.0451 1.28957 12.3483 1.29686 11.2116C1.2975 11.115 1.33305 11.0229 1.39706 10.9522C1.95418 10.3372 3.25989 8.70403 3.35136 6.82876C3.45815 4.64714 3.42622 2.90781 6.21563 2.22273C7.30835 1.95436 8.23423 1.80721 8.99591 1.69864C9.19924 1.66968 9.34053 1.48138 9.31153 1.27806C9.28258 1.07474 9.09418 0.933386 8.89095 0.962439C8.11118 1.07359 7.16258 1.22441 6.03824 1.50057C4.45831 1.88862 3.62964 2.60687 3.18363 3.48466C2.75349 3.7811 1.05115 5.16787 0.780248 8.69193C0.764482 8.89669 0.917681 9.07543 1.12244 9.09119C1.13216 9.09194 1.14183 9.09228 1.15135 9.09228C1.34376 9.09228 1.50673 8.94399 1.5217 8.7489C1.66419 6.89584 2.23787 5.72023 2.69404 5.06033C2.70991 5.03738 2.72562 5.01611 2.74144 4.99404C2.658 5.57724 2.63822 6.18329 2.60857 6.79262C2.52885 8.42798 1.34931 9.89725 0.845841 10.4531C0.658929 10.6596 0.555012 10.9272 0.553227 11.207C0.548318 11.9716 0.449904 13.4611 0.00870216 16.2155C-0.0573369 16.6271 0.26091 17.0001 0.67762 17.0001H2.62528C2.84015 17.0001 3.04114 16.8942 3.16286 16.717C3.28413 16.5403 3.3107 16.3157 3.23396 16.1161C3.01323 15.5424 2.47426 15.3184 2.12027 15.2318C1.94381 13.8798 2.43053 12.1526 2.5867 11.647C2.58943 11.6382 2.59741 11.6326 2.60192 11.63C3.38582 11.1862 4.03927 10.6965 4.57953 10.2118C4.62583 10.3933 4.68012 10.5712 4.74309 10.7441C5.39396 12.5303 5.70393 15.4588 5.72351 16.3789C5.7307 16.7214 6.01538 17.0001 6.35807 17.0001H8.45659C8.91956 17.0001 9.22353 16.4994 8.99155 16.09C8.68624 15.5517 8.09184 15.3415 7.74097 15.2622C7.21737 13.2728 7.0138 11.4592 7.07374 10.9619C7.08038 10.9069 7.09932 10.8531 7.13011 10.8019C7.57126 10.0686 7.90488 9.28162 8.12501 8.45738C9.74019 8.96462 11.2947 8.80492 12.2264 8.61558C12.2603 8.60864 12.2874 8.64171 12.2741 8.67443L11.1072 11.5292C11.0728 11.6132 11.0547 11.7027 11.0533 11.795C11.0332 13.1088 10.3819 14.7096 10.1826 15.169C10.0738 15.4203 10.1071 15.7133 10.2695 15.934C10.3338 16.0211 10.4139 16.1264 10.4346 16.1581C10.4359 16.1882 10.4352 16.2948 10.4351 16.3256C10.4351 16.6975 10.7377 17 11.1096 17H12.8163C13.2783 17 13.5235 16.4472 13.2097 16.1081C12.8994 15.7726 12.4363 15.5469 12.1025 15.4167C12.0981 15.415 12.0959 15.4103 12.0971 15.405C12.4866 13.5688 13.2544 12.0712 13.262 12.0564C13.2671 12.0465 13.2718 12.0364 13.276 12.0261L13.8601 10.5976C13.9467 10.7611 14.0455 10.931 14.1512 11.1121C14.379 11.5025 14.6371 11.945 14.8667 12.4874C15.2124 13.3045 15.465 14.3575 15.6495 15.1264C15.819 15.8327 15.8829 16.0841 15.9875 16.2237C16.0098 16.2534 16.0425 16.3358 16.0614 16.4703C16.1039 16.7722 16.3663 17 16.6717 17H18.2686C18.5163 17 18.745 16.8655 18.8654 16.6488C19.219 16.0125 18.4443 15.4036 17.7494 15.1563C17.7401 15.153 17.7344 15.1453 17.7312 15.1394C17.3917 14.5197 17.0987 13.7668 16.8601 12.9018C16.8055 12.7039 16.6009 12.5875 16.4027 12.6422C16.2048 12.6968 16.0886 12.9016 16.1432 13.0995C16.397 14.0199 16.7118 14.8264 17.0789 15.4966C17.1711 15.6651 17.3206 15.793 17.4999 15.8569C17.6396 15.9066 17.9571 16.0376 18.1476 16.2563H16.7791C16.7418 16.0696 16.6801 15.9149 16.5952 15.7951C16.55 15.6926 16.4558 15.3003 16.3726 14.9529C16.182 14.1588 15.9211 13.0713 15.5515 12.1977C15.3034 11.6114 15.0206 11.1267 14.7934 10.7373C14.541 10.3047 14.3332 9.94866 14.2925 9.66323C14.7913 9.30012 15.2614 8.88475 15.6643 8.4311C15.7028 8.96982 15.7234 9.62679 15.6698 10.2262C15.64 10.5593 15.6701 10.7921 15.7571 11.3253C15.7901 11.5279 15.981 11.6654 16.184 11.6323C16.3866 11.5992 16.5241 11.4081 16.491 11.2054C16.4039 10.6715 16.3904 10.5179 16.4105 10.2924C16.5019 9.27116 16.3941 8.11216 16.3273 7.5475C16.3781 7.46496 16.4215 7.3896 16.4577 7.32306C16.4716 7.29743 16.5016 7.28459 16.5284 7.29277C19.2042 8.09253 20.4044 6.39341 22.0259 4.65245C22.8189 3.80103 23.6355 3.7156 24.2316 3.65328C24.6552 3.60896 25.021 3.57073 25.24 3.27019C25.4323 3.00618 25.3922 2.68 25.3454 2.45754ZM6.49267 10.4185C6.4074 10.5602 6.35445 10.7131 6.33521 10.8729C6.25613 11.5295 6.49962 13.4801 7.03085 15.4863C7.09754 15.7382 7.29679 15.9281 7.55094 15.9819C7.68559 16.0103 7.96527 16.0864 8.17171 16.2563H6.46362C6.42356 15.1967 6.09892 12.2932 5.44165 10.4893C5.33848 10.2063 5.26064 9.90751 5.20947 9.59893C5.92078 8.84751 6.3598 8.16402 6.58975 7.75484C6.86566 7.92658 7.14508 8.0718 7.4252 8.19491C7.22342 8.97756 6.91038 9.72427 6.49267 10.4185Z" fill="#9BA1C8"/>
<path d="M22.1684 2.74391C22.3555 2.74391 22.5072 2.59223 22.5072 2.40513C22.5072 2.21803 22.3555 2.06636 22.1684 2.06636C21.9814 2.06636 21.8297 2.21803 21.8297 2.40513C21.8297 2.59223 21.9814 2.74391 22.1684 2.74391Z" fill="#9BA1C8"/>
</svg>
