<svg width="17" height="19" viewBox="0 0 17 19" fill="none" xmlns="http://www.w3.org/2000/svg">
<path d="M8.38867 3.33984C8.081 3.33984 7.83203 3.09088 7.83203 2.7832V0.556641C7.83203 0.248967 8.081 0 8.38867 0C8.69635 0 8.94531 0.248967 8.94531 0.556641V2.7832C8.94531 3.09088 8.69635 3.33984 8.38867 3.33984Z" fill="#DFD7D5"/>
<path d="M5.53187 3.48121L3.95762 2.4636C3.69941 2.29672 3.62549 1.95208 3.79237 1.69387C3.95981 1.43567 4.30337 1.36067 4.56209 1.52863L6.13635 2.54624C6.39455 2.71312 6.46848 3.05775 6.3016 3.31596C6.13468 3.57398 5.79008 3.64783 5.53187 3.48121Z" fill="#DFD7D5"/>
<path d="M13.3969 4.49023H8.38712H3.37736C3.27115 4.49023 3.17318 4.5259 3.08594 4.58052L3.39476 8.28233L5.04728 9.5L7.84789 8.07359L11.727 9.5L13.3969 8.19538L13.6883 4.58056C13.6011 4.5259 13.5031 4.49023 13.3969 4.49023Z" fill="#FFD400"/>
<path d="M11.7266 9.49996L13.3965 8.19535L13.6879 4.58052C13.6008 4.5259 13.5027 4.49023 13.3965 4.49023H8.38672V8.2719L11.7266 9.49996Z" fill="#FDBF00"/>
<path d="M10.4721 3.3159C10.3052 3.0577 10.3791 2.71306 10.6373 2.54618L12.2116 1.52857C12.4698 1.36005 12.8138 1.43561 12.9813 1.69381C13.1482 1.95202 13.0742 2.29666 12.816 2.46354L11.2418 3.48115C10.9836 3.64781 10.639 3.57396 10.4721 3.3159Z" fill="#DFD7D5"/>
<path d="M16.7091 9.20483L13.8666 4.75171C13.8212 4.67912 13.7565 4.62464 13.6862 4.58056L11.7248 9.5L8.38496 4.49023L5.04511 9.5L3.08377 4.58052C3.01345 4.62461 2.94877 4.67912 2.90338 4.75167L0.068227 9.20479C0.0131196 9.29271 -0.00235505 9.39687 0.000279711 9.49996L1.63573 11.1699H14.3921L16.7677 9.49996C16.7689 9.39324 16.7589 9.28425 16.7091 9.20483Z" fill="#FDBF00"/>
<path d="M14.3938 11.1699L16.7694 9.5C16.7706 9.39324 16.7607 9.28425 16.7109 9.20483L13.8683 4.75171C13.8229 4.67912 13.7583 4.62464 13.6879 4.58056L11.7266 9.5L8.38672 4.49023V11.1699H14.3938Z" fill="#FF9F00"/>
<path d="M11.7235 9.5H5.04384L4.38281 13.2573L8.38369 19L12.1236 14.0227L11.7235 9.5Z" fill="#FFD400"/>
<path d="M11.7266 9.5H8.38672V19L12.1266 14.0227L11.7266 9.5Z" fill="#FDBF00"/>
<path d="M0 9.5C0.00393359 9.65308 0.0562578 9.80359 0.146211 9.89355L7.99113 18.8369C8.09986 18.9456 8.24229 19 8.38468 19L5.04483 9.5H0Z" fill="#FF9F00"/>
<path d="M11.7266 9.5L8.38672 19C8.52914 19 8.67157 18.9456 8.78026 18.8369L16.6326 9.89355C16.732 9.7942 16.7677 9.64703 16.7694 9.5H11.7266Z" fill="#FF7816"/>
</svg>
