<svg width="18" height="21" viewBox="0 0 18 21" fill="none" xmlns="http://www.w3.org/2000/svg">
<path d="M10.4975 9.79868C10.7743 9.79868 11.0449 9.71658 11.2751 9.56278C11.5053 9.40897 11.6847 9.19036 11.7907 8.93459C11.8966 8.67882 11.9243 8.39738 11.8703 8.12585C11.8163 7.85433 11.683 7.60492 11.4872 7.40916C11.2915 7.2134 11.0421 7.08009 10.7705 7.02608C10.499 6.97207 10.2176 6.99979 9.96179 7.10573C9.70602 7.21167 9.48741 7.39108 9.33361 7.62127C9.1798 7.85146 9.09771 8.12209 9.09771 8.39893C9.09771 8.77016 9.24518 9.1262 9.50768 9.3887C9.77019 9.6512 10.1262 9.79868 10.4975 9.79868ZM10.4975 7.69906C10.6359 7.69906 10.7712 7.7401 10.8863 7.81701C11.0014 7.89391 11.0911 8.00321 11.1441 8.1311C11.197 8.25898 11.2109 8.39971 11.1839 8.53547C11.1569 8.67123 11.0902 8.79593 10.9923 8.89381C10.8945 8.99169 10.7698 9.05835 10.634 9.08535C10.4982 9.11236 10.3575 9.0985 10.2296 9.04553C10.1017 8.99256 9.99243 8.90285 9.91553 8.78776C9.83863 8.67266 9.79758 8.53735 9.79758 8.39893C9.79758 8.21331 9.87132 8.0353 10.0026 7.90404C10.1338 7.77279 10.3118 7.69906 10.4975 7.69906Z" fill="#9BA1C8"/>
<path d="M0.524276 14.9648C0.369338 15.0942 0.242913 15.2542 0.152986 15.4349C0.0630597 15.6156 0.0115872 15.813 0.00182068 16.0146C-0.00820181 16.2107 0.0232374 16.4067 0.0940868 16.5898C0.164936 16.773 0.273603 16.9391 0.412996 17.0774C0.632032 17.2871 0.91056 17.4239 1.2104 17.469C1.51024 17.5142 1.8167 17.4655 2.08779 17.3297C2.48231 17.081 2.83203 16.7675 3.12221 16.4023C3.09911 16.9049 3.05677 17.5158 2.97733 18.0418C2.93182 18.3357 2.97493 18.6365 3.10116 18.9057C3.22739 19.175 3.431 19.4005 3.68601 19.5535C3.94102 19.7066 4.23584 19.7801 4.53284 19.7647C4.82983 19.7494 5.11551 19.6459 5.3534 19.4674C5.859 19.0947 6.31957 18.6644 6.72585 18.1853C6.78213 18.6395 6.86592 19.0899 6.97676 19.5339C7.08116 19.9529 7.3231 20.3248 7.66385 20.5899C8.00461 20.8551 8.42448 20.9984 8.85627 20.9967C9.2206 20.9947 9.57713 20.891 9.88566 20.6972C10.1942 20.5034 10.4425 20.2273 10.6025 19.9C10.7414 19.6059 10.8645 19.3047 10.9713 18.9975C11.3835 19.6013 11.8545 20.1627 12.3773 20.6737C12.6215 20.8819 12.9311 20.9975 13.252 21C13.5728 21.0026 13.8843 20.8921 14.1318 20.6878C14.3792 20.4836 14.5468 20.1987 14.6051 19.8831C14.6633 19.5676 14.6085 19.2416 14.4504 18.9625C13.5825 17.4305 13.1643 16.3782 13.0156 15.3403C13.3766 15.2625 13.7023 15.0687 13.9427 14.7883C14.1831 14.508 14.325 14.1566 14.3468 13.788C14.3448 13.4366 14.2297 13.0952 14.0185 12.8144C13.8192 12.5266 13.6739 12.2049 13.5895 11.8651C13.7754 11.8866 13.9623 11.8977 14.1494 11.8983C14.934 11.8983 15.8942 11.6947 16.4681 10.8646L16.5381 10.8884C16.6188 10.9195 16.7046 10.9355 16.7911 10.9356C16.8857 10.9354 16.9792 10.9157 17.0659 10.8779C17.1527 10.8401 17.2307 10.785 17.2953 10.7159C17.3954 10.6105 17.4621 10.4778 17.4871 10.3346C17.512 10.1914 17.494 10.044 17.4353 9.91102C16.7214 8.26632 14.8199 7.84395 13.8135 7.73687C13.7317 7.43324 13.6227 7.13762 13.4877 6.85363C14.0103 6.49297 14.3947 5.96537 14.5779 5.35743C14.7612 4.7495 14.7323 4.09733 14.496 3.50797C14.2598 2.91861 13.8302 2.42706 13.2778 2.11401C12.7254 1.80095 12.0829 1.68499 11.4559 1.78514C11.3274 1.3289 11.0692 0.919763 10.7127 0.607345C10.3562 0.294927 9.91675 0.0926495 9.44759 0.0250438C8.97842 -0.042562 8.49972 0.0274081 8.06953 0.226469C7.63934 0.425529 7.27615 0.745128 7.024 1.14651C6.78743 1.08232 6.54336 1.04996 6.29823 1.05028C5.55602 1.05111 4.84444 1.34632 4.31961 1.87115C3.79479 2.39598 3.49957 3.10755 3.49874 3.84977C3.49732 4.46998 3.70395 5.07276 4.08558 5.56166C2.53816 7.00235 1.74905 9.24754 1.74905 12.2483C1.75182 12.7624 1.64387 13.2712 1.43254 13.7399C1.2212 14.2087 0.911427 14.6264 0.524276 14.9648ZM12.5971 14.6978C12.3187 14.6978 12.0516 14.5872 11.8548 14.3903C11.6579 14.1934 11.5473 13.9264 11.5473 13.648C11.5473 12.348 12.3871 11.9561 12.8602 11.8385C12.9622 12.3378 13.1646 12.8111 13.4551 13.2298C13.5773 13.3905 13.6445 13.5862 13.6469 13.788C13.6469 14.3003 13.0828 14.6978 12.5971 14.6978ZM13.5969 11.1634C13.6633 10.9615 13.7277 10.7607 13.7841 10.5567C14.0624 10.5186 14.343 10.4992 14.6239 10.4986C15.0041 10.5042 15.3824 10.554 15.7511 10.6469C15.173 11.2467 14.1995 11.2401 13.5969 11.1634ZM16.7918 10.1906C16.8054 10.2225 16.7841 10.2361 16.7806 10.2326C16.6735 10.1938 16.5594 10.1546 16.4275 10.1091C15.6259 9.84805 14.7797 9.75281 13.9401 9.82914C13.9772 9.58745 13.9962 9.34333 13.9968 9.09882C13.9956 8.88551 13.9813 8.67247 13.9541 8.46089C14.7947 8.58371 16.2623 8.97109 16.7918 10.1906ZM6.29823 1.75015C6.55886 1.74926 6.81719 1.79881 7.05899 1.89607C7.14238 1.92989 7.23559 1.93029 7.31926 1.89719C7.40293 1.86409 7.47064 1.80002 7.50831 1.71831C7.6677 1.3716 7.93607 1.0865 8.27251 0.90646C8.60896 0.726417 8.99504 0.6613 9.37192 0.721029C9.74881 0.780759 10.0958 0.96206 10.3601 1.23731C10.6244 1.51256 10.7915 1.86666 10.8359 2.24566C10.8418 2.29633 10.8587 2.34509 10.8854 2.38853C10.9122 2.43197 10.9481 2.46904 10.9906 2.49714C11.0332 2.52525 11.0814 2.5437 11.1319 2.55122C11.1823 2.55873 11.2338 2.55513 11.2827 2.54066C11.4821 2.48097 11.6891 2.45044 11.8972 2.45002C12.3392 2.45015 12.7699 2.58974 13.1279 2.84892C13.4859 3.1081 13.753 3.47365 13.8911 3.89348C14.0292 4.31332 14.0313 4.76604 13.8971 5.18715C13.7629 5.60825 13.4993 5.97628 13.1437 6.23879C12.6679 5.50603 12.0165 4.90371 11.2489 4.48651C10.4812 4.06931 9.6215 3.85044 8.74779 3.84977C7.27356 3.82212 5.82871 4.26391 4.62203 5.11129C4.34642 4.74857 4.19765 4.30532 4.19861 3.84977C4.19917 3.29309 4.42055 2.75936 4.81419 2.36573C5.20782 1.97209 5.74155 1.75071 6.29823 1.75015ZM8.74779 4.54964C9.95388 4.55103 11.1102 5.03077 11.963 5.8836C12.8158 6.73644 13.2956 7.89273 13.297 9.09882C13.2724 9.79204 13.1291 10.4759 12.8735 11.1208C12.2812 11.2128 11.7448 11.5233 11.3698 11.991C10.9948 12.4587 10.8085 13.0498 10.8474 13.648C10.8488 14.0625 10.9973 14.4631 11.2664 14.7783C11.5356 15.0936 11.908 15.303 12.3171 15.3693C12.4694 16.5241 12.912 17.6593 13.8439 19.3068C13.9007 19.4082 13.93 19.5226 13.9288 19.6387C13.9276 19.7549 13.896 19.8687 13.8371 19.9689C13.7782 20.069 13.6942 20.152 13.5933 20.2095C13.4924 20.267 13.3781 20.2971 13.262 20.2968C13.1075 20.2987 12.9575 20.2453 12.8389 20.1463C12.2046 19.4896 11.6358 18.7727 11.1403 18.0058C11.1032 17.9488 11.0503 17.9039 10.988 17.8765C10.9258 17.8491 10.8569 17.8405 10.7898 17.8516C10.7228 17.8628 10.6604 17.8932 10.6103 17.9392C10.5603 17.9852 10.5247 18.0448 10.508 18.1107C10.3773 18.6238 10.1973 19.1231 9.97047 19.6015C9.86803 19.8097 9.70942 19.9852 9.51254 20.108C9.31566 20.2309 9.08834 20.2963 8.85627 20.2968C8.58071 20.2983 8.31261 20.2073 8.09492 20.0383C7.87723 19.8694 7.72254 19.6322 7.65564 19.3649C7.47282 18.6391 7.36968 17.8955 7.34804 17.1474C7.34796 17.0686 7.3213 16.9922 7.27238 16.9304C7.22347 16.8687 7.15515 16.8253 7.07848 16.8072C7.00182 16.7891 6.9213 16.7974 6.84994 16.8307C6.77858 16.8641 6.72056 16.9205 6.68526 16.9909C6.24314 17.7482 5.64476 18.4027 4.92998 18.9107C4.80285 19.0048 4.65057 19.0589 4.49257 19.0661C4.33457 19.0733 4.178 19.0333 4.04283 18.9511C3.90767 18.869 3.80004 18.7484 3.73368 18.6049C3.66731 18.4613 3.64521 18.3012 3.67021 18.145C3.78706 17.2339 3.84666 16.3163 3.84867 15.3977C3.84865 15.3251 3.82608 15.2544 3.78408 15.1952C3.74207 15.136 3.68272 15.0914 3.61422 15.0674C3.54573 15.0435 3.47149 15.0414 3.40177 15.0615C3.33205 15.0817 3.27031 15.1229 3.22509 15.1797C2.58785 15.9789 2.11964 16.5143 1.75535 16.7127C1.61725 16.7775 1.46298 16.7996 1.31227 16.7762C1.16155 16.7528 1.02122 16.685 0.909207 16.5815C0.838625 16.512 0.783457 16.4284 0.747284 16.3361C0.711112 16.2439 0.694745 16.1451 0.699244 16.0461C0.704348 15.9417 0.731124 15.8394 0.777873 15.7458C0.824622 15.6523 0.890321 15.5695 0.970795 15.5027C1.43613 15.0979 1.80896 14.5978 2.064 14.0363C2.31904 13.4748 2.45032 12.865 2.44893 12.2483C2.44893 5.29991 6.85393 4.54964 8.74779 4.54964Z" fill="#9BA1C8"/>
</svg>
