<svg width="21" height="13" viewBox="0 0 21 13" fill="none" xmlns="http://www.w3.org/2000/svg">
<path d="M20.8026 7.34742L19.1219 3.65009C18.9826 3.34457 18.7584 3.0855 18.4761 2.90369C18.1938 2.72187 17.8652 2.62497 17.5294 2.62449H1.31499C1.19898 2.62449 1.08772 2.67057 1.00568 2.75261C0.923649 2.83464 0.877563 2.9459 0.877563 3.06192V7.87346H1.53368C1.59148 7.8729 1.64882 7.8838 1.70238 7.90553C1.75594 7.92727 1.80466 7.9594 1.84573 8.00007C1.8868 8.04074 1.9194 8.08915 1.94164 8.1425C1.96389 8.19584 1.97535 8.25307 1.97535 8.31087C1.97535 8.36867 1.96389 8.4259 1.94164 8.47924C1.9194 8.53259 1.8868 8.581 1.84573 8.62167C1.80466 8.66234 1.75594 8.69448 1.70238 8.71621C1.64882 8.73794 1.59148 8.74884 1.53368 8.74828H0.877563V10.0605C0.877943 10.4084 1.01632 10.742 1.26233 10.988C1.50834 11.234 1.84189 11.3724 2.18981 11.3728H19.6864C20.0343 11.3724 20.3679 11.234 20.6139 10.988C20.8599 10.742 20.9983 10.4084 20.9986 10.0605V8.25245C20.9991 7.94019 20.9322 7.63149 20.8026 7.34742Z" fill="#00CF66"/>
<path d="M0.877563 9.62321V10.0606C0.877943 10.4085 1.01632 10.7421 1.26233 10.9881C1.50834 11.2341 1.84189 11.3725 2.18981 11.3729H19.6864C20.0343 11.3725 20.3679 11.2341 20.6139 10.9881C20.8599 10.7421 20.9983 10.4085 20.9986 10.0606V9.62321H0.877563Z" fill="#00B157"/>
<path d="M20.1252 8.74828H21V8.25245C20.9991 8.12533 20.9872 7.99851 20.9643 7.87346H20.1252C20.0092 7.87346 19.8979 7.91955 19.8159 8.00158C19.7338 8.08362 19.6878 8.19488 19.6878 8.31089C19.6878 8.4269 19.7339 8.53815 19.8159 8.62017C19.8979 8.7022 20.0092 8.74828 20.1252 8.74828Z" fill="#FAC100"/>
<path d="M17.7313 4.37423H15.7497C15.6337 4.37423 15.5224 4.42032 15.4404 4.50235C15.3583 4.58438 15.3122 4.69565 15.3122 4.81166V6.56129C15.3122 6.6773 15.3583 6.78856 15.4404 6.8706C15.5224 6.95263 15.6337 6.99872 15.7497 6.99872H18.8083C18.8815 6.99872 18.9535 6.98035 19.0177 6.94531C19.082 6.91026 19.1364 6.85965 19.176 6.79811C19.2157 6.73657 19.2392 6.66608 19.2445 6.59308C19.2499 6.52008 19.2368 6.44691 19.2065 6.38028L18.5277 4.88703C18.4582 4.73412 18.3462 4.60445 18.2049 4.51352C18.0637 4.42258 17.8993 4.37423 17.7313 4.37423Z" fill="#EAEFF0"/>
<path d="M19.1257 6.20265C19.0855 6.24675 19.0364 6.28196 18.9817 6.30604C18.9271 6.33012 18.868 6.34253 18.8083 6.34248H15.7497C15.6337 6.34248 15.5224 6.2964 15.4404 6.21438C15.3583 6.13235 15.3123 6.0211 15.3122 5.9051V6.56122C15.3122 6.67723 15.3583 6.78849 15.4404 6.87053C15.5224 6.95256 15.6337 6.99865 15.7497 6.99865H18.8083C18.8815 6.99865 18.9535 6.98028 19.0177 6.94523C19.082 6.91019 19.1364 6.85958 19.176 6.79804C19.2157 6.7365 19.2392 6.666 19.2445 6.59301C19.2499 6.52001 19.2368 6.44684 19.2065 6.38021L19.1257 6.20265Z" fill="#D9E1E2"/>
<path d="M13.1267 0H2.19129C1.84338 0.000379906 1.50983 0.138756 1.26382 0.384767C1.01781 0.630778 0.879431 0.964332 0.879051 1.31224V6.99865H0.441663C0.383866 6.99809 0.32653 7.00899 0.272971 7.03072C0.219411 7.05245 0.170689 7.08458 0.129621 7.12525C0.0885524 7.16592 0.055952 7.21433 0.0337036 7.26768C0.0114552 7.32103 0 7.37825 0 7.43605C0 7.49385 0.0114552 7.55108 0.0337036 7.60443C0.055952 7.65778 0.0885524 7.70618 0.129621 7.74686C0.170689 7.78753 0.219411 7.81966 0.272971 7.84139C0.32653 7.86312 0.383866 7.87402 0.441663 7.87346H1.53517C1.59297 7.8729 1.65031 7.8838 1.70387 7.90553C1.75742 7.92727 1.80615 7.9594 1.84722 8.00007C1.88828 8.04074 1.92088 8.08915 1.94313 8.1425C1.96538 8.19584 1.97684 8.25307 1.97684 8.31087C1.97684 8.36867 1.96538 8.4259 1.94313 8.47924C1.92088 8.53259 1.88828 8.581 1.84722 8.62167C1.80615 8.66235 1.75742 8.69447 1.70387 8.71621C1.65031 8.73794 1.59297 8.74884 1.53517 8.74828H0.441663C0.326389 8.74939 0.216216 8.79597 0.135097 8.87788C0.0539772 8.95979 0.00847053 9.07041 0.00847053 9.18569C0.00847053 9.30097 0.0539772 9.41158 0.135097 9.49349C0.216216 9.5754 0.326389 9.62198 0.441663 9.62309H13.1267C13.4746 9.62271 13.8081 9.48434 14.0541 9.23833C14.3002 8.99231 14.4385 8.65876 14.4389 8.31085V1.31224C14.4385 0.964332 14.3002 0.630778 14.0541 0.384767C13.8081 0.138756 13.4746 0.000379906 13.1267 0Z" fill="#FD3730"/>
<path d="M4.37828 3.06199H3.06604C2.95003 3.06199 2.83878 3.10807 2.75674 3.19009C2.67471 3.27212 2.62862 3.38337 2.62861 3.49937V6.12386C2.62805 6.18166 2.63895 6.23899 2.66068 6.29255C2.68241 6.34611 2.71454 6.39484 2.75521 6.4359C2.79589 6.47697 2.8443 6.50957 2.89764 6.53182C2.95099 6.55407 3.00822 6.56553 3.06602 6.56553C3.12382 6.56553 3.18104 6.55407 3.23439 6.53182C3.28774 6.50957 3.33615 6.47697 3.37682 6.4359C3.41749 6.39484 3.44962 6.34611 3.47135 6.29255C3.49308 6.23899 3.50398 6.18166 3.50342 6.12386V5.24905H4.15955C4.21734 5.24961 4.27468 5.23871 4.32824 5.21697C4.3818 5.19524 4.43052 5.16311 4.47159 5.12244C4.51266 5.08177 4.54526 5.03336 4.56751 4.98001C4.58975 4.92667 4.60121 4.86944 4.60121 4.81164C4.60121 4.75384 4.58975 4.69661 4.56751 4.64326C4.54526 4.58992 4.51266 4.54151 4.47159 4.50084C4.43052 4.46016 4.3818 4.42803 4.32824 4.4063C4.27468 4.38457 4.21734 4.37367 4.15955 4.37423H3.50342V3.9368H4.37824C4.49351 3.93569 4.60369 3.88911 4.68481 3.8072C4.76593 3.72529 4.81143 3.61467 4.81143 3.49939C4.81143 3.38412 4.76593 3.2735 4.68481 3.19159C4.60369 3.10968 4.49355 3.0631 4.37828 3.06199Z" fill="#EAEFF0"/>
<path d="M7.55637 4.15554C7.55601 3.86562 7.44068 3.58768 7.23568 3.38268C7.03068 3.17767 6.75274 3.06235 6.46282 3.06199H5.58801C5.47199 3.06199 5.36073 3.10807 5.2787 3.19011C5.19666 3.27214 5.15058 3.3834 5.15058 3.49942V6.1239C5.15002 6.1817 5.16092 6.23904 5.18265 6.2926C5.20438 6.34616 5.23651 6.39488 5.27718 6.43595C5.31786 6.47701 5.36626 6.50961 5.41961 6.53186C5.47296 6.55411 5.53018 6.56557 5.58798 6.56557C5.64578 6.56557 5.70301 6.55411 5.75636 6.53186C5.80971 6.50961 5.85811 6.47701 5.89879 6.43595C5.93946 6.39488 5.97159 6.34616 5.99332 6.2926C6.01505 6.23904 6.02595 6.1817 6.02539 6.1239V5.60085L6.73523 6.41194C6.77286 6.45583 6.81881 6.49183 6.87044 6.51785C6.92206 6.54387 6.97833 6.5594 7.036 6.56354C7.09366 6.56767 7.15157 6.56033 7.20638 6.54195C7.26119 6.52356 7.31181 6.49449 7.35532 6.45641C7.39882 6.41834 7.43434 6.37202 7.45983 6.32013C7.48532 6.26824 7.50027 6.21181 7.50381 6.15411C7.50735 6.0964 7.49942 6.03857 7.48047 5.98395C7.46152 5.92933 7.43193 5.87902 7.39341 5.83591L6.8259 5.18717C7.03932 5.11174 7.22413 4.97206 7.35493 4.78733C7.48574 4.6026 7.55611 4.38189 7.55637 4.15554ZM6.46282 4.37423H6.02543V3.93684H6.46286C6.52087 3.93684 6.5765 3.95989 6.61752 4.0009C6.65853 4.04192 6.68158 4.09755 6.68158 4.15556C6.68158 4.21356 6.65853 4.2692 6.61752 4.31021C6.5765 4.35123 6.52087 4.37427 6.46286 4.37427L6.46282 4.37423Z" fill="#EAEFF0"/>
<path d="M9.73796 3.93682C9.79575 3.93738 9.85309 3.92648 9.90665 3.90475C9.96021 3.88302 10.0089 3.85089 10.05 3.81022C10.0911 3.76954 10.1237 3.72114 10.1459 3.66779C10.1682 3.61444 10.1796 3.55722 10.1796 3.49942C10.1796 3.44161 10.1682 3.38439 10.1459 3.33104C10.1237 3.27769 10.0911 3.22929 10.05 3.18861C10.0089 3.14794 9.96021 3.11581 9.90665 3.09408C9.85309 3.07235 9.79575 3.06145 9.73796 3.06201H8.42571C8.3097 3.06201 8.19844 3.10809 8.1164 3.19013C8.03437 3.27216 7.98828 3.38342 7.98828 3.49944V6.12392C7.98829 6.23993 8.03439 6.35118 8.11642 6.43321C8.19845 6.51523 8.30971 6.56131 8.42571 6.56131H9.73796C9.79575 6.56187 9.85309 6.55097 9.90665 6.52924C9.96021 6.50751 10.0089 6.47538 10.05 6.4347C10.0911 6.39403 10.1237 6.34562 10.1459 6.29228C10.1682 6.23893 10.1796 6.1817 10.1796 6.1239C10.1796 6.0661 10.1682 6.00888 10.1459 5.95553C10.1237 5.90218 10.0911 5.85377 10.05 5.8131C10.0089 5.77243 9.96021 5.7403 9.90665 5.71857C9.85309 5.69684 9.79575 5.68594 9.73796 5.6865H8.86314V5.24907H9.50967C9.56746 5.24963 9.6248 5.23873 9.67836 5.217C9.73192 5.19526 9.78064 5.16313 9.82171 5.12246C9.86278 5.08179 9.89538 5.03338 9.91763 4.98003C9.93987 4.92669 9.95133 4.86946 9.95133 4.81166C9.95133 4.75386 9.93987 4.69663 9.91763 4.64328C9.89538 4.58994 9.86278 4.54153 9.82171 4.50086C9.78064 4.46018 9.73192 4.42805 9.67836 4.40632C9.6248 4.38459 9.56746 4.37369 9.50967 4.37425H8.86314V3.93682H9.73796Z" fill="#EAEFF0"/>
<path d="M12.2517 5.68647H11.3769V5.24905H12.0231C12.0809 5.24961 12.1383 5.23871 12.1918 5.21697C12.2454 5.19524 12.2941 5.16311 12.3352 5.12244C12.3763 5.08177 12.4089 5.03336 12.4311 4.98001C12.4534 4.92667 12.4648 4.86944 12.4648 4.81164C12.4648 4.75384 12.4534 4.69661 12.4311 4.64326C12.4089 4.58992 12.3763 4.54151 12.3352 4.50084C12.2941 4.46016 12.2454 4.42803 12.1918 4.4063C12.1383 4.38457 12.0809 4.37367 12.0231 4.37423H11.3769V3.9368H12.2517C12.367 3.93569 12.4771 3.88911 12.5582 3.8072C12.6394 3.72529 12.6849 3.61467 12.6849 3.49939C12.6849 3.38412 12.6394 3.2735 12.5582 3.19159C12.4771 3.10968 12.367 3.0631 12.2517 3.06199H10.9394C10.8234 3.062 10.7122 3.10808 10.6302 3.19011C10.5481 3.27213 10.5021 3.38338 10.5021 3.49937V6.12386C10.5021 6.23987 10.5481 6.35114 10.6302 6.43317C10.7122 6.5152 10.8235 6.56129 10.9395 6.56129H12.2517C12.367 6.56017 12.4772 6.5136 12.5583 6.43169C12.6394 6.34978 12.6849 6.23916 12.6849 6.12388C12.6849 6.0086 12.6394 5.89798 12.5583 5.81607C12.4772 5.73417 12.367 5.68759 12.2517 5.68647Z" fill="#EAEFF0"/>
<path d="M4.81429 12.9038C5.90139 12.9038 6.78266 12.0225 6.78266 10.9354C6.78266 9.84835 5.90139 8.96708 4.81429 8.96708C3.7272 8.96708 2.84593 9.84835 2.84593 10.9354C2.84593 12.0225 3.7272 12.9038 4.81429 12.9038Z" fill="#2D4A60"/>
<path d="M4.81565 11.8101C5.29879 11.8101 5.69046 11.4184 5.69046 10.9353C5.69046 10.4521 5.29879 10.0604 4.81565 10.0604C4.3325 10.0604 3.94083 10.4521 3.94083 10.9353C3.94083 11.4184 4.3325 11.8101 4.81565 11.8101Z" fill="#D9E1E2"/>
<path d="M16.1898 12.9038C17.2769 12.9038 18.1582 12.0225 18.1582 10.9354C18.1582 9.84835 17.2769 8.96708 16.1898 8.96708C15.1027 8.96708 14.2214 9.84835 14.2214 10.9354C14.2214 12.0225 15.1027 12.9038 16.1898 12.9038Z" fill="#2D4A60"/>
<path d="M16.1871 11.8101C16.6702 11.8101 17.0619 11.4184 17.0619 10.9353C17.0619 10.4521 16.6702 10.0604 16.1871 10.0604C15.7039 10.0604 15.3122 10.4521 15.3122 10.9353C15.3122 11.4184 15.7039 11.8101 16.1871 11.8101Z" fill="#D9E1E2"/>
</svg>
