<svg width="56" height="56" viewBox="0 0 56 56" fill="none" xmlns="http://www.w3.org/2000/svg">
<g clip-path="url(#clip0_73_2509)">
<path d="M0.972656 42.6909C1.88505 44.3286 3.36725 45.5742 5.13766 46.1909C5.25141 45.2196 5.71516 43.1809 7.54391 42.3584C10.3194 40.826 12.6706 38.6281 14.3864 35.9621C16.0052 33.3371 18.1227 33.1359 18.9364 33.1621C19.381 33.1913 19.8275 33.147 20.2577 33.0309C20.7641 32.8992 21.2056 32.5883 21.5002 32.1559L16.5039 27.1246L0.972656 42.6909ZM35.7714 24.4996C36.7164 19.5384 41.0914 17.2459 43.6464 16.3184C45.2928 15.713 46.7997 14.7808 48.0764 13.5778C49.3531 12.3748 50.3731 10.9259 51.0752 9.31836L42.3777 0.655863C42.2268 0.508284 42.0472 0.393295 41.85 0.318034C41.6528 0.242773 41.4422 0.208848 41.2314 0.218363C41.0219 0.231357 40.8176 0.288795 40.632 0.386858C40.4465 0.484921 40.2839 0.621363 40.1552 0.787113C33.0581 9.87224 25.3675 18.4777 17.1339 26.5471L22.3839 31.7534L25.6214 34.9909C26.6724 33.6681 28.1919 32.8003 29.8652 32.5671C32.6914 32.2346 34.8527 29.2684 35.7714 24.4996ZM41.3452 3.16711C41.5947 3.16712 41.8387 3.24124 42.0461 3.38008C42.2535 3.51893 42.415 3.71623 42.5101 3.94697C42.6052 4.17772 42.6296 4.43151 42.5803 4.67616C42.5309 4.92081 42.4101 5.14531 42.233 5.32117C42.0559 5.49703 41.8306 5.61633 41.5856 5.66396C41.3406 5.71158 41.087 5.68538 40.8569 5.58867C40.6268 5.49196 40.4306 5.3291 40.2932 5.12075C40.1558 4.9124 40.0834 4.66793 40.0852 4.41836C40.0852 4.25331 40.1178 4.08988 40.1812 3.9375C40.2447 3.78512 40.3376 3.64679 40.4547 3.53049C40.5718 3.41418 40.7108 3.3222 40.8636 3.25984C41.0165 3.19747 41.1801 3.16596 41.3452 3.16711Z" fill="black"/>
<path d="M55.3764 13.1336L52.0339 9.7998C50.4814 13.1035 47.6898 15.6624 44.2639 16.9223C41.3939 17.9723 37.7977 20.1336 36.9752 24.4473C35.9777 29.6973 33.5539 32.8823 30.3077 33.2848C28.8362 33.5052 27.5069 34.2859 26.5977 35.4636L28.9427 37.8086C38.7864 31.6836 53.2239 15.5748 55.3764 13.1336ZM30.7714 37.6423V39.5936C30.7466 39.844 30.7746 40.0969 30.8535 40.3358C30.9323 40.5748 31.0604 40.7947 31.2294 40.9812C31.3983 41.1677 31.6045 41.3167 31.8345 41.4187C32.0646 41.5207 32.3135 41.5734 32.5652 41.5734C32.8168 41.5734 33.0657 41.5207 33.2958 41.4187C33.5258 41.3167 33.732 41.1677 33.901 40.9812C34.0699 40.7947 34.198 40.5748 34.2769 40.3358C34.3557 40.0969 34.3837 39.844 34.3589 39.5936V38.5873C34.3199 38.393 34.3244 38.1925 34.3723 38.0002C34.4202 37.8078 34.5101 37.6286 34.6357 37.4752C34.7613 37.3219 34.9193 37.1984 35.0984 37.1136C35.2775 37.0287 35.4732 36.9847 35.6714 36.9847C35.8696 36.9847 36.0653 37.0287 36.2444 37.1136C36.4235 37.1984 36.5816 37.3219 36.7071 37.4752C36.8327 37.6286 36.9227 37.8078 36.9705 38.0002C37.0184 38.1925 37.023 38.393 36.9839 38.5873V41.7286C36.9583 41.9968 36.989 42.2674 37.0741 42.523C37.1592 42.7787 37.2968 43.0137 37.478 43.2131C37.6593 43.4125 37.8802 43.5717 38.1266 43.6807C38.373 43.7897 38.6395 43.8461 38.9089 43.8461C39.1783 43.8461 39.4448 43.7897 39.6912 43.6807C39.9376 43.5717 40.1585 43.4125 40.3398 43.2131C40.521 43.0137 40.6586 42.7787 40.7437 42.523C40.8288 42.2674 40.8595 41.9968 40.8339 41.7286V34.4836C40.8115 34.2806 40.8322 34.0752 40.8945 33.8808C40.9569 33.6864 41.0595 33.5073 41.1958 33.3552C41.332 33.2031 41.4988 33.0815 41.6852 32.9982C41.8716 32.9149 42.0735 32.8719 42.2777 32.8719C42.4818 32.8719 42.6837 32.9149 42.8701 32.9982C43.0565 33.0815 43.2233 33.2031 43.3595 33.3552C43.4958 33.5073 43.5984 33.6864 43.6608 33.8808C43.7231 34.0752 43.7438 34.2806 43.7214 34.4836V36.7236C43.7047 36.955 43.7359 37.1873 43.813 37.4061C43.8901 37.625 44.0114 37.8256 44.1695 37.9954C44.3275 38.1653 44.5188 38.3007 44.7315 38.3933C44.9443 38.486 45.1738 38.5338 45.4058 38.5338C45.6378 38.5338 45.8673 38.486 46.08 38.3933C46.2927 38.3007 46.4841 38.1653 46.6421 37.9954C46.8002 37.8256 46.9215 37.625 46.9986 37.4061C47.0757 37.1873 47.1068 36.955 47.0902 36.7236V23.2398C42.1464 28.2973 36.0039 34.0811 30.7714 37.6423ZM42.6539 45.2461C42.6382 45.4516 42.665 45.6581 42.7329 45.8528C42.8007 46.0474 42.908 46.226 43.0481 46.3772C43.1882 46.5284 43.358 46.649 43.5469 46.7315C43.7358 46.8141 43.9397 46.8566 44.1458 46.8566C44.3519 46.8566 44.5558 46.8141 44.7447 46.7315C44.9336 46.649 45.1034 46.5284 45.2435 46.3772C45.3835 46.226 45.4909 46.0474 45.5587 45.8528C45.6265 45.6581 45.6534 45.4516 45.6377 45.2461C45.6377 44.4148 44.1414 42.0873 44.1414 42.0873C44.1414 42.0873 42.6539 44.4498 42.6539 45.2461ZM34.6389 48.6323C34.6389 49.0291 34.7965 49.4097 35.0771 49.6903C35.3578 49.9709 35.7383 50.1286 36.1352 50.1286C36.532 50.1286 36.9126 49.9709 37.1932 49.6903C37.4738 49.4097 37.6314 49.0291 37.6314 48.6323C37.6314 47.8098 36.1352 45.4736 36.1352 45.4736C36.1352 45.4736 34.6389 47.8098 34.6389 48.6323ZM39.6614 54.0748C39.6614 54.4716 39.819 54.8522 40.0996 55.1328C40.3802 55.4134 40.7608 55.5711 41.1577 55.5711C41.5545 55.5711 41.9351 55.4134 42.2157 55.1328C42.4963 54.8522 42.6539 54.4716 42.6539 54.0748C42.6539 53.2523 41.1577 50.9161 41.1577 50.9161C41.1577 50.9161 39.6614 53.2873 39.6614 54.0748Z" fill="black"/>
</g>
<defs>
<clipPath id="clip0_73_2509">
<rect width="56" height="56" fill="white"/>
</clipPath>
</defs>
</svg>
