<svg width="339" height="53" viewBox="0 0 339 53" fill="none" xmlns="http://www.w3.org/2000/svg">
<rect x="0.5" y="0.5" width="338" height="52" rx="9.5" fill="white" stroke="#ECEEFF"/>
<path d="M308.453 32L313.046 27.0606C313.589 26.4773 313.589 25.5227 313.046 24.9394L308.453 20" stroke="#171717" stroke-miterlimit="10" stroke-linecap="round" stroke-linejoin="round"/>
<path d="M41.9349 27.7891H16V36.4289H41.9349V27.7891Z" fill="#84B740"/>
<path d="M41.9349 16H16V24.6475H41.9349V16Z" fill="#259BD6"/>
<path d="M67.8689 34.6737L67.7533 34.6969C67.3529 34.7739 67.2066 34.8047 66.9139 34.8047C66.2363 34.8047 65.4354 34.4582 65.4354 32.8257C65.4354 31.9863 65.574 30.8698 66.8368 30.8698H66.8446C67.0601 30.8852 67.3066 30.9083 67.7686 31.0469L67.8687 31.0777L67.8689 34.6737ZM68.0768 26.5344L67.8689 26.573V29.5915L67.6841 29.5375L67.6302 29.5222C67.4223 29.4606 66.9449 29.322 66.4829 29.322C63.9571 29.322 63.4258 31.2318 63.4258 32.8333C63.4258 35.028 64.6578 36.2908 66.8063 36.2908C67.7149 36.2908 68.3848 36.1984 69.0625 35.9751C69.6863 35.775 69.9096 35.49 69.9096 34.8816V26.2188C69.3089 26.3265 68.6851 26.4343 68.0768 26.5344Z" fill="#27292D"/>
<path d="M75.3779 34.7274L75.2702 34.7582L74.8851 34.8584C74.5233 34.9507 74.1998 35.0047 73.9534 35.0047C73.3604 35.0047 73.0062 34.712 73.0062 34.2116C73.0062 33.8882 73.1525 33.3414 74.1227 33.3414H75.3778V34.7274H75.3779ZM74.4923 29.2832C73.7146 29.2832 72.9138 29.4218 71.9204 29.7298L71.2735 29.9223L71.4892 31.3853L72.1207 31.1774C72.783 30.9617 73.6069 30.8232 74.223 30.8232C74.5002 30.8232 75.3473 30.8232 75.3473 31.7396V32.14H74.1692C72.0207 32.14 71.0273 32.8253 71.0273 34.2961C71.0273 35.5512 71.9437 36.3058 73.4837 36.3058C73.9611 36.3058 74.6234 36.2135 75.1932 36.0748L75.224 36.067L75.2548 36.0748L75.4473 36.1056C76.0479 36.2133 76.6716 36.3212 77.2799 36.4366V31.6315C77.2799 30.0763 76.3405 29.2832 74.4923 29.2832Z" fill="#27292D"/>
<path d="M60.4131 34.7274L60.3053 34.7582L59.9203 34.8584C59.5584 34.9507 59.2426 35.0047 58.9885 35.0047C58.3956 35.0047 58.0413 34.712 58.0413 34.2116C58.0413 33.8882 58.1877 33.3414 59.1502 33.3414H60.4053V34.7274H60.4131ZM59.5353 29.2832C58.7498 29.2832 57.9567 29.4218 56.9634 29.7298L56.3165 29.9223L56.532 31.3853L57.1635 31.1774C57.8258 30.9617 58.6497 30.8232 59.2658 30.8232C59.543 30.8232 60.3901 30.8232 60.3901 31.7396V32.14H59.2119C57.0635 32.14 56.0625 32.8253 56.0625 34.2961C56.0625 35.5512 56.9789 36.3058 58.5266 36.3058C59.004 36.3058 59.6663 36.2135 60.2361 36.0748L60.2669 36.067L60.2977 36.0748L60.4824 36.1056C61.0908 36.2133 61.7067 36.3212 62.3151 36.4444V31.6393C62.3228 30.0687 61.3834 29.2832 59.5353 29.2832Z" fill="#27292D"/>
<path d="M52.3088 29.2988C51.3309 29.2988 50.5224 29.6222 50.2221 29.7608L50.1451 29.7993L50.0758 29.7454C49.66 29.4451 49.0516 29.291 48.2046 29.291C47.4577 29.291 46.757 29.3988 45.9946 29.6221C45.34 29.8222 45.0859 30.1381 45.0859 30.731V36.2214H47.1343V31.1468L47.2344 31.116C47.6502 30.9775 47.8967 30.9543 48.1354 30.9543C48.7283 30.9543 49.0286 31.27 49.0286 31.8861V36.229H51.0461V31.8013C51.0461 31.5395 50.9922 31.3855 50.9845 31.3547L50.9152 31.2238L51.0538 31.1622C51.3618 31.0236 51.7007 30.9543 52.0548 30.9543C52.4628 30.9543 52.948 31.116 52.948 31.8861V36.229H54.9577V31.6859C54.9577 30.0765 54.0953 29.2988 52.3088 29.2988Z" fill="#27292D"/>
<path d="M73.8674 21.6366C73.5671 21.6366 73.0665 21.6058 72.6739 21.5288L72.5583 21.5057V18.541C72.5583 18.2945 72.5121 18.1406 72.5044 18.1174L72.4428 17.9942L72.5737 17.9403C72.6045 17.9249 72.6353 17.9171 72.6739 17.9017L72.697 17.8863C72.7432 17.8709 72.7894 17.8555 72.8356 17.8401C72.8588 17.8324 72.8742 17.8247 72.8895 17.8247C73.3439 17.7016 73.7597 17.717 73.9445 17.7016H73.9523C75.2074 17.7016 75.3537 18.8181 75.3537 19.6575C75.3459 21.2901 74.5373 21.6366 73.8674 21.6366ZM73.8598 16C73.8444 16 73.8212 16 73.8058 16C72.6277 16 71.4186 16.3234 70.9874 16.9548C70.7564 17.2629 70.6256 17.6479 70.6178 18.1021V21.1592C70.6178 21.4211 70.5638 21.5211 70.5562 21.5442L70.4869 21.6752H66.7676V19.5499H66.7599C66.7137 17.309 65.3892 16.077 63.4719 16.077H63.2486H61.6007C61.5237 16.6237 61.4621 17.0088 61.3851 17.5555H63.2486C64.2265 17.5555 64.7425 18.3872 64.7425 19.6654V21.8061L64.6116 21.7367C64.5884 21.729 64.4268 21.6752 64.1726 21.6752H60.9538C60.8922 22.0832 60.8152 22.6146 60.7305 23.1459H70.6254C70.9643 23.0766 71.3569 23.015 71.6958 22.9612C72.1963 23.2077 73.128 23.3384 73.7671 23.3384C75.9156 23.3384 77.3093 21.8985 77.3093 19.6808C77.3017 17.4862 75.9543 16.0462 73.8598 16Z" fill="#27292D"/>
<path d="M56.5135 24.0471H56.6059C58.7543 24.0471 59.7553 23.3387 59.7553 21.5908C59.7553 20.3355 58.839 19.3346 57.299 19.3346H55.32C54.7271 19.3346 54.3728 18.9957 54.3728 18.4259C54.3728 18.0409 54.5192 17.5635 55.4894 17.5635H59.8169C59.9093 17.0013 59.9555 16.6471 60.0402 16.085H55.5432C53.4487 16.085 52.3937 16.9628 52.3937 18.4259C52.3937 19.8735 53.3101 20.6282 54.8501 20.6282H56.8291C57.422 20.6282 57.7762 21.098 57.7762 21.5908C57.7762 21.9142 57.6299 22.5841 56.6673 22.5841H56.3363L49.9988 22.5687H48.8437C47.8658 22.5687 47.1804 22.0144 47.1804 20.7283V19.8427C47.1804 18.5029 47.7118 17.6713 48.8437 17.6713H50.7225C50.8073 17.1015 50.8611 16.7395 50.9382 16.2005H48.5973H48.3739C46.4566 16.2005 45.1321 17.4865 45.0859 19.7272V19.812V20.7283C45.1321 22.9692 46.4566 24.0395 48.3739 24.0395H48.5973H50.2451L53.6795 24.0473H55.7278L56.5135 24.0471Z" fill="#27292D"/>
</svg>
