<svg width="21" height="29" viewBox="0 0 21 29" fill="none" xmlns="http://www.w3.org/2000/svg">
<path d="M10.2914 14.1186C10.2506 14.1186 10.2234 14.1186 10.1825 14.1186C10.1144 14.105 10.0191 14.105 9.93745 14.1186C5.98914 13.9961 3.0075 10.8919 3.0075 7.0661C3.0075 3.17226 6.17975 0 10.0736 0C13.9674 0 17.1397 3.17226 17.1397 7.0661C17.1261 10.8919 14.1308 13.9961 10.3323 14.1186C10.3187 14.1186 10.305 14.1186 10.2914 14.1186ZM10.0736 2.04223C7.30978 2.04223 5.04972 4.30229 5.04972 7.0661C5.04972 9.78907 7.17364 11.9811 9.88299 12.0764C9.95106 12.0627 10.1417 12.0627 10.3187 12.0764C12.9872 11.9538 15.0839 9.76184 15.0975 7.0661C15.0975 4.30229 12.8374 2.04223 10.0736 2.04223Z" fill="black"/>
<path d="M10.3064 28.9999C7.63792 28.9999 4.9558 28.3192 2.92719 26.9577C1.03473 25.7051 0 23.9897 0 22.1244C0 20.2592 1.03473 18.5301 2.92719 17.2639C7.01164 14.5546 13.6285 14.5546 17.6857 17.2639C19.5645 18.5165 20.6129 20.232 20.6129 22.0972C20.6129 23.9624 19.5781 25.6915 17.6857 26.9577C15.6434 28.3192 12.9749 28.9999 10.3064 28.9999ZM4.05722 18.9794C2.7502 19.8508 2.04223 20.9672 2.04223 22.1381C2.04223 23.2953 2.76381 24.4117 4.05722 25.2695C7.44732 27.5431 13.1655 27.5431 16.5556 25.2695C17.8627 24.3981 18.5706 23.2817 18.5706 22.1108C18.5706 20.9536 17.849 19.8371 16.5556 18.9794C13.1655 16.7194 7.44732 16.7194 4.05722 18.9794Z" fill="black"/>
</svg>
