<svg width="18" height="21" viewBox="0 0 18 21" fill="none" xmlns="http://www.w3.org/2000/svg">
<path d="M17.1042 7.08692C16.4222 6.33368 15.3941 5.89598 13.969 5.7433V4.9697C13.969 3.57519 13.3787 2.23157 12.3404 1.29511C11.292 0.338288 9.92801 -0.109585 8.51314 0.0227415C6.08038 0.256857 4.03441 2.60819 4.03441 5.15292V5.7433C2.60936 5.89598 1.58129 6.33368 0.899304 7.08692C-0.0880521 8.18624 -0.0575152 9.65201 0.054453 10.6699L0.766978 16.3396C0.980735 18.3245 1.78487 20.3602 6.16181 20.3602H11.8416C16.2186 20.3602 17.0227 18.3245 17.2365 16.3497L17.949 10.6597C18.061 9.65201 18.0813 8.18624 17.1042 7.08692ZM8.65565 1.43761C9.67354 1.346 10.6405 1.66155 11.3938 2.34354C12.1368 3.01535 12.5542 3.97217 12.5542 4.9697V5.68222H5.44928V5.15292C5.44928 3.34107 6.94559 1.60048 8.65565 1.43761ZM5.35767 11.3519H5.34749C4.78765 11.3519 4.3296 10.8938 4.3296 10.334C4.3296 9.77415 4.78765 9.3161 5.34749 9.3161C5.91751 9.3161 6.37557 9.77415 6.37557 10.334C6.37557 10.8938 5.91751 11.3519 5.35767 11.3519ZM12.4829 11.3519H12.4727C11.9129 11.3519 11.4549 10.8938 11.4549 10.334C11.4549 9.77415 11.9129 9.3161 12.4727 9.3161C13.0428 9.3161 13.5008 9.77415 13.5008 10.334C13.5008 10.8938 13.0428 11.3519 12.4829 11.3519Z" fill="#2F4858"/>
</svg>
