<svg width="16" height="20" viewBox="0 0 16 20" fill="none" xmlns="http://www.w3.org/2000/svg">
<path d="M13.7132 2.62037H11.9039V1.81092C11.9039 1.54903 11.6182 1.43001 11.3563 1.43001H9.95167C9.61838 0.477696 8.7851 0.00154151 7.83279 0.00154151C6.89096 -0.0338659 6.0343 0.543635 5.7139 1.43001H4.33306C4.07117 1.43001 3.80928 1.54903 3.80928 1.81092V2.62037H1.99986C0.927611 2.63181 0.0503998 3.47767 0 4.54878V18.1906C0 19.2381 0.952309 19.9999 1.99986 19.9999H13.7132C14.7608 19.9999 15.7131 19.2381 15.7131 18.1906V4.54882C15.6627 3.47767 14.7855 2.63181 13.7132 2.62037ZM4.76155 2.38231H6.07098C6.29956 2.35443 6.48316 2.18053 6.52335 1.95378C6.66434 1.33978 7.20302 0.899031 7.83279 0.882444C8.45672 0.901355 8.98729 1.34347 9.11839 1.95378C9.16109 2.18837 9.35681 2.3645 9.59455 2.38231H10.9516V4.28693H4.76155V2.38231ZM14.7608 18.1906C14.7608 18.7144 14.237 19.0477 13.7132 19.0477H1.99986C1.47608 19.0477 0.952309 18.7144 0.952309 18.1906V4.54882C1.00089 4.00363 1.45257 3.5827 1.99986 3.57272H3.80924V4.78692C3.83439 5.05368 4.06543 5.25323 4.33301 5.23929H11.3563C11.6288 5.25419 11.867 5.05738 11.9038 4.78692V3.57268H13.7132C14.2604 3.5827 14.7122 4.00358 14.7608 4.54878V18.1906H14.7608Z" fill="#ECEEFF"/>
<path d="M6.0219 10.6437C5.84332 10.4555 5.54684 10.4449 5.35527 10.62L3.83157 12.0722L3.18876 11.4056C3.01018 11.2173 2.7137 11.2067 2.52213 11.3818C2.33771 11.575 2.33771 11.879 2.52213 12.0722L3.49823 13.0721C3.58271 13.1667 3.70475 13.219 3.83152 13.215C3.95711 13.2132 4.07691 13.1619 4.16481 13.0721L6.02181 11.3104C6.20591 11.1415 6.21822 10.8553 6.04929 10.6713C6.04063 10.6616 6.03147 10.6525 6.0219 10.6437Z" fill="#ECEEFF"/>
<path d="M12.855 11.6672H7.3792C7.11622 11.6672 6.90304 11.8803 6.90304 12.1433C6.90304 12.4063 7.11622 12.6195 7.3792 12.6195H12.855C13.1179 12.6195 13.3311 12.4063 13.3311 12.1433C13.3311 11.8803 13.1179 11.6672 12.855 11.6672Z" fill="#ECEEFF"/>
<path d="M6.0219 6.83414C5.84332 6.6459 5.54684 6.63528 5.35527 6.81036L3.83157 8.26261L3.18876 7.59597C3.01018 7.40773 2.7137 7.39711 2.52213 7.57218C2.33771 7.7654 2.33771 8.06939 2.52213 8.26261L3.49823 9.26254C3.58271 9.35714 3.70475 9.40945 3.83152 9.4054C3.95711 9.40362 4.07691 9.35226 4.16481 9.26254L6.02181 7.50078C6.20591 7.3319 6.21822 7.04572 6.04929 6.86167C6.04063 6.85205 6.03147 6.84289 6.0219 6.83414Z" fill="#ECEEFF"/>
<path d="M12.855 7.85807H7.3792C7.11622 7.85807 6.90304 8.07125 6.90304 8.33423C6.90304 8.59721 7.11622 8.81038 7.3792 8.81038H12.855C13.1179 8.81038 13.3311 8.59721 13.3311 8.33423C13.3311 8.07125 13.1179 7.85807 12.855 7.85807Z" fill="#ECEEFF"/>
<path d="M6.0219 14.4528C5.84332 14.2646 5.54684 14.254 5.35527 14.429L3.83157 15.8813L3.18876 15.2146C3.01018 15.0264 2.7137 15.0158 2.52213 15.1909C2.33771 15.3841 2.33771 15.6881 2.52213 15.8813L3.49823 16.8812C3.58271 16.9758 3.70475 17.0281 3.83152 17.0241C3.95711 17.0223 4.07691 16.9709 4.16481 16.8812L6.02181 15.1194C6.20591 14.9506 6.21822 14.6644 6.04929 14.4803C6.04063 14.4708 6.03147 14.4616 6.0219 14.4528Z" fill="#ECEEFF"/>
<path d="M12.855 15.4768H7.3792C7.11622 15.4768 6.90304 15.6899 6.90304 15.9529C6.90304 16.2159 7.11622 16.4291 7.3792 16.4291H12.855C13.1179 16.4291 13.3311 16.2159 13.3311 15.9529C13.3311 15.6899 13.1179 15.4768 12.855 15.4768Z" fill="#ECEEFF"/>
</svg>
