<svg width="44" height="44" viewBox="0 0 44 44" fill="none" xmlns="http://www.w3.org/2000/svg">
<rect width="44" height="44" rx="22" fill="#DD3F61" fill-opacity="0.05"/>
<path d="M21.1 32.75H16.9C12.99 32.75 11.25 31.01 11.25 27.1V22.9C11.25 18.99 12.99 17.25 16.9 17.25H21.1C25.01 17.25 26.75 18.99 26.75 22.9V27.1C26.75 31.01 25.01 32.75 21.1 32.75ZM16.9 18.75C13.8 18.75 12.75 19.8 12.75 22.9V27.1C12.75 30.2 13.8 31.25 16.9 31.25H21.1C24.2 31.25 25.25 30.2 25.25 27.1V22.9C25.25 19.8 24.2 18.75 21.1 18.75H16.9Z" fill="#DD3F61"/>
<path d="M27.1 26.75H26C25.59 26.75 25.25 26.41 25.25 26V22.9C25.25 19.8 24.2 18.75 21.1 18.75H18C17.59 18.75 17.25 18.41 17.25 18V16.9C17.25 12.99 18.99 11.25 22.9 11.25H27.1C31.01 11.25 32.75 12.99 32.75 16.9V21.1C32.75 25.01 31.01 26.75 27.1 26.75ZM26.75 25.25H27.1C30.2 25.25 31.25 24.2 31.25 21.1V16.9C31.25 13.8 30.2 12.75 27.1 12.75H22.9C19.8 12.75 18.75 13.8 18.75 16.9V17.25H21.1C25.01 17.25 26.75 18.99 26.75 22.9V25.25Z" fill="#DD3F61"/>
</svg>
