<svg width="40" height="40" viewBox="0 0 40 40" fill="none" xmlns="http://www.w3.org/2000/svg">
<g clip-path="url(#clip0_90_2612)">
<path d="M34.2 5.74833C30.4 2.075 25.4 0 20.075 0C4.79167 0 -4.805 16.5583 2.82667 29.73L0 40L10.5583 37.2467C15.1583 39.7317 18.9267 39.5117 20.085 39.6583C37.8067 39.6583 46.6283 18.2183 34.175 5.81333L34.2 5.74833Z" fill="#ECEFF1"/>
<path d="M20.1117 36.2518L20.1017 36.2501H20.0751C14.7717 36.2501 11.3834 33.7384 11.05 33.5934L4.80005 35.2184L6.47505 29.1434L6.07672 28.5184C4.42672 25.8918 3.55005 22.8668 3.55005 19.7518C3.55005 5.09677 21.4584 -2.23156 31.8217 8.12678C42.1601 18.3768 34.9017 36.2518 20.1117 36.2518Z" fill="#4CAF50"/>
<path d="M29.1783 23.8451L29.1633 23.9701C28.6617 23.7201 26.2183 22.5251 25.7633 22.3601C24.7417 21.9818 25.03 22.3001 23.0683 24.5468C22.7767 24.8718 22.4867 24.8968 21.9917 24.6718C21.4917 24.4218 19.8867 23.8968 17.9867 22.1968C16.5067 20.8718 15.5133 19.2468 15.22 18.7468C14.7317 17.9035 15.7533 17.7835 16.6833 16.0235C16.85 15.6735 16.765 15.3985 16.6417 15.1501C16.5167 14.9001 15.5217 12.4501 15.105 11.4735C14.705 10.5001 14.2933 10.6235 13.985 10.6235C13.025 10.5401 12.3233 10.5535 11.705 11.1968C9.01498 14.1535 9.69332 17.2035 11.995 20.4468C16.5183 26.3668 18.9283 27.4568 23.335 28.9701C24.525 29.3485 25.61 29.2951 26.4683 29.1718C27.425 29.0201 29.4133 27.9701 29.8283 26.7951C30.2533 25.6201 30.2533 24.6451 30.1283 24.4201C30.005 24.1951 29.6783 24.0701 29.1783 23.8451Z" fill="#FAFAFA"/>
</g>
<defs>
<clipPath id="clip0_90_2612">
<rect width="40" height="40" fill="white"/>
</clipPath>
</defs>
</svg>
