<svg width="82" height="78" viewBox="0 0 82 78" fill="none" xmlns="http://www.w3.org/2000/svg">
<path d="M75.1842 8.99152C74.3896 8.69668 73.5681 8.46914 72.7346 8.32492C71.0139 8.03007 69.2454 8.10379 67.5546 8.55887C67.1931 8.65822 66.8377 8.77039 66.4852 8.90179C66.4852 8.89538 65.7981 0.264795 58.1087 0.00520407C50.4164 -0.254386 41.3918 9.25111 40.6688 16.5549C39.9429 9.25111 30.9213 -0.254386 23.2289 0.00520407C15.5366 0.26159 14.8495 8.89538 14.8495 8.90179C14.497 8.77039 14.1416 8.65822 13.7801 8.55887C12.0893 8.10379 10.3208 8.03007 8.6001 8.32492C7.76664 8.46914 6.94513 8.69668 6.15051 8.99152C6.15051 8.99152 -3.88087 11.8438 1.67851 28.9576C1.67851 28.9576 2.28195 7.30899 14.3656 15.6031C14.3925 15.6223 14.3238 16.0261 14.3208 16.0582C14.282 16.478 14.2521 16.8946 14.2282 17.3144C14.1923 17.9394 14.1714 18.5643 14.1655 19.1893C14.1565 19.9584 14.1714 20.7308 14.2073 21.4999C14.2491 22.3588 14.3208 23.2145 14.4313 24.067C14.5419 24.9547 14.6972 25.8393 14.9063 26.7078C15.1124 27.5731 15.3723 28.4256 15.7099 29.246C16.0325 30.0376 16.4298 30.8003 16.9138 31.4926C17.3888 32.172 17.9534 32.7809 18.5986 33.2744C19.1543 33.6975 19.7786 34.0148 20.4209 34.2583C21.0631 34.4987 21.6068 34.7134 22.3865 34.5468C22.9242 34.4314 23.3813 34.0757 23.7995 33.7039C24.2297 33.3193 24.621 32.9091 24.9437 32.4156C25.4067 31.7137 25.7263 30.9125 25.9205 30.0792C26.1894 28.9383 26.2282 27.7461 26.1386 26.5764C26.0101 24.9099 25.6248 23.2722 25.1259 21.6922C24.385 19.3367 23.5038 16.9843 22.2282 14.898C21.105 13.0616 19.5605 11.6002 17.8279 10.4401C17.6307 10.3087 17.4306 10.1805 17.2274 10.0587L17.2065 10.0491C17.2006 10.0459 17.1976 10.0427 17.1916 10.0395L17.2304 10.0587C17.5531 6.67123 20.5284 5.3188 20.5284 5.3188C24.8779 3.97918 29.9145 8.14545 29.9145 8.14545C35.7547 12.0073 40.6688 21.6954 40.6688 21.6954C40.6688 21.6954 45.583 12.0073 51.4232 8.14545C51.4232 8.14545 56.4568 3.97918 60.8093 5.3188C60.8093 5.3188 63.7846 6.67123 64.1102 10.0587L64.1491 10.0395C64.1431 10.0427 64.1401 10.0459 64.1341 10.0491L64.1132 10.0587C63.9101 10.1805 63.7099 10.3087 63.5128 10.4401C61.7801 11.6002 60.2357 13.0616 59.1125 14.898C57.8369 16.9843 56.9556 19.3367 56.2148 21.6922C55.7159 23.2722 55.3305 24.9099 55.2021 26.5764C55.1125 27.7461 55.1513 28.9383 55.4202 30.0792C55.6143 30.9125 55.934 31.7137 56.397 32.4156C56.7196 32.9091 57.111 33.3193 57.5412 33.7039C57.9594 34.0757 58.4164 34.4314 58.9542 34.5468C59.7338 34.7134 60.2775 34.4987 60.9198 34.2583C61.5621 34.0148 62.1864 33.6975 62.7421 33.2744C63.3873 32.7809 63.9519 32.172 64.4269 31.4926C64.9108 30.8003 65.3082 30.0376 65.6308 29.246C65.9684 28.4256 66.2282 27.5731 66.4344 26.7078C66.6435 25.8393 66.7988 24.9547 66.9094 24.067C67.0199 23.2145 67.0916 22.3588 67.1334 21.4999C67.1692 20.7308 67.1842 19.9584 67.1752 19.1893C67.1692 18.5643 67.1483 17.9394 67.1125 17.3144C67.0886 16.8946 67.0587 16.478 67.0199 16.0582C67.0169 16.0261 66.9482 15.6223 66.9751 15.6031C79.0587 7.30899 79.6622 28.9576 79.6622 28.9576C85.2156 11.8438 75.1842 8.99152 75.1842 8.99152ZM14.8525 8.90499L14.8675 8.9114C14.8615 8.9082 14.8555 8.90499 14.8525 8.90499ZM21.093 29.6466C21.093 29.6466 16.0564 29.3453 16.1371 17.2888C16.1371 17.2888 21.7383 23.5991 21.093 29.6466ZM60.2417 29.6466C59.5964 23.5991 65.1976 17.2888 65.1976 17.2888C65.2783 29.3453 60.2417 29.6466 60.2417 29.6466ZM66.4822 8.90499C66.4762 8.9082 66.4732 8.9082 66.4672 8.9114L66.4822 8.90499Z" fill="#DD3F61"/>
<path d="M40.6164 42.952C40.6164 42.952 38.3467 41.0402 29.7894 19.6526C29.7894 19.6526 31.5345 46.7756 40.6164 48.2554C49.6951 46.7788 51.4435 19.6526 51.4435 19.6526C42.8861 41.0402 40.6164 42.952 40.6164 42.952Z" fill="#DD3F61"/>
<path d="M72.3312 57.5414V64.6696H69.4949V57.5866H66.8755V64.9758H64.1267V57.5866H61.6368V64.8437H53.604C53.604 57.0191 47.6238 57.1932 47.6238 57.1932H37.4087V59.6725H38.8042C37.017 62.7159 38.8042 64.6277 38.8042 64.6277H31.2537V57.1932H26.7986C20.731 57.1932 20.9059 63.8023 20.9059 63.8023V67.2777H28.8092V70.6242H31.2958V67.2777H74.9084V57.5414H72.3312ZM28.8287 64.834H23.1658V62.5514C23.1658 62.4837 23.1982 59.5177 28.8287 59.5177V64.834ZM42.8093 64.9952C41.2455 64.9952 39.9763 63.7346 39.9763 62.1742C39.9763 60.6171 41.2455 59.3533 42.8093 59.3533C44.3764 59.3533 45.6423 60.6171 45.6423 62.1742C45.6423 63.7346 44.3764 64.9952 42.8093 64.9952ZM47.3616 64.834C49.424 62.387 47.1641 59.5209 47.1641 59.5209C51.1595 59.3887 51.4444 64.834 51.4444 64.834H47.3616Z" fill="black"/>
<path d="M19.1073 51.4639V67.2096H11.5439C11.5439 67.2096 5.68353 66.7518 5.32414 62.1706V59.3368H7.54848V62.1706C7.54848 62.1706 7.54848 64.8304 10.4301 64.8304C13.3117 64.8304 16.7178 64.8304 16.7178 64.8304V51.4639H19.1073Z" fill="black"/>
<path d="M22.1167 77.8196C21.8544 77.7003 21.6472 77.5423 21.495 77.3391C21.3428 77.136 21.2587 76.9135 21.2457 76.6684H22.2688C22.2883 76.8232 22.3627 76.949 22.4987 77.0522C22.6315 77.1521 22.7966 77.2037 22.9973 77.2037C23.1916 77.2037 23.3405 77.165 23.4506 77.0876C23.5607 77.0102 23.6125 76.9103 23.6125 76.791C23.6125 76.662 23.5445 76.562 23.4118 76.4975C23.279 76.4331 23.0653 76.3621 22.7772 76.2847C22.476 76.2138 22.23 76.1364 22.0389 76.059C21.8479 75.9816 21.6828 75.8623 21.5436 75.7043C21.4043 75.5463 21.3364 75.3303 21.3364 75.0594C21.3364 74.8369 21.4011 74.6338 21.5274 74.4532C21.6569 74.2694 21.8382 74.1243 22.0778 74.0211C22.3174 73.9147 22.5991 73.8631 22.9229 73.8631C23.402 73.8631 23.7841 73.9824 24.069 74.2211C24.3539 74.4597 24.5126 74.7821 24.5417 75.1852H23.5704C23.5575 75.0272 23.4895 74.8982 23.3697 74.8047C23.2499 74.7112 23.0912 74.6628 22.8937 74.6628C22.7092 74.6628 22.5699 74.695 22.4696 74.7628C22.3692 74.8305 22.3206 74.924 22.3206 75.0465C22.3206 75.182 22.3886 75.2851 22.5246 75.3528C22.6606 75.4238 22.8711 75.4947 23.156 75.5657C23.4474 75.6366 23.687 75.714 23.8748 75.7914C24.0625 75.8688 24.2277 75.9881 24.3637 76.1493C24.5029 76.3105 24.5741 76.5233 24.5773 76.7877C24.5773 77.0199 24.5126 77.2263 24.3863 77.4101C24.2568 77.5939 24.0755 77.7358 23.8359 77.8389C23.5963 77.9421 23.3179 77.9937 22.9973 77.9937C22.6735 77.9969 22.3789 77.9357 22.1167 77.8196Z" fill="#DD3F61"/>
<path d="M30.5824 76.2331H27.6425C27.6651 76.5233 27.7687 76.7491 27.9468 76.9135C28.1249 77.078 28.3451 77.1586 28.6073 77.1586C28.9861 77.1586 29.2549 76.9973 29.4135 76.6749H30.5111C30.3946 77.0618 30.1712 77.3778 29.8442 77.6261C29.5139 77.8744 29.1124 78.0002 28.6332 78.0002C28.2447 78.0002 27.8983 77.9131 27.5907 77.7422C27.2831 77.5713 27.0435 77.3295 26.8719 77.0167C26.7003 76.7039 26.6129 76.3428 26.6129 75.9333C26.6129 75.5173 26.6971 75.1562 26.8654 74.8402C27.0338 74.5274 27.2734 74.2855 27.5777 74.1179C27.8821 73.9502 28.235 73.8631 28.63 73.8631C29.012 73.8631 29.3552 73.9437 29.6564 74.1082C29.9575 74.2726 30.1938 74.5048 30.3622 74.8047C30.5306 75.1046 30.6115 75.4528 30.6115 75.843C30.6115 75.9848 30.6018 76.1171 30.5824 76.2331ZM29.5592 75.5528C29.5528 75.2916 29.4589 75.0852 29.2743 74.9272C29.0898 74.7692 28.8663 74.6918 28.6009 74.6918C28.3483 74.6918 28.1379 74.7692 27.9663 74.9208C27.7947 75.0723 27.6878 75.2819 27.649 75.5528H29.5592Z" fill="#DD3F61"/>
<path d="M35.8813 74.067C36.1177 74.1992 36.3022 74.3959 36.4382 74.6539C36.5742 74.9118 36.639 75.2214 36.639 75.5825V77.9332H35.6223V75.7212C35.6223 75.4019 35.5414 75.1569 35.3827 74.986C35.2241 74.8151 35.0039 74.728 34.7287 74.728C34.447 74.728 34.2268 74.8151 34.0649 74.986C33.9031 75.1569 33.8221 75.4019 33.8221 75.7212V77.9332H32.8055V72.5805H33.8221V74.4249C33.9516 74.2508 34.1265 74.1154 34.3434 74.0154C34.5603 73.9155 34.8032 73.8671 35.0686 73.8671C35.3762 73.8671 35.645 73.9348 35.8813 74.067Z" fill="#DD3F61"/>
<path d="M39.7964 77.739C39.4856 77.5681 39.2428 77.3262 39.0679 77.0135C38.8899 76.7007 38.8024 76.3395 38.8024 75.93C38.8024 75.5205 38.8931 75.1594 39.0744 74.8466C39.2557 74.5338 39.505 74.292 39.8191 74.1211C40.1332 73.9502 40.4861 73.8631 40.8714 73.8631C41.2599 73.8631 41.6096 73.9502 41.9236 74.1211C42.2377 74.292 42.487 74.5338 42.6683 74.8466C42.8496 75.1594 42.9403 75.5205 42.9403 75.93C42.9403 76.3395 42.8464 76.7007 42.6619 77.0135C42.4773 77.3262 42.2248 77.5681 41.9075 77.739C41.5902 77.9099 41.2372 77.9969 40.8422 77.9969C40.4537 77.9969 40.1073 77.9099 39.7964 77.739ZM41.3603 76.9812C41.5222 76.8909 41.6517 76.7587 41.7488 76.5782C41.8459 76.4008 41.8945 76.1848 41.8945 75.9268C41.8945 75.5463 41.7941 75.2529 41.5934 75.0497C41.3927 74.8466 41.1466 74.7434 40.8552 74.7434C40.5638 74.7434 40.321 74.8466 40.1267 75.0497C39.9292 75.2561 39.8321 75.5463 39.8321 75.9268C39.8321 76.3073 39.9259 76.6007 40.1202 76.8039C40.3112 77.007 40.5508 77.1102 40.8422 77.1102C41.0268 77.1134 41.1984 77.0683 41.3603 76.9812Z" fill="#DD3F61"/>
<path d="M45.8795 77.739C45.5687 77.5681 45.3258 77.3262 45.151 77.0135C44.9729 76.7007 44.8855 76.3395 44.8855 75.93C44.8855 75.5205 44.9762 75.1594 45.1575 74.8466C45.3388 74.5338 45.5881 74.292 45.9022 74.1211C46.2162 73.9502 46.5691 73.8631 46.9544 73.8631C47.343 73.8631 47.6926 73.9502 48.0067 74.1211C48.3208 74.292 48.5701 74.5338 48.7514 74.8466C48.9327 75.1594 49.0234 75.5205 49.0234 75.93C49.0234 76.3395 48.9295 76.7007 48.7449 77.0135C48.5604 77.3262 48.3078 77.5681 47.9905 77.739C47.6732 77.9099 47.3203 77.9969 46.9253 77.9969C46.5368 77.9969 46.1903 77.9099 45.8795 77.739ZM47.4433 76.9812C47.6052 76.8909 47.7347 76.7587 47.8319 76.5782C47.929 76.4008 47.9776 76.1848 47.9776 75.9268C47.9776 75.5463 47.8772 75.2529 47.6764 75.0497C47.4757 74.8466 47.2296 74.7434 46.9382 74.7434C46.6468 74.7434 46.404 74.8466 46.2097 75.0497C46.0122 75.2561 45.9151 75.5463 45.9151 75.9268C45.9151 76.3073 46.009 76.6007 46.2033 76.8039C46.3943 77.007 46.6339 77.1102 46.9253 77.1102C47.1098 77.1134 47.2814 77.0683 47.4433 76.9812Z" fill="#DD3F61"/>
<path d="M51.9625 77.739C51.6517 77.5681 51.4089 77.3262 51.234 77.0135C51.056 76.7007 50.9686 76.3395 50.9686 75.93C50.9686 75.5205 51.0592 75.1594 51.2405 74.8466C51.4218 74.5338 51.6711 74.292 51.9852 74.1211C52.2993 73.9502 52.6522 73.8631 53.0375 73.8631C53.426 73.8631 53.7757 73.9502 54.0898 74.1211C54.4038 74.292 54.6531 74.5338 54.8344 74.8466C55.0157 75.1594 55.1064 75.5205 55.1064 75.93C55.1064 76.3395 55.0125 76.7007 54.828 77.0135C54.6434 77.3262 54.3909 77.5681 54.0736 77.739C53.7563 77.9099 53.4033 77.9969 53.0083 77.9969C52.6198 77.9969 52.2734 77.9099 51.9625 77.739ZM53.5264 76.9812C53.6883 76.8909 53.8178 76.7587 53.9149 76.5782C54.012 76.4008 54.0606 76.1848 54.0606 75.9268C54.0606 75.5463 53.9602 75.2529 53.7595 75.0497C53.5588 74.8466 53.3127 74.7434 53.0213 74.7434C52.7299 74.7434 52.4871 74.8466 52.2928 75.0497C52.0953 75.2561 51.9982 75.5463 51.9982 75.9268C51.9982 76.3073 52.0921 76.6007 52.2863 76.8039C52.4773 77.007 52.7169 77.1102 53.0083 77.1102C53.1929 77.1134 53.3645 77.0683 53.5264 76.9812Z" fill="#DD3F61"/>
<path d="M58.3225 72.5805V77.9332H57.3059V72.5805H58.3225Z" fill="#DD3F61"/>
</svg>
