<svg width="26" height="26" viewBox="0 0 26 26" fill="none" xmlns="http://www.w3.org/2000/svg">
<path d="M5.11864 12.8988L0.562547 11.0004L0.249734 11.75L3.24989 13V16.6562C3.24989 16.764 3.29269 16.8673 3.36888 16.9435C3.44507 17.0197 3.5484 17.0625 3.65614 17.0625H5.70973C5.92149 17.3994 6.16986 17.7118 6.45033 17.994C6.55415 18.098 6.68007 18.1773 6.81874 18.226C6.9574 18.2747 7.10526 18.2915 7.25131 18.2752C7.39736 18.2588 7.53786 18.2098 7.66237 18.1318C7.78689 18.0537 7.89221 17.9486 7.97052 17.8242L8.04892 17.9229C8.15772 18.0595 8.30199 18.1634 8.46593 18.2235C8.62988 18.2835 8.80717 18.2972 8.97841 18.2632C9.14964 18.2292 9.30822 18.1487 9.43677 18.0306C9.56532 17.9124 9.65889 17.7612 9.70723 17.5935C9.81357 17.6986 9.94265 17.7778 10.0845 17.8251C10.2264 17.8723 10.3772 17.8863 10.5253 17.866C10.6734 17.8456 10.8149 17.7915 10.9387 17.7078C11.0626 17.624 11.1655 17.5129 11.2396 17.383C11.4422 17.4753 11.6706 17.4938 11.8854 17.4352C12.1001 17.3767 12.2876 17.2448 12.4153 17.0625H18.2811C18.3889 17.0625 18.4922 17.0197 18.5684 16.9435C18.6446 16.8673 18.6874 16.764 18.6874 16.6562V3.65625C18.6874 3.54851 18.6446 3.44517 18.5684 3.36899C18.4922 3.2928 18.3889 3.25 18.2811 3.25H3.65614C3.5484 3.25 3.44507 3.2928 3.36888 3.36899C3.29269 3.44517 3.24989 3.54851 3.24989 3.65625V7.04397L0.626734 5.34666L0.185547 6.02875L6.75583 10.2802L5.11864 12.8988ZM4.06239 16.25V13.3388L4.87489 13.6772V14.1899C4.87348 14.8966 5.01154 15.5967 5.28114 16.25H4.06239ZM11.5211 16.6034L9.65605 14.365L9.03123 14.8854L10.0416 16.0972L10.501 16.7099C10.5407 16.7632 10.5622 16.8279 10.5624 16.8943C10.5598 16.9264 10.5484 16.9571 10.5295 16.983C10.5106 17.009 10.4848 17.0293 10.4552 17.0416C10.4255 17.0539 10.3929 17.0578 10.3612 17.0528C10.3294 17.0478 10.2997 17.0342 10.2752 17.0133L8.41211 15.1503L7.83767 15.7251L8.60345 16.4909L8.86223 17.0081C8.91165 17.1068 8.93738 17.2157 8.93739 17.3262C8.93465 17.3543 8.92395 17.381 8.90654 17.4032C8.88913 17.4254 8.86574 17.4422 8.83911 17.4516C8.81249 17.461 8.78374 17.4626 8.75624 17.4562C8.72875 17.4498 8.70365 17.4357 8.68389 17.4155L7.22139 15.5903L6.58683 16.0977L7.26852 16.9508C7.29537 17.0659 7.309 17.1836 7.30914 17.3018C7.30655 17.3338 7.29516 17.3645 7.27624 17.3905C7.25732 17.4165 7.2316 17.4368 7.2019 17.4491C7.17221 17.4614 7.13969 17.4652 7.10794 17.4603C7.07618 17.4553 7.04642 17.4416 7.02192 17.4208C6.59697 16.9972 6.26022 16.4936 6.03115 15.939C5.80209 15.3844 5.68525 14.7899 5.68739 14.1899V13.5224L7.4948 10.6303L8.79886 10.7754C9.95901 10.904 11.1254 10.9685 12.2926 10.9688C12.3645 10.9685 12.4341 10.9939 12.4889 11.0404C12.5437 11.087 12.5801 11.1515 12.5916 11.2225C12.6031 11.2934 12.5888 11.3662 12.5514 11.4276C12.514 11.489 12.456 11.535 12.3877 11.5574C11.9432 11.7057 11.4778 11.7813 11.0093 11.7812H10.1561C10.0868 11.7812 10.0187 11.7989 9.9581 11.8326C9.89754 11.8663 9.84662 11.9149 9.81018 11.9739C9.77374 12.0329 9.75299 12.1002 9.7499 12.1694C9.74681 12.2387 9.76149 12.3075 9.79255 12.3695L11.708 16.1996C11.756 16.2958 11.781 16.4017 11.7811 16.5092C11.7785 16.5381 11.7677 16.5656 11.75 16.5886C11.7323 16.6116 11.7084 16.629 11.6811 16.6389C11.6538 16.6488 11.6243 16.6507 11.596 16.6444C11.5676 16.6381 11.5417 16.6239 11.5211 16.6034ZM9.74989 4.0625H12.1874V7.3125H9.74989V4.0625ZM4.06239 7.56966V4.0625H8.93739V7.71875C8.93739 7.82649 8.98019 7.92983 9.05638 8.00601C9.13256 8.0822 9.2359 8.125 9.34364 8.125H12.5936C12.7014 8.125 12.8047 8.0822 12.8809 8.00601C12.9571 7.92983 12.9999 7.82649 12.9999 7.71875V4.0625H17.8749V16.25H12.5632C12.5408 16.1066 12.4975 15.9673 12.4348 15.8364L12.2353 15.4375H17.0624V14.625H11.8291L10.8135 12.5938H11.0093C11.5656 12.5938 12.1182 12.5042 12.646 12.3285C12.8972 12.2447 13.1104 12.0742 13.2474 11.8476C13.3843 11.6209 13.4361 11.3529 13.3935 11.0916C13.3509 10.8302 13.2166 10.5926 13.0148 10.4212C12.8129 10.2498 12.5566 10.1559 12.2918 10.1562C11.1548 10.1559 10.0187 10.0931 8.88864 9.96816L7.53542 9.81784L7.53298 9.81541L4.06239 7.56966ZM17.5881 17.912L15.5337 18.2053C15.2827 18.2424 15.0533 18.3678 14.8867 18.5591C14.72 18.7504 14.6272 18.9949 14.6249 19.2485L12.1346 18.7505C11.5189 18.6205 10.8776 18.6973 10.3101 18.969C10.1304 19.0584 9.98138 19.1992 9.88181 19.3734C9.78225 19.5477 9.73667 19.7476 9.75085 19.9477C9.76504 20.1479 9.83835 20.3394 9.9615 20.4978C10.0846 20.6563 10.2521 20.7746 10.4425 20.8378L15.6832 22.5847C16.2702 22.7803 16.9008 22.8046 17.5011 22.6545L19.9273 22.048C19.9487 22.1278 19.9942 22.1992 20.0576 22.2522C20.1209 22.3053 20.1991 22.3375 20.2815 22.3446L25.5628 22.7508L25.6249 21.9375L20.7186 21.5613V19.0938H25.5936V18.2812H20.3124C20.2562 18.2816 20.2007 18.2938 20.1494 18.3169C20.0982 18.3401 20.0524 18.3737 20.015 18.4157C19.2889 17.9715 18.431 17.7934 17.5881 17.912ZM17.3037 21.8648C16.8533 21.977 16.3803 21.9589 15.9399 21.8124L10.6993 20.0655C10.6617 20.0529 10.6287 20.0294 10.6045 19.9981C10.5802 19.9667 10.5658 19.9289 10.563 19.8893C10.5602 19.8498 10.5692 19.8103 10.5888 19.7759C10.6085 19.7414 10.6379 19.7136 10.6733 19.6958C11.0792 19.5044 11.5368 19.4522 11.9753 19.5471L15.205 20.1931C15.3527 20.2705 15.5168 20.3114 15.6836 20.3125H17.0624V19.5H15.6836C15.6216 19.4993 15.5622 19.4754 15.5172 19.4329C15.4721 19.3904 15.4447 19.3325 15.4403 19.2707C15.436 19.209 15.455 19.1478 15.4937 19.0994C15.5324 19.0511 15.5878 19.019 15.649 19.0097L17.703 18.7163C18.398 18.619 19.1046 18.7792 19.6896 19.1669L19.9061 19.3115V21.2144L17.3037 21.8648Z" fill="#151515"/>
<path d="M13.8125 13H17.0625V13.8125H13.8125V13Z" fill="#151515"/>
</svg>
