<svg width="116" height="26" viewBox="0 0 116 26" fill="none" xmlns="http://www.w3.org/2000/svg">
<rect x="-0.5" y="0.5" width="115" height="25" rx="12.5" transform="matrix(-1 0 0 1 115 0)" stroke="white"/>
<path d="M39.6464 13.3536C39.4512 13.1583 39.4512 12.8417 39.6464 12.6464L42.8284 9.46447C43.0237 9.26921 43.3403 9.26921 43.5355 9.46447C43.7308 9.65973 43.7308 9.97631 43.5355 10.1716L40.7071 13L43.5355 15.8284C43.7308 16.0237 43.7308 16.3403 43.5355 16.5355C43.3403 16.7308 43.0237 16.7308 42.8284 16.5355L39.6464 13.3536ZM76 13.5L40 13.5L40 12.5L76 12.5L76 13.5Z" fill="white"/>
</svg>
