<svg width="40" height="40" viewBox="0 0 40 40" fill="none" xmlns="http://www.w3.org/2000/svg">
<g clip-path="url(#clip0_37_26864)">
<path d="M0.693359 30.4936C1.34507 31.6635 2.40378 32.5531 3.66836 32.9936C3.74961 32.2999 4.08086 30.8436 5.38711 30.2561C7.36958 29.1616 9.04906 27.5917 10.2746 25.6874C11.4309 23.8124 12.9434 23.6686 13.5246 23.6874C13.8422 23.7083 14.1611 23.6766 14.4684 23.5936C14.8301 23.4996 15.1454 23.2775 15.3559 22.9686L11.7871 19.3749L0.693359 30.4936ZM25.5496 17.4999C26.2246 13.9561 29.3496 12.3186 31.1746 11.6561C32.3506 11.2238 33.427 10.5579 34.3389 9.6986C35.2508 8.83932 35.9794 7.8044 36.4809 6.65615L30.2684 0.468648C30.1606 0.363234 30.0323 0.281099 29.8914 0.227342C29.7506 0.173584 29.6002 0.149351 29.4496 0.156148C29.3 0.165429 29.154 0.206456 29.0215 0.276502C28.8889 0.346547 28.7728 0.444005 28.6809 0.562398C23.6115 7.05177 18.1183 13.1985 12.2371 18.9624L15.9871 22.6811L18.2996 24.9936C19.0503 24.0488 20.1357 23.4289 21.3309 23.2624C23.3496 23.0249 24.8934 20.9061 25.5496 17.4999ZM29.5309 2.2624C29.7091 2.2624 29.8834 2.31535 30.0315 2.41452C30.1797 2.51369 30.295 2.65462 30.3629 2.81944C30.4309 2.98426 30.4483 3.16554 30.4131 3.34029C30.3778 3.51504 30.2915 3.67539 30.165 3.80101C30.0385 3.92662 29.8776 4.01184 29.7026 4.04586C29.5276 4.07988 29.3464 4.06116 29.1821 3.99208C29.0177 3.923 28.8776 3.80668 28.7795 3.65785C28.6814 3.50903 28.6296 3.33441 28.6309 3.15615C28.6309 3.03825 28.6542 2.92152 28.6995 2.81267C28.7448 2.70383 28.8112 2.60503 28.8948 2.52195C28.9785 2.43888 29.0778 2.37317 29.1869 2.32863C29.2961 2.28408 29.413 2.26157 29.5309 2.2624Z" fill="white"/>
<path d="M39.5562 9.38125L37.1688 7C36.0598 9.35975 34.0658 11.1876 31.6187 12.0875C29.5687 12.8375 27 14.3812 26.4125 17.4625C25.7 21.2125 23.9688 23.4875 21.65 23.775C20.599 23.9324 19.6495 24.49 19 25.3312L20.675 27.0063C27.7063 22.6313 38.0187 11.125 39.5562 9.38125ZM21.9813 26.8875V28.2813C21.9636 28.4601 21.9835 28.6408 22.0399 28.8115C22.0962 28.9822 22.1877 29.1392 22.3084 29.2724C22.429 29.4056 22.5763 29.5121 22.7406 29.5849C22.905 29.6578 23.0827 29.6955 23.2625 29.6955C23.4423 29.6955 23.62 29.6578 23.7844 29.5849C23.9487 29.5121 24.096 29.4056 24.2166 29.2724C24.3373 29.1392 24.4288 28.9822 24.4851 28.8115C24.5415 28.6408 24.5614 28.4601 24.5437 28.2813V27.5625C24.5159 27.4237 24.5191 27.2805 24.5533 27.1431C24.5875 27.0057 24.6518 26.8777 24.7415 26.7682C24.8311 26.6587 24.944 26.5704 25.072 26.5098C25.1999 26.4492 25.3397 26.4178 25.4812 26.4178C25.6228 26.4178 25.7626 26.4492 25.8905 26.5098C26.0185 26.5704 26.1314 26.6587 26.221 26.7682C26.3107 26.8777 26.375 27.0057 26.4092 27.1431C26.4434 27.2805 26.4466 27.4237 26.4187 27.5625V29.8062C26.4005 29.9978 26.4224 30.1911 26.4832 30.3737C26.544 30.5563 26.6422 30.7242 26.7717 30.8666C26.9012 31.009 27.059 31.1228 27.235 31.2007C27.411 31.2785 27.6013 31.3188 27.7937 31.3188C27.9862 31.3188 28.1765 31.2785 28.3525 31.2007C28.5285 31.1228 28.6863 31.009 28.8158 30.8666C28.9453 30.7242 29.0435 30.5563 29.1043 30.3737C29.1651 30.1911 29.187 29.9978 29.1688 29.8062V24.6313C29.1528 24.4863 29.1675 24.3396 29.2121 24.2007C29.2566 24.0618 29.3299 23.9339 29.4272 23.8253C29.5245 23.7167 29.6436 23.6298 29.7768 23.5703C29.91 23.5108 30.0542 23.48 30.2 23.48C30.3458 23.48 30.49 23.5108 30.6232 23.5703C30.7564 23.6298 30.8755 23.7167 30.9728 23.8253C31.0701 23.9339 31.1434 24.0618 31.1879 24.2007C31.2325 24.3396 31.2472 24.4863 31.2312 24.6313V26.2312C31.2193 26.3965 31.2416 26.5625 31.2967 26.7188C31.3517 26.8751 31.4384 27.0184 31.5513 27.1397C31.6642 27.261 31.8008 27.3578 31.9528 27.424C32.1047 27.4901 32.2687 27.5243 32.4344 27.5243C32.6001 27.5243 32.764 27.4901 32.916 27.424C33.0679 27.3578 33.2046 27.261 33.3175 27.1397C33.4304 27.0184 33.517 26.8751 33.5721 26.7188C33.6272 26.5625 33.6494 26.3965 33.6375 26.2312V16.6C30.1062 20.2125 25.7188 24.3438 21.9813 26.8875ZM30.4687 32.3188C30.4575 32.4656 30.4767 32.6131 30.5252 32.7521C30.5736 32.8912 30.6503 33.0187 30.7503 33.1267C30.8504 33.2347 30.9717 33.3209 31.1066 33.3798C31.2415 33.4387 31.3871 33.4692 31.5344 33.4692C31.6816 33.4692 31.8273 33.4387 31.9622 33.3798C32.0971 33.3209 32.2184 33.2347 32.3184 33.1267C32.4185 33.0187 32.4951 32.8912 32.5436 32.7521C32.592 32.6131 32.6112 32.4656 32.6 32.3188C32.6 31.725 31.5312 30.0625 31.5312 30.0625C31.5312 30.0625 30.4687 31.75 30.4687 32.3188ZM24.7437 34.7375C24.7437 35.0209 24.8564 35.2928 25.0568 35.4932C25.2572 35.6936 25.5291 35.8063 25.8125 35.8063C26.096 35.8063 26.3678 35.6936 26.5682 35.4932C26.7687 35.2928 26.8813 35.0209 26.8813 34.7375C26.8813 34.15 25.8125 32.4812 25.8125 32.4812C25.8125 32.4812 24.7437 34.15 24.7437 34.7375ZM28.3313 38.625C28.3313 38.9084 28.4438 39.1803 28.6443 39.3807C28.8447 39.5812 29.1165 39.6937 29.4 39.6937C29.6834 39.6937 29.9553 39.5812 30.1557 39.3807C30.3561 39.1803 30.4687 38.9084 30.4687 38.625C30.4687 38.0375 29.4 36.3687 29.4 36.3687C29.4 36.3687 28.3313 38.0625 28.3313 38.625Z" fill="white"/>
</g>
<defs>
<clipPath id="clip0_37_26864">
<rect width="40" height="40" fill="white"/>
</clipPath>
</defs>
</svg>
