<svg width="19" height="22" viewBox="0 0 19 22" fill="none" xmlns="http://www.w3.org/2000/svg">
<path d="M9.49667 13.0857C7.33933 13.0857 5.57701 11.3335 5.57701 9.16607C5.57701 6.99861 7.33933 5.25654 9.49667 5.25654C11.654 5.25654 13.4163 7.00874 13.4163 9.1762C13.4163 11.3437 11.654 13.0857 9.49667 13.0857ZM9.49667 6.77579C8.17998 6.77579 7.09625 7.84939 7.09625 9.1762C7.09625 10.503 8.16986 11.5766 9.49667 11.5766C10.8235 11.5766 11.8971 10.503 11.8971 9.1762C11.8971 7.84939 10.8133 6.77579 9.49667 6.77579Z" fill="#BDC1DF"/>
<path d="M9.49696 21.786C7.99797 21.786 6.48885 21.2188 5.31397 20.0946C2.32611 17.2181 -0.975721 12.63 0.270063 7.17085C1.39431 2.2181 5.7191 0 9.49696 0C9.49696 0 9.49696 0 9.50709 0C13.285 0 17.6097 2.2181 18.734 7.18098C19.9696 12.6401 16.6678 17.2181 13.68 20.0946C12.5051 21.2188 10.996 21.786 9.49696 21.786ZM9.49696 1.51925C6.54962 1.51925 2.76163 3.08914 1.75893 7.50509C0.665067 12.2755 3.66305 16.3876 6.37744 18.9906C8.12964 20.682 10.8744 20.682 12.6266 18.9906C15.3309 16.3876 18.3289 12.2755 17.2553 7.50509C16.2424 3.08914 12.4443 1.51925 9.49696 1.51925Z" fill="#BDC1DF"/>
</svg>
