<svg width="62" height="21" viewBox="0 0 62 21" fill="none" xmlns="http://www.w3.org/2000/svg">
<path d="M26.2273 11.922H0V20.6593H26.2273V11.922Z" fill="#84B740"/>
<path d="M26.2273 0H0V8.74502H26.2273V0Z" fill="#259BD6"/>
<path d="M52.4538 18.8843L52.337 18.9077C51.932 18.9856 51.7841 19.0167 51.4881 19.0167C50.8028 19.0167 49.9929 18.6663 49.9929 17.0154C49.9929 16.1666 50.133 15.0375 51.4101 15.0375H51.418C51.636 15.053 51.8852 15.0764 52.3524 15.2166L52.4537 15.2477L52.4538 18.8843ZM52.6641 10.6532L52.4538 10.6922V13.7448L52.267 13.6902L52.2124 13.6746C52.0022 13.6124 51.5194 13.4722 51.0522 13.4722C48.498 13.4722 47.9606 15.4035 47.9606 17.0232C47.9606 19.2426 49.2066 20.5197 51.3793 20.5197C52.2981 20.5197 52.9756 20.4262 53.6609 20.2004C54.2917 19.998 54.5175 19.7098 54.5175 19.0946V10.334C53.91 10.443 53.2793 10.552 52.6641 10.6532Z" fill="#27292D"/>
<path d="M60.0476 18.9386L59.9386 18.9698L59.5492 19.071C59.1833 19.1645 58.8562 19.219 58.6069 19.219C58.0073 19.219 57.6491 18.9231 57.6491 18.417C57.6491 18.0899 57.797 17.537 58.7782 17.537H60.0474V18.9386H60.0476ZM59.152 13.433C58.3655 13.433 57.5556 13.5731 56.5511 13.8847L55.8969 14.0793L56.115 15.5588L56.7536 15.3486C57.4234 15.1305 58.2565 14.9904 58.8796 14.9904C59.16 14.9904 60.0166 14.9904 60.0166 15.9171V16.322H58.8252C56.6525 16.322 55.6479 17.0151 55.6479 18.5024C55.6479 19.7717 56.5746 20.5348 58.132 20.5348C58.6148 20.5348 59.2845 20.4414 59.8607 20.3012L59.8919 20.2933L59.923 20.3012L60.1177 20.3323C60.725 20.4413 61.3558 20.5504 61.971 20.6671V15.8078C61.971 14.235 61.021 13.433 59.152 13.433Z" fill="#27292D"/>
<path d="M44.914 18.9386L44.805 18.9698L44.4156 19.071C44.0496 19.1645 43.7303 19.219 43.4733 19.219C42.8737 19.219 42.5154 18.9231 42.5154 18.417C42.5154 18.0899 42.6634 17.537 43.6369 17.537H44.9061V18.9386H44.914ZM44.0262 13.433C43.2319 13.433 42.4299 13.5731 41.4253 13.8847L40.7711 14.0793L40.9891 15.5588L41.6277 15.3486C42.2975 15.1305 43.1306 14.9904 43.7537 14.9904C44.0341 14.9904 44.8907 14.9904 44.8907 15.9171V16.322H43.6993C41.5266 16.322 40.5143 17.0151 40.5143 18.5024C40.5143 19.7717 41.441 20.5348 43.0062 20.5348C43.489 20.5348 44.1588 20.4414 44.735 20.3012L44.7661 20.2933L44.7973 20.3012L44.9841 20.3323C45.5993 20.4413 46.2222 20.5504 46.8374 20.675V15.8157C46.8452 14.2273 45.8952 13.433 44.0262 13.433Z" fill="#27292D"/>
<path d="M36.7183 13.4488C35.7293 13.4488 34.9117 13.7759 34.6081 13.916L34.5302 13.955L34.4601 13.9004C34.0396 13.5967 33.4244 13.4409 32.5678 13.4409C31.8125 13.4409 31.1038 13.5499 30.3328 13.7757C29.6709 13.9781 29.414 14.2975 29.414 14.8971V20.4495H31.4854V15.3176L31.5866 15.2865C32.0071 15.1464 32.2564 15.1229 32.4978 15.1229C33.0974 15.1229 33.4011 15.4422 33.4011 16.0652V20.4572H35.4414V15.9795C35.4414 15.7147 35.3868 15.559 35.3791 15.5279L35.309 15.3955L35.4491 15.3332C35.7606 15.1931 36.1033 15.1229 36.4614 15.1229C36.874 15.1229 37.3647 15.2865 37.3647 16.0652V20.4572H39.3971V15.8628C39.3971 14.2352 38.5249 13.4488 36.7183 13.4488Z" fill="#27292D"/>
<path d="M58.52 5.70017C58.2163 5.70017 57.7101 5.66903 57.313 5.59119L57.1962 5.56777V2.56963C57.1962 2.32038 57.1495 2.16469 57.1416 2.14127L57.0793 2.01671L57.2117 1.96215C57.2429 1.94658 57.274 1.93873 57.313 1.92316L57.3364 1.90759C57.3831 1.89202 57.4298 1.87645 57.4766 1.86088C57.5 1.85303 57.5155 1.84531 57.5311 1.84531C57.9906 1.72076 58.4111 1.73633 58.598 1.72076H58.6058C59.8751 1.72076 60.023 2.84988 60.023 3.69875C60.0152 5.34979 59.1975 5.70017 58.52 5.70017ZM58.5123 0C58.4967 0 58.4733 0 58.4577 0C57.2663 0 56.0436 0.327094 55.6075 0.965575C55.3739 1.2771 55.2416 1.66647 55.2337 2.12584V5.21739C55.2337 5.4822 55.1792 5.58333 55.1715 5.60676L55.1013 5.73917H51.3402V3.58991H51.3323C51.2856 1.32381 49.9462 0.0778471 48.0072 0.0778471H47.7814H46.1149C46.0371 0.630766 45.9748 1.02014 45.897 1.57306H47.7814C48.7704 1.57306 49.2922 2.41408 49.2922 3.70675V5.87157L49.1598 5.80144C49.1363 5.79359 48.9729 5.73917 48.7158 5.73917H45.4607C45.3985 6.15182 45.3206 6.68917 45.2349 7.22652H55.2415C55.5841 7.15639 55.9812 7.09411 56.3239 7.03969C56.8301 7.28894 57.7722 7.42121 58.4186 7.42121C60.5913 7.42121 62.0008 5.96499 62.0008 3.72232C61.993 1.50293 60.6304 0.046708 58.5123 0Z" fill="#27292D"/>
<path d="M40.9704 8.13789H41.0638C43.2365 8.13789 44.2488 7.42143 44.2488 5.65382C44.2488 4.38444 43.3221 3.37216 41.7647 3.37216H39.7634C39.1638 3.37216 38.8056 3.02949 38.8056 2.45329C38.8056 2.06392 38.9536 1.58113 39.9347 1.58113H44.3111C44.4045 1.01264 44.4512 0.654407 44.5369 0.0859191H39.9891C37.871 0.0859191 36.8042 0.973649 36.8042 2.45329C36.8042 3.91722 37.7309 4.68039 39.2882 4.68039H41.2895C41.8891 4.68039 42.2474 5.15547 42.2474 5.65382C42.2474 5.98092 42.0994 6.65839 41.126 6.65839H40.7912L34.3822 6.64282H33.2141C32.2251 6.64282 31.5321 6.08219 31.5321 4.78166V3.88608C31.5321 2.53113 32.0694 1.69011 33.2141 1.69011H35.1141C35.1998 1.11391 35.2543 0.747824 35.3322 0.202759H32.9649H32.739C30.8 0.202759 29.4607 1.50328 29.414 3.76924V3.85494V4.78166C29.4607 7.04776 30.8 8.13018 32.739 8.13018H32.9649H34.6313L38.1044 8.13803H40.1758L40.9704 8.13789Z" fill="#27292D"/>
</svg>
