<svg width="25" height="24" viewBox="0 0 25 24" fill="none" xmlns="http://www.w3.org/2000/svg">
<path d="M20.1912 14.0598L19.0612 12.1798C18.8112 11.7698 18.5912 10.9798 18.5912 10.4998V8.6298C18.5912 4.9998 15.6412 2.0498 12.0212 2.0498C8.39118 2.0598 5.44118 4.9998 5.44118 8.6298V10.4898C5.44118 10.9698 5.22118 11.7598 4.98118 12.1698L3.85118 14.0498C3.42118 14.7798 3.32118 15.6098 3.59118 16.3298C3.86118 17.0598 4.47118 17.6398 5.27118 17.8998C6.35118 18.2598 7.44118 18.5198 8.55118 18.7098C8.66118 18.7298 8.77118 18.7398 8.88118 18.7598C9.02118 18.7798 9.17118 18.7998 9.32118 18.8198C9.58118 18.8598 9.84118 18.8898 10.1112 18.9098C10.7412 18.9698 11.3812 18.9998 12.0212 18.9998C12.6512 18.9998 13.2812 18.9698 13.9012 18.9098C14.1312 18.8898 14.3612 18.8698 14.5812 18.8398C14.7612 18.8198 14.9412 18.7998 15.1212 18.7698C15.2312 18.7598 15.3412 18.7398 15.4512 18.7198C16.5712 18.5398 17.6812 18.2598 18.7612 17.8998C19.5312 17.6398 20.1212 17.0598 20.4012 16.3198C20.6812 15.5698 20.6012 14.7498 20.1912 14.0598ZM12.7512 9.9998C12.7512 10.4198 12.4112 10.7598 11.9912 10.7598C11.5712 10.7598 11.2312 10.4198 11.2312 9.9998V6.89981C11.2312 6.4798 11.5712 6.1398 11.9912 6.1398C12.4112 6.1398 12.7512 6.4798 12.7512 6.89981V9.9998Z" fill="#2F4858"/>
<path d="M10.0952 20.6143C10.1457 20.6193 10.1963 20.6239 10.2471 20.6282C10.8286 20.6792 11.423 20.71 12.0197 20.71C12.607 20.71 13.1921 20.6791 13.7642 20.628L13.7642 20.628L13.7671 20.6277C13.8101 20.6237 13.8577 20.6197 13.9083 20.6156C13.4471 21.1572 12.7618 21.5 11.9997 21.5C11.3408 21.5 10.6921 21.2319 10.2395 20.7628L10.2308 20.7538L10.2217 20.7452C10.1779 20.7042 10.1357 20.6604 10.0952 20.6143Z" stroke="#2F4858"/>
</svg>
