<svg width="39" height="44" viewBox="0 0 39 44" fill="none" xmlns="http://www.w3.org/2000/svg">
<path d="M7.95012 5.42868C6.62733 4.50955 4.75559 3.9806 2.15352 4.64438C1.43919 4.82658 0.955019 5.49597 1.00825 6.23123C1.12165 7.79707 1.68977 10.4971 4.12495 12.1564M31.2429 5.29988C32.5529 4.46176 34.3685 4.01224 36.8464 4.64438C37.5607 4.82658 38.045 5.49597 37.9917 6.23123C37.8765 7.82076 37.2928 10.579 34.7632 12.231M12.2767 4.97807C11.9171 3.05971 11.2672 1.00426 10.1337 1.00426C8.50443 1.00426 7.85655 4.54562 7.96092 7.35466M26.7243 5.03917C27.0816 3.10365 27.7332 1.00426 28.8787 1.00426C30.5525 1.00426 31.1905 4.74163 31.0412 7.58306" stroke="white" stroke-width="2" stroke-miterlimit="10" stroke-linecap="round" stroke-linejoin="round"/>
<path d="M33.9695 24.9647C35.1195 20.4647 35.8371 15.8754 34.9991 13.1639C32.9311 6.47362 25.3892 4.05552 19.5 4.05552C13.6107 4.05552 6.06885 6.47362 4.00084 13.164C2.59277 17.7195 5.57614 27.5764 7.62356 33.4031M31.2429 33.781C31.834 32.1155 32.5168 30.0815 33.1544 27.9185M13.1742 21.0675V22.5374M25.8258 21.0675V22.5374" stroke="white" stroke-width="2" stroke-miterlimit="10" stroke-linecap="round" stroke-linejoin="round"/>
<path d="M31.9889 8.68694C30.4996 9.63578 29.3539 11.1358 28.9065 12.8477C28.2547 15.3425 29.1163 18.1708 31.0483 19.8785C32.0913 20.8005 33.3587 21.3759 34.694 21.8016M10.8307 18.5087C11.4803 18.329 12.1066 18.1004 12.6664 17.7259C13.7531 16.9989 14.4666 15.7422 14.5339 14.4365C14.5633 13.867 14.4774 13.2924 14.5545 12.7273C14.7246 11.4823 15.6622 10.4695 16.7074 9.77212C17.4971 9.24526 18.3923 8.8288 18.9872 8.08911C19.6914 7.21341 19.8592 6.0011 19.6888 4.8903C19.6605 4.70771 19.6247 4.52638 19.5812 4.34679M4.50591 21.689C5.396 20.7015 6.49608 19.9029 7.71936 19.3872" stroke="white" stroke-width="2" stroke-miterlimit="10" stroke-linecap="round" stroke-linejoin="round"/>
<path d="M19.5 42.6006C26.0592 42.6006 31.3765 39.1758 31.3765 34.9512C31.3765 30.7265 26.0592 27.3017 19.5 27.3017C12.9409 27.3017 7.62362 30.7265 7.62362 34.9512C7.62362 39.1758 12.9409 42.6006 19.5 42.6006Z" stroke="white" stroke-width="2" stroke-miterlimit="10" stroke-linecap="round" stroke-linejoin="round"/>
<path d="M14.8298 37.1086C15.6739 37.1086 16.3583 36.1427 16.3583 34.9511C16.3583 33.7595 15.6739 32.7935 14.8298 32.7935C13.9856 32.7935 13.3012 33.7595 13.3012 34.9511C13.3012 36.1427 13.9856 37.1086 14.8298 37.1086Z" stroke="white" stroke-width="2" stroke-miterlimit="10" stroke-linecap="round" stroke-linejoin="round"/>
<path d="M24.1701 37.1086C25.0143 37.1086 25.6986 36.1427 25.6986 34.9511C25.6986 33.7595 25.0143 32.7935 24.1701 32.7935C23.3259 32.7935 22.6416 33.7595 22.6416 34.9511C22.6416 36.1427 23.3259 37.1086 24.1701 37.1086Z" stroke="white" stroke-width="2" stroke-miterlimit="10" stroke-linecap="round" stroke-linejoin="round"/>
</svg>
