<svg width="98" height="94" viewBox="0 0 98 94" fill="none" xmlns="http://www.w3.org/2000/svg">
<path d="M90.5867 10.8336C89.6293 10.4783 88.6395 10.2042 87.6353 10.0304C85.5621 9.67514 83.4313 9.76395 81.3941 10.3123C80.9586 10.432 80.5303 10.5671 80.1055 10.7254C80.1055 10.7177 79.2777 0.319041 70.0131 0.0062702C60.7449 -0.306501 49.8714 11.1463 49.0004 19.9464C48.1258 11.1463 37.2559 -0.306501 27.9877 0.0062702C18.7195 0.31518 17.8917 10.7177 17.8917 10.7254C17.467 10.5671 17.0386 10.432 16.6031 10.3123C14.5659 9.76395 12.4351 9.67514 10.362 10.0304C9.35775 10.2042 8.36794 10.4783 7.41053 10.8336C7.41053 10.8336 -4.67592 14.2702 2.02238 34.8899C2.02238 34.8899 2.74943 8.80634 17.3086 18.7996C17.341 18.8227 17.2582 19.3093 17.2546 19.3479C17.2078 19.8537 17.1718 20.3557 17.143 20.8615C17.0998 21.6145 17.0746 22.3675 17.0674 23.1204C17.0566 24.0472 17.0746 24.9778 17.1178 25.9045C17.1682 26.9393 17.2546 27.9703 17.3878 28.9974C17.521 30.067 17.7081 31.1328 17.9601 32.1792C18.2084 33.2218 18.5216 34.2489 18.9283 35.2374C19.317 36.1912 19.7957 37.1102 20.3788 37.9442C20.9511 38.7628 21.6313 39.4965 22.4088 40.0912C23.0783 40.6009 23.8305 40.9831 24.6044 41.2766C25.3782 41.5662 26.0333 41.8249 26.9727 41.6241C27.6206 41.4851 28.1713 41.0565 28.6752 40.6086C29.1935 40.1452 29.665 39.651 30.0537 39.0563C30.6116 38.2107 30.9967 37.2453 31.2307 36.2414C31.5546 34.8667 31.6014 33.4303 31.4934 32.0209C31.3387 30.013 30.8743 28.0398 30.2733 26.1362C29.3806 23.2981 28.3188 20.4638 26.7819 17.9501C25.4286 15.7375 23.5678 13.9767 21.4802 12.5789C21.2426 12.4206 21.0015 12.2661 20.7567 12.1194L20.7315 12.1078C20.7243 12.1039 20.7207 12.1001 20.7135 12.0962L20.7603 12.1194C21.149 8.03792 24.7339 6.40842 24.7339 6.40842C29.9745 4.79437 36.0429 9.81415 36.0429 9.81415C43.0796 14.4671 49.0004 26.14 49.0004 26.14C49.0004 26.14 54.9213 14.4671 61.9579 9.81415C61.9579 9.81415 68.0227 4.79437 73.2669 6.40842C73.2669 6.40842 76.8518 8.03792 77.2441 12.1194L77.2909 12.0962C77.2837 12.1001 77.2801 12.1039 77.2729 12.1078L77.2477 12.1194C77.0029 12.2661 76.7618 12.4206 76.5242 12.5789C74.4367 13.9767 72.5758 15.7375 71.2225 17.9501C69.6856 20.4638 68.6238 23.2981 67.7312 26.1362C67.1301 28.0398 66.6658 30.013 66.511 32.0209C66.403 33.4303 66.4498 34.8667 66.7737 36.2414C67.0077 37.2453 67.3928 38.2107 67.9507 39.0563C68.3394 39.651 68.8109 40.1452 69.3292 40.6086C69.8331 41.0565 70.3838 41.4851 71.0317 41.6241C71.9711 41.8249 72.6262 41.5662 73.4 41.2766C74.1739 40.9831 74.9261 40.6009 75.5956 40.0912C76.3731 39.4965 77.0533 38.7628 77.6256 37.9442C78.2087 37.1102 78.6874 36.1912 79.0761 35.2374C79.4829 34.2489 79.796 33.2218 80.0444 32.1792C80.2963 31.1328 80.4835 30.067 80.6166 28.9974C80.7498 27.9703 80.8362 26.9393 80.8866 25.9045C80.9298 24.9778 80.9478 24.0472 80.937 23.1204C80.9298 22.3675 80.9046 21.6145 80.8614 20.8615C80.8326 20.3557 80.7966 19.8537 80.7498 19.3479C80.7462 19.3093 80.6634 18.8227 80.6958 18.7996C95.255 8.80634 95.9821 34.8899 95.9821 34.8899C102.673 14.2702 90.5867 10.8336 90.5867 10.8336ZM17.8953 10.7293L17.9133 10.737C17.9061 10.7332 17.8989 10.7293 17.8953 10.7293ZM25.4142 35.7201C25.4142 35.7201 19.3458 35.3571 19.443 20.8306C19.443 20.8306 26.1917 28.4337 25.4142 35.7201ZM72.583 35.7201C71.8056 28.4337 78.5542 20.8306 78.5542 20.8306C78.6514 35.3571 72.583 35.7201 72.583 35.7201ZM80.1019 10.7293C80.0947 10.7332 80.0911 10.7332 80.0839 10.737L80.1019 10.7293Z" fill="#DD3F61"/>
<path d="M48.9367 51.7511C48.9367 51.7511 46.2021 49.4477 35.8916 23.6785C35.8916 23.6785 37.9943 56.3581 48.9367 58.141C59.8753 56.3619 61.9818 23.6785 61.9818 23.6785C51.6714 49.4477 48.9367 51.7511 48.9367 51.7511Z" fill="#DD3F61"/>
<path d="M87.1502 69.3296V77.918H83.7328V69.384H80.5769V78.287H77.2649V69.384H74.265V78.1278H64.5865C64.5865 68.7003 57.3812 68.9101 57.3812 68.9101H45.0734V71.8972H46.7547C44.6014 75.5641 46.7547 77.8675 46.7547 77.8675H37.6575V68.9101H32.2896C24.9791 68.9101 25.1897 76.8731 25.1897 76.8731V81.0605H34.7122V85.0925H37.7082V81.0605H90.2554V69.3296H87.1502ZM34.7356 78.1161H27.9126V75.366C27.9126 75.2844 27.9517 71.7107 34.7356 71.7107V78.1161ZM51.5803 78.3104C49.6961 78.3104 48.1669 76.7915 48.1669 74.9115C48.1669 73.0353 49.6961 71.5126 51.5803 71.5126C53.4685 71.5126 54.9938 73.0353 54.9938 74.9115C54.9938 76.7915 53.4685 78.3104 51.5803 78.3104ZM57.0652 78.1161C59.5502 75.1679 56.8273 71.7146 56.8273 71.7146C61.6412 71.5554 61.9845 78.1161 61.9845 78.1161H57.0652Z" fill="white"/>
<path d="M23.0212 62.007V80.9785H13.9083C13.9083 80.9785 6.84743 80.4269 6.41442 74.9071V71.4927H9.09444V74.9071C9.09444 74.9071 9.09444 78.1118 12.5664 78.1118C16.0383 78.1118 20.1422 78.1118 20.1422 78.1118V62.007H23.0212Z" fill="white"/>
<path d="M26.644 93.7621C26.3281 93.6183 26.0784 93.428 25.895 93.1832C25.7117 92.9385 25.6103 92.6704 25.5947 92.3751H26.8274C26.8508 92.5616 26.9405 92.7131 27.1044 92.8374C27.2643 92.9579 27.4633 93.02 27.7051 93.02C27.9392 93.02 28.1186 92.9734 28.2513 92.8802C28.3839 92.7869 28.4463 92.6665 28.4463 92.5228C28.4463 92.3674 28.3644 92.2469 28.2045 92.1692C28.0445 92.0915 27.7871 92.006 27.4399 91.9128C27.0771 91.8273 26.7806 91.7341 26.5504 91.6408C26.3203 91.5476 26.1213 91.4039 25.9536 91.2135C25.7858 91.0231 25.7039 90.7628 25.7039 90.4365C25.7039 90.1684 25.7819 89.9236 25.9341 89.7061C26.0901 89.4846 26.3086 89.3098 26.5972 89.1855C26.8859 89.0573 27.2253 88.9951 27.6154 88.9951C28.1928 88.9951 28.6531 89.1389 28.9964 89.4264C29.3397 89.7138 29.5308 90.1024 29.5659 90.588H28.3956C28.38 90.3976 28.2981 90.2422 28.1538 90.1295C28.0094 90.0169 27.8183 89.9586 27.5803 89.9586C27.3579 89.9586 27.1902 89.9975 27.0693 90.079C26.9483 90.1606 26.8898 90.2733 26.8898 90.4209C26.8898 90.5841 26.9717 90.7084 27.1356 90.79C27.2994 90.8755 27.553 90.961 27.8963 91.0464C28.2474 91.1319 28.5361 91.2251 28.7623 91.3184C28.9886 91.4116 29.1875 91.5554 29.3514 91.7496C29.5191 91.9439 29.6049 92.2003 29.6088 92.5189C29.6088 92.7986 29.5308 93.0472 29.3787 93.2687C29.2226 93.4901 29.0042 93.6611 28.7155 93.7854C28.4268 93.9097 28.0913 93.9719 27.7051 93.9719C27.315 93.9758 26.96 93.902 26.644 93.7621Z" fill="#DD3F61"/>
<path d="M36.843 91.8506H33.3008C33.3281 92.2003 33.4529 92.4722 33.6675 92.6704C33.8821 92.8685 34.1473 92.9657 34.4633 92.9657C34.9197 92.9657 35.2435 92.7714 35.4347 92.3829H36.7571C36.6167 92.8491 36.3475 93.2298 35.9535 93.529C35.5556 93.8281 35.0719 93.9797 34.4945 93.9797C34.0264 93.9797 33.609 93.8748 33.2384 93.6689C32.8678 93.4629 32.5791 93.1716 32.3724 92.7947C32.1656 92.4179 32.0603 91.9827 32.0603 91.4893C32.0603 90.9882 32.1617 90.553 32.3646 90.1723C32.5674 89.7954 32.8561 89.5041 33.2228 89.302C33.5895 89.1 34.0147 88.9951 34.4906 88.9951C34.951 88.9951 35.3645 89.0922 35.7273 89.2904C36.0901 89.4885 36.3748 89.7682 36.5777 90.1295C36.7805 90.4909 36.8781 90.9105 36.8781 91.3805C36.8781 91.5515 36.8664 91.7108 36.843 91.8506ZM35.6102 91.0309C35.6024 90.7162 35.4893 90.4675 35.2669 90.2772C35.0446 90.0868 34.7754 89.9936 34.4555 89.9936C34.1512 89.9936 33.8977 90.0868 33.6909 90.2694C33.4842 90.452 33.3554 90.7045 33.3086 91.0309H35.6102Z" fill="#DD3F61"/>
<path d="M43.2281 89.2403C43.5129 89.3996 43.7352 89.6365 43.8991 89.9473C44.0629 90.258 44.1409 90.6309 44.1409 91.066V93.8977H42.916V91.233C42.916 90.8484 42.8185 90.5532 42.6273 90.3474C42.4362 90.1415 42.1709 90.0366 41.8393 90.0366C41.4999 90.0366 41.2347 90.1415 41.0396 90.3474C40.8446 90.5532 40.747 90.8484 40.747 91.233V93.8977H39.5221V87.4496H40.747V89.6715C40.9031 89.4617 41.1137 89.2986 41.3751 89.1782C41.6365 89.0577 41.929 88.9995 42.2489 88.9995C42.6195 88.9995 42.9433 89.081 43.2281 89.2403Z" fill="#DD3F61"/>
<path d="M47.9453 93.665C47.5708 93.4591 47.2782 93.1677 47.0676 92.7908C46.853 92.414 46.7477 91.9788 46.7477 91.4854C46.7477 90.992 46.8569 90.5569 47.0754 90.1801C47.2938 89.8032 47.5942 89.5118 47.9726 89.3059C48.351 89.1 48.7762 88.9951 49.2404 88.9951C49.7086 88.9951 50.1299 89.1 50.5083 89.3059C50.8867 89.5118 51.1871 89.8032 51.4055 90.1801C51.624 90.5569 51.7332 90.992 51.7332 91.4854C51.7332 91.9788 51.6201 92.414 51.3977 92.7908C51.1754 93.1677 50.8711 93.4591 50.4888 93.665C50.1065 93.8709 49.6813 93.9758 49.2053 93.9758C48.7372 93.9758 48.3198 93.8709 47.9453 93.665ZM49.8295 92.752C50.0246 92.6432 50.1806 92.4839 50.2976 92.2663C50.4147 92.0527 50.4732 91.7924 50.4732 91.4816C50.4732 91.0231 50.3522 90.6696 50.1104 90.4248C49.8685 90.1801 49.572 90.0557 49.2209 90.0557C48.8698 90.0557 48.5773 90.1801 48.3432 90.4248C48.1052 90.6735 47.9882 91.0231 47.9882 91.4816C47.9882 91.94 48.1013 92.2935 48.3354 92.5383C48.5656 92.7831 48.8542 92.9074 49.2053 92.9074C49.4277 92.9113 49.6344 92.8569 49.8295 92.752Z" fill="#DD3F61"/>
<path d="M55.2732 93.665C54.8987 93.4591 54.6062 93.1677 54.3955 92.7908C54.181 92.414 54.0756 91.9788 54.0756 91.4854C54.0756 90.992 54.1848 90.5569 54.4033 90.1801C54.6218 89.8032 54.9221 89.5118 55.3005 89.3059C55.679 89.1 56.1042 88.9951 56.5684 88.9951C57.0365 88.9951 57.4578 89.1 57.8362 89.3059C58.2146 89.5118 58.515 89.8032 58.7335 90.1801C58.9519 90.5569 59.0612 90.992 59.0612 91.4854C59.0612 91.9788 58.948 92.414 58.7257 92.7908C58.5033 93.1677 58.199 93.4591 57.8167 93.665C57.4344 93.8709 57.0092 93.9758 56.5333 93.9758C56.0652 93.9758 55.6477 93.8709 55.2732 93.665ZM57.1575 92.752C57.3525 92.6432 57.5085 92.4839 57.6256 92.2663C57.7426 92.0527 57.8011 91.7924 57.8011 91.4816C57.8011 91.0231 57.6802 90.6696 57.4383 90.4248C57.1965 90.1801 56.9 90.0557 56.5489 90.0557C56.1978 90.0557 55.9052 90.1801 55.6711 90.4248C55.4332 90.6735 55.3162 91.0231 55.3162 91.4816C55.3162 91.94 55.4293 92.2935 55.6634 92.5383C55.8935 92.7831 56.1822 92.9074 56.5333 92.9074C56.7556 92.9113 56.9624 92.8569 57.1575 92.752Z" fill="#DD3F61"/>
<path d="M62.6051 93.665C62.2306 93.4591 61.938 93.1677 61.7274 92.7908C61.5128 92.414 61.4075 91.9788 61.4075 91.4854C61.4075 90.992 61.5167 90.5569 61.7352 90.1801C61.9537 89.8032 62.254 89.5118 62.6324 89.3059C63.0108 89.1 63.4361 88.9951 63.9003 88.9951C64.3684 88.9951 64.7897 89.1 65.1681 89.3059C65.5465 89.5118 65.8469 89.8032 66.0654 90.1801C66.2838 90.5569 66.3931 90.992 66.3931 91.4854C66.3931 91.9788 66.2799 92.414 66.0576 92.7908C65.8352 93.1677 65.5309 93.4591 65.1486 93.665C64.7663 93.8709 64.3411 93.9758 63.8652 93.9758C63.397 93.9758 62.9796 93.8709 62.6051 93.665ZM64.4893 92.752C64.6844 92.6432 64.8404 92.4839 64.9575 92.2663C65.0745 92.0527 65.133 91.7924 65.133 91.4816C65.133 91.0231 65.0121 90.6696 64.7702 90.4248C64.5283 90.1801 64.2319 90.0557 63.8808 90.0557C63.5297 90.0557 63.2371 90.1801 63.003 90.4248C62.7651 90.6735 62.648 91.0231 62.648 91.4816C62.648 91.94 62.7612 92.2935 62.9952 92.5383C63.2254 92.7831 63.5141 92.9074 63.8652 92.9074C64.0875 92.9113 64.2943 92.8569 64.4893 92.752Z" fill="#DD3F61"/>
<path d="M70.2675 87.4496V93.8977H69.0426V87.4496H70.2675Z" fill="#DD3F61"/>
</svg>
