<svg width="28" height="28" viewBox="0 0 28 28" fill="none" xmlns="http://www.w3.org/2000/svg">
<path d="M18.3861 27.9999H18.2089C12.1564 27.9999 9.23913 25.6144 8.73475 20.2707C8.68022 19.7117 9.08918 19.2074 9.66172 19.1528C10.207 19.0983 10.725 19.5209 10.7795 20.0798C11.1749 24.3602 13.1924 25.9552 18.2226 25.9552H18.3998C23.948 25.9552 25.911 23.9922 25.911 18.444V9.55597C25.911 4.00778 23.948 2.04479 18.3998 2.04479H18.2226C13.1651 2.04479 11.1476 3.66698 10.7795 8.0292C10.7114 8.5881 10.2343 9.01069 9.66172 8.95617C9.08918 8.91527 8.68022 8.41089 8.72112 7.85198C9.1846 2.42648 12.1155 0 18.2089 0H18.3861C25.0794 0 27.9421 2.8627 27.9421 9.55597V18.444C27.9421 25.1372 25.0794 27.9999 18.3861 27.9999Z" fill="#FF445B"/>
<path d="M18.0611 15.0224H2.548C1.98909 15.0224 1.5256 14.5589 1.5256 14C1.5256 13.4411 1.98909 12.9776 2.548 12.9776H18.0611C18.62 12.9776 19.0835 13.4411 19.0835 14C19.0835 14.5589 18.62 15.0224 18.0611 15.0224Z" fill="#FF445B"/>
<path d="M5.58568 19.5895C5.32667 19.5895 5.06766 19.4941 4.86318 19.2896L0.296494 14.7229C-0.0988313 14.3276 -0.0988313 13.6733 0.296494 13.278L4.86318 8.71127C5.25851 8.31595 5.91284 8.31595 6.30817 8.71127C6.70349 9.1066 6.70349 9.76093 6.30817 10.1563L2.46397 14.0005L6.30817 17.8447C6.70349 18.24 6.70349 18.8943 6.30817 19.2896C6.11732 19.4941 5.84468 19.5895 5.58568 19.5895Z" fill="#FF445B"/>
</svg>
