<svg width="41" height="12" viewBox="0 0 41 12" fill="none" xmlns="http://www.w3.org/2000/svg">
<path d="M26.4709 8.86262V2.5237H27.5458V3.03197C27.873 2.62301 28.358 2.40098 28.9596 2.40098C30.1982 2.40098 31.0863 3.38833 31.0863 4.80214C31.0863 6.21595 30.1924 7.22089 28.9596 7.22089C28.3521 7.22089 27.873 6.98716 27.5458 6.5782V8.86253L26.4709 8.86262ZM27.5459 4.21804V5.38651C27.7738 5.85977 28.1827 6.20443 28.7728 6.20443C29.4856 6.20443 29.9647 5.67275 29.9647 4.79642C29.9647 3.93179 29.4856 3.40592 28.7728 3.40592C28.1827 3.41173 27.7738 3.73307 27.5459 4.21804Z" fill="#02AA7C"/>
<path d="M31.7828 5.78376C31.7828 5.01255 32.2618 4.47507 33.0564 4.37575L34.885 4.14202V3.91419C34.885 3.63964 34.7448 3.49353 34.4878 3.49353H32.1917V2.51788H34.5287C35.4576 2.51788 35.9659 2.97355 35.9659 3.77986V7.08075H34.8792V6.52576C34.5638 6.96983 34.0438 7.22097 33.3719 7.22097C32.4255 7.22097 31.7828 6.64258 31.7828 5.78376ZM33.6347 6.34455C34.1839 6.34455 34.6922 6.0349 34.8791 5.57923V5.00665L33.4828 5.19948C33.0973 5.25208 32.881 5.45652 32.881 5.78956C32.8811 6.14592 33.1557 6.34455 33.6347 6.34455Z" fill="#02AA7C"/>
<path d="M36.7478 7.88706H37.5307C37.8287 7.88706 37.9631 7.76434 38.0624 7.4839L38.2026 7.08075L36.5434 2.51788H37.6652L38.6992 5.69614H38.7226L39.71 2.51788H40.8141L38.9972 7.75845C38.7518 8.47705 38.4246 8.86261 37.6243 8.86261H36.7479L36.7478 7.88706Z" fill="#02AA7C"/>
<path d="M3.94358 12C5.19386 12 6.2221 11.6085 6.8998 10.9542C7.40808 10.4517 7.70602 9.77404 7.70602 8.99122C7.70602 8.28432 7.44309 7.64752 6.95822 7.16256C6.47334 6.67759 5.77804 6.32124 4.90171 6.15181L3.4645 5.87137C2.86862 5.76036 2.52977 5.46241 2.52977 5.04765C2.52977 4.50427 3.05554 4.13041 3.89686 4.13041C4.42264 4.13041 4.87251 4.29984 5.17046 4.59778C5.35739 4.80231 5.4859 5.06515 5.52681 5.3631L7.60081 4.89573C7.5424 4.29984 7.26196 3.77397 6.8355 3.3417C6.15199 2.6698 5.10615 2.24334 3.87347 2.24334C2.7342 2.24334 1.78196 2.61729 1.12176 3.21318C0.56088 3.73896 0.245431 4.44586 0.245431 5.23458C0.245431 5.92398 0.46746 6.50817 0.917325 6.95223C1.36719 7.40209 2.02149 7.73514 2.88032 7.94538L4.30002 8.28423C5.01282 8.45365 5.32827 8.71659 5.32827 9.18396C5.32827 9.76234 4.80249 10.1012 3.94367 10.1012C3.32438 10.1012 2.82191 9.89667 2.50646 9.55782C2.28443 9.33579 2.1501 9.03204 2.13251 8.69899L0 9.16645C0.0584099 9.80325 0.356355 10.3641 0.80622 10.814C1.51312 11.5559 2.65829 12 3.94358 12ZM19.7295 12C21.1141 12 22.1774 11.4975 22.9077 10.7848C23.486 10.2239 23.8424 9.56961 24.0294 8.89771L21.8444 8.16741C21.7509 8.50626 21.564 8.86261 21.266 9.13725C20.9097 9.4761 20.4247 9.71563 19.7295 9.71563C19.0927 9.71563 18.4968 9.47029 18.0644 9.04374C17.6321 8.59387 17.3692 7.93957 17.3692 7.11576C17.3692 6.27444 17.6322 5.63764 18.0644 5.18778C18.4909 4.75542 19.0752 4.53348 19.712 4.53348C20.3839 4.53348 20.8512 4.75551 21.1901 5.09436C21.4705 5.3748 21.64 5.73115 21.751 6.08751L23.9769 5.3397C23.8075 4.6854 23.4511 4.03101 22.9311 3.48772C22.1833 2.75742 21.0967 2.23744 19.6595 2.23744C18.3333 2.23744 17.1356 2.73991 16.2768 3.60454C15.4179 4.48087 14.8922 5.70195 14.8922 7.12165C14.8922 8.54136 15.4355 9.75654 16.3119 10.6388C17.1647 11.4975 18.3799 12 19.7295 12ZM12.1754 12C13.1452 12 13.8404 11.702 14.1384 11.4391V9.41769C13.9105 9.58711 13.4665 9.79164 12.8823 9.79164C12.4675 9.79164 12.1695 9.69813 11.9475 9.49369C11.7606 9.30676 11.6671 8.98542 11.6671 8.55895V0H9.19584V2.52387H14.1326V4.91922H9.19584V9.16654C9.19584 10.0254 9.45878 10.7206 9.92614 11.2055C10.4519 11.7195 11.223 12 12.1754 12Z" fill="#502C84"/>
</svg>
