<svg width="98" height="94" viewBox="0 0 98 94" fill="none" xmlns="http://www.w3.org/2000/svg">
<path d="M90.586 10.8335C89.6286 10.4782 88.6388 10.2041 87.6346 10.0303C85.5614 9.67507 83.4307 9.76388 81.3935 10.3122C80.958 10.4319 80.5297 10.567 80.1049 10.7254C80.1049 10.7176 79.2771 0.319039 70.0126 0.00627015C60.7445 -0.306499 49.8711 11.1462 49 19.9462C48.1254 11.1462 37.2556 -0.306499 27.9875 0.00627015C18.7194 0.315178 17.8915 10.7176 17.8915 10.7254C17.4668 10.567 17.0385 10.4319 16.603 10.3122C14.5658 9.76388 12.4351 9.67507 10.3619 10.0303C9.35768 10.2041 8.36788 10.4782 7.41047 10.8335C7.41047 10.8335 -4.67588 14.2701 2.02236 34.8896C2.02236 34.8896 2.74941 8.80627 17.3085 18.7994C17.3409 18.8226 17.2581 19.3091 17.2545 19.3477C17.2077 19.8536 17.1717 20.3555 17.1429 20.8614C17.0997 21.6143 17.0745 22.3673 17.0673 23.1203C17.0565 24.047 17.0745 24.9776 17.1177 25.9043C17.1681 26.9391 17.2545 27.9701 17.3876 28.9972C17.5208 30.0668 17.708 31.1325 17.9599 32.179C18.2083 33.2215 18.5214 34.2487 18.9281 35.2372C19.3169 36.1909 19.7956 37.1099 20.3786 37.944C20.9509 38.7626 21.6312 39.4962 22.4086 40.0909C23.0781 40.6006 23.8303 40.9828 24.6042 41.2763C25.378 41.5659 26.0331 41.8246 26.9725 41.6238C27.6204 41.4848 28.1711 41.0562 28.675 40.6083C29.1933 40.1449 29.6648 39.6507 30.0535 39.056C30.6114 38.2104 30.9965 37.2451 31.2304 36.2411C31.5544 34.8665 31.6012 33.43 31.4932 32.0207C31.3384 30.0128 30.8741 28.0396 30.273 26.136C29.3804 23.2979 28.3186 20.4637 26.7817 17.9499C25.4284 15.7374 23.5676 13.9766 21.48 12.5788C21.2425 12.4205 21.0013 12.266 20.7566 12.1193L20.7314 12.1077C20.7242 12.1039 20.7206 12.1 20.7134 12.0961L20.7602 12.1193C21.1489 8.03786 24.7338 6.40838 24.7338 6.40838C29.9743 4.79433 36.0427 9.81408 36.0427 9.81408C43.0792 14.467 49 26.1398 49 26.1398C49 26.1398 54.9208 14.467 61.9574 9.81408C61.9574 9.81408 68.0222 4.79433 73.2663 6.40838C73.2663 6.40838 76.8512 8.03786 77.2435 12.1193L77.2903 12.0961C77.2831 12.1 77.2795 12.1039 77.2723 12.1077L77.2471 12.1193C77.0024 12.266 76.7612 12.4205 76.5237 12.5788C74.4361 13.9766 72.5753 15.7374 71.2219 17.9499C69.6851 20.4637 68.6233 23.2979 67.7306 26.136C67.1296 28.0396 66.6653 30.0128 66.5105 32.0207C66.4025 33.43 66.4493 34.8665 66.7732 36.2411C67.0072 37.2451 67.3923 38.2104 67.9502 39.056C68.3389 39.6507 68.8104 40.1449 69.3287 40.6083C69.8326 41.0562 70.3833 41.4848 71.0312 41.6238C71.9706 41.8246 72.6257 41.5659 73.3995 41.2763C74.1733 40.9828 74.9256 40.6006 75.5951 40.0909C76.3725 39.4962 77.0528 38.7626 77.625 37.944C78.2081 37.1099 78.6868 36.1909 79.0755 35.2372C79.4823 34.2487 79.7954 33.2215 80.0437 32.179C80.2957 31.1325 80.4829 30.0668 80.616 28.9972C80.7492 27.9701 80.8356 26.9391 80.886 25.9043C80.9292 24.9776 80.9472 24.047 80.9364 23.1203C80.9292 22.3673 80.904 21.6143 80.8608 20.8614C80.832 20.3555 80.796 19.8536 80.7492 19.3477C80.7456 19.3091 80.6628 18.8226 80.6952 18.7994C95.2543 8.80627 95.9813 34.8896 95.9813 34.8896C102.672 14.2701 90.586 10.8335 90.586 10.8335ZM17.8951 10.7292L17.9131 10.7369C17.9059 10.7331 17.8987 10.7292 17.8951 10.7292ZM25.414 35.7198C25.414 35.7198 19.3457 35.3569 19.4428 20.8305C19.4428 20.8305 26.1915 28.4335 25.414 35.7198ZM72.5825 35.7198C71.805 28.4335 78.5537 20.8305 78.5537 20.8305C78.6508 35.3569 72.5825 35.7198 72.5825 35.7198ZM80.1013 10.7292C80.0941 10.7331 80.0905 10.7331 80.0833 10.7369L80.1013 10.7292Z" fill="#DD3F61"/>
<path d="M48.9378 51.7508C48.9378 51.7508 46.2032 49.4473 35.8928 23.6783C35.8928 23.6783 37.9955 56.3576 48.9378 58.1406C59.8763 56.3615 61.9829 23.6783 61.9829 23.6783C51.6724 49.4473 48.9378 51.7508 48.9378 51.7508Z" fill="#DD3F61"/>
<path d="M87.149 69.3291V77.9174H83.7317V69.3835H80.5758V78.2865H77.2638V69.3835H74.2639V78.1272H64.5855C64.5855 68.6998 57.3803 68.9096 57.3803 68.9096H45.0726V71.8966H46.7539C44.6005 75.5635 46.7539 77.8669 46.7539 77.8669H37.6567V68.9096H32.2889C24.9784 68.9096 25.189 76.8725 25.189 76.8725V81.0599H34.7114V85.0919H37.7074V81.0599H90.2542V69.3291H87.149ZM34.7348 78.1155H27.9119V75.3654C27.9119 75.2838 27.951 71.7102 34.7348 71.7102V78.1155ZM51.5795 78.3098C49.6953 78.3098 48.1661 76.791 48.1661 74.9109C48.1661 73.0348 49.6953 71.5121 51.5795 71.5121C53.4676 71.5121 54.9929 73.0348 54.9929 74.9109C54.9929 76.791 53.4676 78.3098 51.5795 78.3098ZM57.0643 78.1155C59.5493 75.1673 56.8263 71.7141 56.8263 71.7141C61.6402 71.5548 61.9835 78.1155 61.9835 78.1155H57.0643Z" fill="white"/>
<path d="M23.0208 62.0065V80.9779H13.908C13.908 80.9779 6.84714 80.4263 6.41412 74.9066V71.4922H9.09413V74.9066C9.09413 74.9066 9.09413 78.1112 12.566 78.1112C16.038 78.1112 20.1418 78.1112 20.1418 78.1112V62.0065H23.0208Z" fill="white"/>
<path d="M26.6446 93.7614C26.3286 93.6176 26.0789 93.4273 25.8956 93.1825C25.7122 92.9378 25.6108 92.6697 25.5952 92.3744H26.8279C26.8513 92.5609 26.9411 92.7124 27.1049 92.8367C27.2648 92.9572 27.4638 93.0193 27.7057 93.0193C27.9397 93.0193 28.1192 92.9727 28.2518 92.8795C28.3844 92.7862 28.4469 92.6658 28.4469 92.5221C28.4469 92.3667 28.3649 92.2462 28.205 92.1685C28.0451 92.0908 27.7876 92.0053 27.4404 91.9121C27.0776 91.8266 26.7811 91.7334 26.551 91.6402C26.3208 91.5469 26.1218 91.4032 25.9541 91.2128C25.7864 91.0224 25.7044 90.7621 25.7044 90.4358C25.7044 90.1677 25.7825 89.923 25.9346 89.7054C26.0906 89.484 26.3091 89.3091 26.5978 89.1848C26.8864 89.0566 27.2258 88.9944 27.6159 88.9944C28.1933 88.9944 28.6536 89.1382 28.9969 89.4257C29.3402 89.7132 29.5313 90.1017 29.5665 90.5873H28.3961C28.3805 90.3969 28.2986 90.2415 28.1543 90.1289C28.0099 90.0162 27.8188 89.9579 27.5808 89.9579C27.3585 89.9579 27.1907 89.9968 27.0698 90.0784C26.9489 90.1599 26.8903 90.2726 26.8903 90.4202C26.8903 90.5834 26.9723 90.7077 27.1361 90.7893C27.3 90.8748 27.5535 90.9603 27.8968 91.0457C28.2479 91.1312 28.5366 91.2245 28.7628 91.3177C28.9891 91.4109 29.1881 91.5547 29.3519 91.7489C29.5196 91.9432 29.6055 92.1996 29.6094 92.5182C29.6094 92.7979 29.5313 93.0465 29.3792 93.268C29.2232 93.4894 29.0047 93.6604 28.716 93.7847C28.4274 93.909 28.0919 93.9712 27.7057 93.9712C27.3156 93.9751 26.9606 93.9012 26.6446 93.7614Z" fill="#DD3F61"/>
<path d="M36.8449 91.8499H33.3028C33.3301 92.1996 33.4549 92.4716 33.6695 92.6697C33.884 92.8678 34.1493 92.965 34.4653 92.965C34.9217 92.965 35.2455 92.7707 35.4366 92.3822H36.7591C36.6186 92.8484 36.3495 93.2291 35.9555 93.5283C35.5576 93.8274 35.0738 93.979 34.4965 93.979C34.0284 93.979 33.611 93.8741 33.2404 93.6681C32.8698 93.4622 32.5811 93.1709 32.3743 92.794C32.1676 92.4172 32.0622 91.982 32.0622 91.4886C32.0622 90.9875 32.1637 90.5523 32.3665 90.1716C32.5694 89.7948 32.8581 89.5034 33.2247 89.3014C33.5914 89.0993 34.0167 88.9944 34.4926 88.9944C34.9529 88.9944 35.3664 89.0916 35.7292 89.2897C36.092 89.4878 36.3768 89.7676 36.5796 90.1289C36.7825 90.4902 36.88 90.9098 36.88 91.3799C36.88 91.5508 36.8683 91.7101 36.8449 91.8499ZM35.6122 91.0302C35.6044 90.7155 35.4912 90.4669 35.2689 90.2765C35.0465 90.0861 34.7774 89.9929 34.4575 89.9929C34.1532 89.9929 33.8996 90.0861 33.6929 90.2687C33.4861 90.4513 33.3574 90.7039 33.3106 91.0302H35.6122Z" fill="#DD3F61"/>
<path d="M43.228 89.2396C43.5128 89.3989 43.7352 89.6358 43.899 89.9466C44.0628 90.2573 44.1409 90.6302 44.1409 91.0653V93.897H42.9159V91.2323C42.9159 90.8478 42.8184 90.5525 42.6273 90.3467C42.4361 90.1408 42.1708 90.0359 41.8393 90.0359C41.4999 90.0359 41.2346 90.1408 41.0395 90.3467C40.8445 90.5525 40.747 90.8478 40.747 91.2323V93.897H39.522V87.4489H40.747V89.6708C40.903 89.461 41.1137 89.2979 41.375 89.1775C41.6364 89.0571 41.929 88.9988 42.2489 88.9988C42.6195 88.9988 42.9432 89.0804 43.228 89.2396Z" fill="#DD3F61"/>
<path d="M47.9449 93.6643C47.5704 93.4584 47.2779 93.167 47.0672 92.7901C46.8526 92.4133 46.7473 91.9781 46.7473 91.4847C46.7473 90.9913 46.8565 90.5562 47.075 90.1794C47.2935 89.8025 47.5938 89.5111 47.9722 89.3052C48.3506 89.0993 48.7759 88.9944 49.2401 88.9944C49.7082 88.9944 50.1295 89.0993 50.5079 89.3052C50.8863 89.5111 51.1867 89.8025 51.4051 90.1794C51.6236 90.5562 51.7328 90.9913 51.7328 91.4847C51.7328 91.9781 51.6197 92.4133 51.3973 92.7901C51.175 93.167 50.8707 93.4584 50.4884 93.6643C50.1061 93.8702 49.6809 93.9751 49.205 93.9751C48.7368 93.9751 48.3194 93.8702 47.9449 93.6643ZM49.8291 92.7513C50.0242 92.6425 50.1802 92.4832 50.2972 92.2656C50.4143 92.052 50.4728 91.7917 50.4728 91.4809C50.4728 91.0224 50.3519 90.6689 50.11 90.4241C49.8681 90.1794 49.5717 90.0551 49.2206 90.0551C48.8695 90.0551 48.5769 90.1794 48.3428 90.4241C48.1049 90.6728 47.9878 91.0224 47.9878 91.4809C47.9878 91.9393 48.101 92.2928 48.335 92.5376C48.5652 92.7824 48.8539 92.9067 49.205 92.9067C49.4273 92.9106 49.6341 92.8562 49.8291 92.7513Z" fill="#DD3F61"/>
<path d="M55.2748 93.6643C54.9003 93.4584 54.6077 93.167 54.3971 92.7901C54.1825 92.4133 54.0772 91.9781 54.0772 91.4847C54.0772 90.9913 54.1864 90.5562 54.4049 90.1794C54.6233 89.8025 54.9237 89.5111 55.3021 89.3052C55.6805 89.0993 56.1057 88.9944 56.5699 88.9944C57.0381 88.9944 57.4594 89.0993 57.8378 89.3052C58.2162 89.5111 58.5165 89.8025 58.735 90.1794C58.9535 90.5562 59.0627 90.9913 59.0627 91.4847C59.0627 91.9781 58.9496 92.4133 58.7272 92.7901C58.5048 93.167 58.2006 93.4584 57.8183 93.6643C57.436 93.8702 57.0108 93.9751 56.5348 93.9751C56.0667 93.9751 55.6493 93.8702 55.2748 93.6643ZM57.159 92.7513C57.354 92.6425 57.5101 92.4832 57.6271 92.2656C57.7441 92.052 57.8027 91.7917 57.8027 91.4809C57.8027 91.0224 57.6817 90.6689 57.4399 90.4241C57.198 90.1794 56.9015 90.0551 56.5504 90.0551C56.1993 90.0551 55.9068 90.1794 55.6727 90.4241C55.4347 90.6728 55.3177 91.0224 55.3177 91.4809C55.3177 91.9393 55.4308 92.2928 55.6649 92.5376C55.8951 92.7824 56.1837 92.9067 56.5348 92.9067C56.7572 92.9106 56.9639 92.8562 57.159 92.7513Z" fill="#DD3F61"/>
<path d="M62.6047 93.6643C62.2302 93.4584 61.9376 93.167 61.7269 92.7901C61.5124 92.4133 61.407 91.9781 61.407 91.4847C61.407 90.9913 61.5163 90.5562 61.7347 90.1794C61.9532 89.8025 62.2536 89.5111 62.632 89.3052C63.0104 89.0993 63.4356 88.9944 63.8998 88.9944C64.3679 88.9944 64.7892 89.0993 65.1676 89.3052C65.546 89.5111 65.8464 89.8025 66.0649 90.1794C66.2833 90.5562 66.3926 90.9913 66.3926 91.4847C66.3926 91.9781 66.2794 92.4133 66.0571 92.7901C65.8347 93.167 65.5304 93.4584 65.1481 93.6643C64.7658 93.8702 64.3406 93.9751 63.8647 93.9751C63.3966 93.9751 62.9792 93.8702 62.6047 93.6643ZM64.4889 92.7513C64.6839 92.6425 64.8399 92.4832 64.957 92.2656C65.074 92.052 65.1325 91.7917 65.1325 91.4809C65.1325 91.0224 65.0116 90.6689 64.7697 90.4241C64.5279 90.1794 64.2314 90.0551 63.8803 90.0551C63.5292 90.0551 63.2366 90.1794 63.0026 90.4241C62.7646 90.6728 62.6476 91.0224 62.6476 91.4809C62.6476 91.9393 62.7607 92.2928 62.9948 92.5376C63.2249 92.7824 63.5136 92.9067 63.8647 92.9067C64.087 92.9106 64.2938 92.8562 64.4889 92.7513Z" fill="#DD3F61"/>
<path d="M70.2665 87.4489V93.897H69.0416V87.4489H70.2665Z" fill="#DD3F61"/>
</svg>
