<svg width="15" height="17" viewBox="0 0 15 17" fill="none" xmlns="http://www.w3.org/2000/svg">
<path d="M3.05773 2.08801C2.54896 1.73449 1.82906 1.53105 0.828268 1.78635C0.553525 1.85643 0.367305 2.11389 0.387778 2.39668C0.431395 2.99892 0.649902 4.03738 1.58651 4.67558M12.0165 2.03847C12.5203 1.71611 13.2186 1.54322 14.1717 1.78635C14.4464 1.85643 14.6327 2.11389 14.6122 2.39668C14.5679 3.00803 14.3434 4.06889 13.3704 4.7043M4.7218 1.91469C4.58348 1.17686 4.33352 0.386303 3.89757 0.386303C3.27093 0.386303 3.02174 1.74837 3.06188 2.82877M10.2786 1.93819C10.416 1.19376 10.6666 0.386303 11.1072 0.386303C11.751 0.386303 11.9963 1.82376 11.9389 2.91661" stroke="#9BA1C8" stroke-width="0.768453" stroke-miterlimit="10" stroke-linecap="round" stroke-linejoin="round"/>
<path d="M13.0651 9.60192C13.5074 7.87118 13.7834 6.10603 13.4611 5.06317C12.6657 2.48998 9.76497 1.55994 7.49988 1.55994C5.23478 1.55994 2.33406 2.48998 1.53867 5.0632C0.997104 6.81531 2.14456 10.6064 2.93202 12.8475M12.0164 12.9928C12.2437 12.3523 12.5064 11.5699 12.7516 10.738M5.06688 8.10302V8.66834M9.93288 8.10302V8.66834" stroke="#9BA1C8" stroke-width="0.768453" stroke-miterlimit="10" stroke-linecap="round" stroke-linejoin="round"/>
<path d="M12.3036 3.34114C11.7308 3.70608 11.2901 4.28303 11.1181 4.94145C10.8674 5.90097 11.1987 6.98877 11.9418 7.64558C12.343 8.00019 12.8304 8.22153 13.344 8.38525M4.16583 7.11876C4.41565 7.04961 4.65657 6.9617 4.87185 6.81768C5.28981 6.53805 5.56423 6.05471 5.59015 5.55251C5.60144 5.33346 5.56839 5.11247 5.59806 4.89512C5.66348 4.41629 6.0241 4.02676 6.42609 3.75852C6.72981 3.55588 7.07411 3.3957 7.30292 3.11121C7.57377 2.7744 7.63831 2.30813 7.57277 1.8809C7.56191 1.81067 7.54811 1.74093 7.53141 1.67185M1.73321 8.34192C2.07555 7.96214 2.49866 7.65498 2.96915 7.45663" stroke="#9BA1C8" stroke-width="0.768453" stroke-miterlimit="10" stroke-linecap="round" stroke-linejoin="round"/>
<path d="M7.49992 16.3848C10.0227 16.3848 12.0678 15.0676 12.0678 13.4427C12.0678 11.8178 10.0227 10.5006 7.49992 10.5006C4.97716 10.5006 2.93207 11.8178 2.93207 13.4427C2.93207 15.0676 4.97716 16.3848 7.49992 16.3848Z" stroke="#9BA1C8" stroke-width="0.768453" stroke-miterlimit="10" stroke-linecap="round" stroke-linejoin="round"/>
<path d="M5.70396 14.2724C6.02864 14.2724 6.29185 13.9009 6.29185 13.4426C6.29185 12.9843 6.02864 12.6128 5.70396 12.6128C5.37927 12.6128 5.11607 12.9843 5.11607 13.4426C5.11607 13.9009 5.37927 14.2724 5.70396 14.2724Z" stroke="#9BA1C8" stroke-width="0.768453" stroke-miterlimit="10" stroke-linecap="round" stroke-linejoin="round"/>
<path d="M9.29622 14.2724C9.62091 14.2724 9.88411 13.9009 9.88411 13.4426C9.88411 12.9843 9.62091 12.6128 9.29622 12.6128C8.97154 12.6128 8.70833 12.9843 8.70833 13.4426C8.70833 13.9009 8.97154 14.2724 9.29622 14.2724Z" stroke="#9BA1C8" stroke-width="0.768453" stroke-miterlimit="10" stroke-linecap="round" stroke-linejoin="round"/>
</svg>
