<svg width="19" height="10" viewBox="0 0 19 10" fill="none" xmlns="http://www.w3.org/2000/svg">
<path d="M13.0589 0.28266C12.6903 -0.090084 12.0897 -0.094786 11.7153 0.272184L4.69233 7.21322L1.63939 4.05267C1.27527 3.67316 0.672455 3.6607 0.292987 4.02483C-0.0865211 4.38895 -0.0989775 4.99177 0.265146 5.37123C0.266796 5.37292 0.268404 5.37462 0.270054 5.37631L3.99246 9.23392C4.17061 9.41565 4.41408 9.51856 4.66857 9.51959H4.67905C4.92872 9.51881 5.16811 9.41998 5.34563 9.2444L13.0503 1.6263C13.4226 1.25715 13.4264 0.656559 13.0589 0.28266Z" fill="white"/>
<path d="M9.70469 9.23361C9.88238 9.41489 10.1251 9.51772 10.3789 9.51929H10.3894C10.639 9.5185 10.8784 9.41968 11.056 9.24409L18.7607 1.626C19.1099 1.23276 19.0743 0.630888 18.6811 0.281655C18.3246 -0.034953 17.7889 -0.0391188 17.4275 0.271879L10.4074 7.21291L10.157 6.95293C9.79291 6.57343 9.1901 6.56093 8.81059 6.92505C8.43108 7.28913 8.41858 7.89195 8.78271 8.27146C8.78436 8.27319 8.78601 8.27488 8.78766 8.27657L9.70469 9.23361Z" fill="white"/>
</svg>
