<svg width="21" height="15" viewBox="0 0 21 15" fill="none" xmlns="http://www.w3.org/2000/svg">
<path d="M13.4519 5.79515C13.5336 5.79515 13.612 5.76323 13.6698 5.70639C13.7276 5.64956 13.7601 5.57247 13.7601 5.4921C13.7601 5.41172 13.7276 5.33464 13.6698 5.27781C13.612 5.22097 13.5336 5.18904 13.4519 5.18904C13.1416 5.18904 12.8891 4.9408 12.8891 4.63569C12.8891 4.33054 13.1416 4.08229 13.4519 4.08229C13.5336 4.08229 13.612 4.05036 13.6698 3.99353C13.7276 3.9367 13.7601 3.85961 13.7601 3.77924C13.7601 3.69886 13.7276 3.62178 13.6698 3.56494C13.612 3.50811 13.5336 3.47618 13.4519 3.47618C12.8017 3.47618 12.2727 3.99634 12.2727 4.63573C12.2727 4.9746 12.4214 5.27995 12.6579 5.49214C12.4214 5.70433 12.2727 6.00968 12.2727 6.34855C12.2727 6.68742 12.4214 6.99282 12.6579 7.205C12.4214 7.41719 12.2727 7.72254 12.2727 8.06145C12.2727 8.40032 12.4214 8.70572 12.6579 8.9179C12.4214 9.12997 12.2727 9.43532 12.2727 9.77419C12.2727 10.4135 12.8017 10.9337 13.4519 10.9337C13.5336 10.9337 13.612 10.9018 13.6698 10.845C13.7276 10.7881 13.7601 10.7111 13.7601 10.6307C13.7601 10.5503 13.7276 10.4732 13.6698 10.4164C13.612 10.3596 13.5336 10.3276 13.4519 10.3276C13.1416 10.3276 12.8891 10.0794 12.8891 9.77423C12.8891 9.46912 13.1416 9.22088 13.4519 9.22088C13.5336 9.22088 13.612 9.18895 13.6698 9.13212C13.7276 9.07528 13.7601 8.9982 13.7601 8.91782C13.7601 8.83745 13.7276 8.76037 13.6698 8.70353C13.612 8.6467 13.5336 8.61477 13.4519 8.61477C13.1416 8.61477 12.8891 8.36653 12.8891 8.06137C12.8891 7.75626 13.1416 7.50802 13.4519 7.50802C13.5336 7.50802 13.612 7.47609 13.6698 7.41925C13.7276 7.36242 13.7601 7.28534 13.7601 7.20496C13.7601 7.12459 13.7276 7.0475 13.6698 6.99067C13.612 6.93384 13.5336 6.90191 13.4519 6.90191C13.1416 6.90191 12.8891 6.65366 12.8891 6.34851C12.8891 6.0434 13.1416 5.79515 13.4519 5.79515ZM10.9767 6.65157C11.0585 6.65157 11.1369 6.61964 11.1947 6.5628C11.2525 6.50597 11.2849 6.42889 11.2849 6.34851C11.2849 6.26813 11.2525 6.19105 11.1947 6.13422C11.1369 6.07738 11.0585 6.04546 10.9767 6.04546C10.6664 6.04546 10.414 5.79721 10.414 5.4921C10.414 5.18699 10.6664 4.93874 10.9767 4.93874C11.0585 4.93874 11.1369 4.90681 11.1947 4.84998C11.2525 4.79315 11.2849 4.71606 11.2849 4.63569C11.2849 4.55531 11.2525 4.47823 11.1947 4.4214C11.1369 4.36456 11.0585 4.33263 10.9767 4.33263C10.3266 4.33263 9.79758 4.85276 9.79758 5.49214C9.79758 5.83101 9.94623 6.13636 10.1827 6.34859C9.94623 6.56078 9.79758 6.86617 9.79758 7.20504C9.79758 7.54391 9.94623 7.84927 10.1827 8.06149C9.94623 8.27352 9.79758 8.57891 9.79758 8.91778C9.79758 9.55713 10.3266 10.0773 10.9767 10.0773C11.0585 10.0773 11.1369 10.0454 11.1947 9.98853C11.2525 9.93169 11.2849 9.85461 11.2849 9.77423C11.2849 9.69386 11.2525 9.61678 11.1947 9.55994C11.1369 9.50311 11.0585 9.47118 10.9767 9.47118C10.6664 9.47118 10.414 9.22294 10.414 8.91782C10.414 8.61267 10.6664 8.36443 10.9767 8.36443C11.0585 8.36443 11.1369 8.3325 11.1947 8.27566C11.2525 8.21883 11.2849 8.14175 11.2849 8.06137C11.2849 7.981 11.2525 7.90391 11.1947 7.84708C11.1369 7.79025 11.0585 7.75832 10.9767 7.75832C10.6664 7.75832 10.414 7.51007 10.414 7.20496C10.414 6.89981 10.6664 6.65157 10.9767 6.65157ZM8.50161 7.50802C8.58335 7.50802 8.66174 7.47609 8.71954 7.41925C8.77733 7.36242 8.80981 7.28534 8.80981 7.20496C8.80981 7.12459 8.77733 7.0475 8.71954 6.99067C8.66174 6.93384 8.58335 6.90191 8.50161 6.90191C8.19129 6.90191 7.93884 6.65366 7.93884 6.34851C7.93884 6.0434 8.19129 5.79515 8.50161 5.79515C8.58335 5.79515 8.66174 5.76323 8.71954 5.70639C8.77733 5.64956 8.80981 5.57247 8.80981 5.4921C8.80981 5.41172 8.77733 5.33464 8.71954 5.27781C8.66174 5.22097 8.58335 5.18904 8.50161 5.18904C7.85143 5.18904 7.32245 5.70917 7.32245 6.34855C7.32245 6.68742 7.47109 6.99282 7.70759 7.205C7.47109 7.41707 7.32245 7.72242 7.32245 8.06133C7.32245 8.70068 7.85143 9.22088 8.50161 9.22088C8.58335 9.22088 8.66174 9.18895 8.71954 9.13212C8.77733 9.07528 8.80981 8.9982 8.80981 8.91782C8.80981 8.83745 8.77733 8.76037 8.71954 8.70353C8.66174 8.6467 8.58335 8.61477 8.50161 8.61477C8.19129 8.61477 7.93884 8.36653 7.93884 8.06137C7.93884 7.75626 8.19129 7.50802 8.50161 7.50802Z" fill="#828ABA"/>
<path d="M20.9866 7.88805C20.9727 7.83562 20.9483 7.78641 20.915 7.74325C20.8817 7.70009 20.84 7.66383 20.7924 7.63654C20.7584 7.61726 20.7262 7.59867 20.6956 7.58076C20.4811 7.45557 20.345 7.36426 20.2604 7.30207C20.3293 7.17692 20.469 6.98857 20.7417 6.80873C20.7598 6.79675 20.7786 6.78477 20.798 6.77291L20.798 6.77287L20.7981 6.77283C20.8008 6.77118 20.8032 6.7692 20.8059 6.76747C20.8149 6.76166 20.8239 6.75577 20.8323 6.7494C20.8349 6.74738 20.8373 6.74508 20.8399 6.74299C20.8479 6.73653 20.8559 6.73008 20.8634 6.72314C20.8652 6.72145 20.8667 6.71959 20.8685 6.7179C20.9825 6.60751 21.0227 6.43961 20.9693 6.29107C20.9601 6.26552 20.9483 6.24095 20.9341 6.21774C20.9113 6.18066 20.8883 6.14376 20.865 6.10703C20.4045 5.38053 19.6172 4.38308 18.3967 3.54953C17.2967 2.79839 16.0456 2.31368 14.6622 2.10089C13.4988 1.06464 11.4743 -0.110842 8.34296 0.00837943C8.07947 0.0184221 7.84174 0.146073 7.69073 0.358623C7.53987 0.571012 7.49984 0.834138 7.58084 1.08057L8.30498 3.28306C7.46038 3.72768 6.7002 4.23078 6.06626 4.69997C6.03392 4.7239 6.00669 4.75385 5.98612 4.78813C5.96556 4.82241 5.95206 4.86034 5.94641 4.89975C5.94075 4.93915 5.94305 4.97927 5.95316 5.01781C5.96327 5.05634 5.98101 5.09254 6.00535 5.12434C6.02969 5.15615 6.06016 5.18293 6.09502 5.20315C6.12988 5.22338 6.16846 5.23665 6.20854 5.24221C6.24862 5.24777 6.28942 5.24552 6.32861 5.23557C6.36781 5.22562 6.40462 5.20818 6.43696 5.18423C7.6883 4.25813 9.44747 3.19336 11.3508 2.77008L11.3661 2.76669C11.4346 2.7516 11.5032 2.73745 11.5719 2.72406C11.5862 2.72127 11.6005 2.71865 11.6148 2.71595C11.6767 2.70421 11.7387 2.69317 11.8008 2.68284C11.8227 2.67925 11.8445 2.67602 11.8664 2.67263C11.9221 2.66392 11.9779 2.65541 12.0339 2.64787C12.0635 2.64392 12.093 2.64061 12.1225 2.63702C12.1715 2.63101 12.2205 2.62488 12.2695 2.61988C12.3085 2.61589 12.3471 2.61294 12.3859 2.6096C12.4262 2.60609 12.4665 2.60217 12.5068 2.59935C12.5609 2.5956 12.6146 2.59318 12.6683 2.59072C12.6939 2.58951 12.7195 2.58766 12.745 2.58677C12.8255 2.58394 12.9055 2.58245 12.9851 2.58245C13.0489 2.58245 13.1125 2.58302 13.176 2.58411L13.1774 2.58415C13.6218 2.59189 14.0589 2.62654 14.4796 2.68744L14.4806 2.68748C14.8083 2.73466 15.1332 2.7995 15.4538 2.88172C14.8373 4.05159 14.4884 5.60151 14.4884 7.20487C14.4884 7.54233 14.5036 7.88136 14.5336 8.21253C14.5416 8.29196 14.5812 8.36505 14.6438 8.41595C14.7063 8.46684 14.7867 8.49142 14.8676 8.48434C14.9485 8.47727 15.0232 8.43911 15.0756 8.37816C15.1281 8.31721 15.1539 8.23838 15.1476 8.1588C15.119 7.84161 15.1048 7.52334 15.1048 7.20491C15.1048 5.64789 15.4492 4.15395 16.0551 3.06023C18.2014 3.78354 19.4909 5.18693 20.1669 6.16386L20.191 6.19887C20.2065 6.22157 20.2218 6.24408 20.2367 6.26626C20.2546 6.29312 20.2721 6.31966 20.2892 6.34584C20.2943 6.35378 20.2999 6.36205 20.305 6.36991C20.2786 6.38903 20.2532 6.40823 20.2288 6.42751C19.8615 6.71641 19.7024 7.01728 19.6371 7.1872C19.6042 7.27322 19.5987 7.36701 19.6212 7.45618C19.6438 7.54534 19.6933 7.62568 19.7633 7.68655C19.8006 7.7187 19.8448 7.75322 19.8942 7.78952C20.0029 7.8693 20.1398 7.95871 20.3054 8.05753C20.3003 8.06539 20.2948 8.07362 20.2896 8.08161C20.2496 8.14308 20.2087 8.20399 20.1669 8.26431C19.4903 9.2424 18.2037 10.6414 16.0639 11.3651C15.7691 10.8363 15.5295 10.2016 15.3662 9.51352C15.357 9.47475 15.3401 9.43815 15.3165 9.4058C15.2929 9.37345 15.2631 9.34599 15.2287 9.32498C15.1943 9.30397 15.1561 9.28983 15.1161 9.28336C15.0762 9.2769 15.0354 9.27823 14.9959 9.28729C14.9565 9.29634 14.9193 9.31293 14.8864 9.33612C14.8535 9.35932 14.8256 9.38865 14.8042 9.42246C14.7829 9.45626 14.7685 9.49387 14.7619 9.53314C14.7553 9.57241 14.7567 9.61257 14.7659 9.65133C14.9305 10.3447 15.1691 10.991 15.4627 11.5442C15.1322 11.6294 14.7971 11.696 14.4589 11.7439L14.4567 11.744C14.0447 11.8026 13.617 11.8361 13.1826 11.8439C13.1792 11.844 13.1758 11.8441 13.1723 11.8442C13.11 11.8452 13.0477 11.8458 12.9852 11.8458C12.9119 11.8458 12.8382 11.8442 12.7643 11.8418C12.7502 11.8414 12.736 11.8409 12.7219 11.8404C12.6461 11.8375 12.5704 11.8335 12.4948 11.8282L12.4912 11.8279C11.3339 11.7452 10.0992 11.3754 8.81308 10.7255C8.80992 10.7238 8.80656 10.7227 8.80336 10.7212C8.41871 10.5261 8.02935 10.3062 7.63556 10.0608C6.07938 9.09124 4.86364 7.97832 4.27469 7.39826L4.27445 7.39798L4.27137 7.39495L4.27125 7.39483L4.27014 7.39374C4.16961 7.29469 4.16965 7.13352 4.27125 7.03338L4.27449 7.03019L4.27461 7.03007C4.5009 6.80715 4.86659 6.46002 5.33142 6.06375C5.36276 6.03791 5.38856 6.00619 5.4073 5.97044C5.42605 5.93469 5.43738 5.89564 5.44062 5.85554C5.44386 5.81545 5.43896 5.77512 5.42619 5.73691C5.41342 5.6987 5.39305 5.66337 5.36625 5.63298C5.33946 5.60259 5.30678 5.57774 5.27013 5.5599C5.23347 5.54205 5.19357 5.53155 5.15275 5.52902C5.11193 5.52649 5.07101 5.53198 5.03236 5.54515C4.99372 5.55833 4.95813 5.57894 4.92766 5.60578C4.62145 5.86675 4.32283 6.1362 4.03217 6.41384C3.53449 6.03915 2.87659 5.57767 2.24659 5.23985C1.23872 4.69944 0.563475 4.62188 0.182317 5.00282C-0.173617 5.35851 0.0653809 6.02056 0.276119 6.4876C0.408395 6.78078 0.559332 7.05088 0.655145 7.21415C0.559332 7.37745 0.408395 7.64751 0.276119 7.94065C0.0653809 8.40761 -0.173576 9.06962 0.182317 9.42539C0.34035 9.58337 0.548914 9.6625 0.81084 9.66246C1.1806 9.66246 1.65662 9.50472 2.24659 9.18836C2.87655 8.85058 3.53449 8.3891 4.03217 8.01437C4.69096 8.6446 5.85425 9.66847 7.30567 10.5728C7.62976 10.7751 7.96111 10.9659 8.29907 11.1449L7.58093 13.3291C7.49992 13.5756 7.53995 13.8387 7.69081 14.0511C7.84183 14.2637 8.07951 14.3913 8.34304 14.4013C8.4911 14.407 8.63638 14.4097 8.77953 14.4097C11.6477 14.4096 13.5315 13.3077 14.6378 12.3308C16.035 12.1193 17.2978 11.6313 18.4066 10.8719C19.6267 10.0361 20.4126 9.03736 20.872 8.31013L20.8832 8.29226C20.903 8.2608 20.9224 8.22971 20.9409 8.19934C20.9693 8.15308 20.9879 8.10171 20.9958 8.04825C21.0036 7.99478 21.0005 7.94031 20.9866 7.88805ZM13.2833 1.98033L13.239 1.97925C13.1545 1.97732 13.0699 1.97632 12.9853 1.97622C12.9623 1.97622 12.9395 1.97719 12.9166 1.97739C12.8571 1.97796 12.7976 1.97844 12.7377 1.98046C12.7145 1.98122 12.6914 1.98288 12.6683 1.98388C12.6077 1.98647 12.5471 1.98905 12.4861 1.99308C12.4794 1.99352 12.4727 1.99425 12.4661 1.99473C11.32 2.07374 10.111 2.41132 8.86066 3.00251L8.16741 0.894031C8.15695 0.862606 8.1541 0.829213 8.15909 0.796513C8.16407 0.763813 8.17675 0.73271 8.19612 0.70568C8.21535 0.678384 8.2408 0.655879 8.27044 0.639957C8.30007 0.624035 8.33308 0.615135 8.36683 0.613965C8.5064 0.608682 8.64323 0.60606 8.77809 0.60606C10.9229 0.60606 12.4727 1.26077 13.5327 1.98909C13.4496 1.98527 13.3664 1.98235 13.2833 1.98033ZM0.626065 9.00441C0.617698 8.98033 0.564911 8.77637 0.864735 8.13126C1.05132 7.72979 1.27313 7.37753 1.2753 7.3741C1.3057 7.32605 1.32181 7.27059 1.32181 7.214C1.32181 7.15742 1.3057 7.10196 1.2753 7.05391C1.27313 7.05044 1.05394 6.70277 0.867073 6.30171C0.564788 5.65293 0.617698 5.4478 0.626106 5.42356C0.743206 5.31773 1.15755 5.34613 1.95149 5.77183C2.54285 6.08892 3.1674 6.52648 3.64465 6.88528C3.64433 6.88608 3.64412 6.88693 3.64375 6.88774C3.63731 6.90323 3.63223 6.91908 3.62677 6.93485C3.62304 6.94561 3.61865 6.95622 3.61533 6.96711C3.61041 6.98341 3.60684 6.99998 3.6029 7.01652C3.60036 7.02717 3.59712 7.03769 3.59502 7.04842C3.59154 7.06609 3.58949 7.08391 3.58711 7.1017C3.5858 7.11146 3.58379 7.12118 3.58284 7.13098C3.57977 7.16478 3.57872 7.19873 3.57968 7.23266C3.58014 7.25411 3.58075 7.27557 3.58284 7.29699C3.58399 7.30856 3.58629 7.31998 3.58789 7.33151C3.5901 7.34752 3.59187 7.36358 3.59502 7.37947C3.59744 7.39177 3.60109 7.40383 3.60405 7.41601C3.6077 7.43093 3.61082 7.44593 3.61529 7.46069C3.61902 7.47304 3.62394 7.4851 3.62825 7.49732C3.63329 7.51159 3.63784 7.52599 3.64367 7.54003C3.64404 7.54096 3.64428 7.54192 3.64469 7.54281C1.78816 8.94012 0.828149 9.18844 0.626065 9.00441ZM8.36683 13.7956C8.33308 13.7944 8.30007 13.7855 8.27044 13.7696C8.2408 13.7537 8.21535 13.7312 8.19612 13.7039C8.17675 13.6769 8.16407 13.6458 8.15909 13.6131C8.1541 13.5804 8.15695 13.547 8.16741 13.5155L8.85516 11.4237C10.0238 11.9776 11.1551 12.3091 12.2376 12.4145L12.2519 12.4159C12.4226 12.4323 12.5938 12.4431 12.7653 12.4482C12.8388 12.4504 12.9122 12.4518 12.9853 12.4518C13.0655 12.4518 13.1452 12.4507 13.2248 12.4491C13.2414 12.4488 13.2579 12.4483 13.2745 12.4479C13.348 12.4461 13.4212 12.4437 13.494 12.4405C13.4974 12.4403 13.5007 12.4403 13.5041 12.4402C12.3803 13.2042 10.7085 13.8846 8.36683 13.7956Z" fill="#828ABA"/>
<path d="M16.9149 4.08753C16.3562 4.08753 15.9016 4.53449 15.9016 5.08389C15.9016 5.6333 16.3562 6.08026 16.9149 6.08026C17.4736 6.08026 17.9282 5.6333 17.9282 5.08389C17.9282 4.53453 17.4736 4.08753 16.9149 4.08753ZM16.9149 5.47411C16.696 5.47411 16.518 5.29906 16.518 5.08389C16.518 4.86872 16.696 4.69368 16.9149 4.69368C17.1337 4.69368 17.3117 4.86872 17.3117 5.08389C17.3117 5.29906 17.1337 5.47411 16.9149 5.47411Z" fill="#828ABA"/>
</svg>
