<svg width="16" height="16" viewBox="0 0 16 16" fill="none" xmlns="http://www.w3.org/2000/svg">
<path d="M14.9545 12.4027C14.9608 12.7602 14.6747 13.0525 14.3172 13.0587C14.3141 13.0587 14.3141 13.0587 14.3109 13.0587H1.40772C1.08436 13.0556 0.813857 12.8162 0.773438 12.4959H13.5461C13.9005 12.4959 14.1897 12.2192 14.1897 11.8772V1.21572C14.1897 0.873705 13.9005 0.596985 13.5461 0.596985H13.7544C14.112 0.603203 14.4011 0.895469 14.398 1.25303L14.9545 12.4027Z" fill="#49699C"/>
<path d="M14.1904 1.21572V11.8772C14.1904 12.2192 13.9013 12.4959 13.5468 12.4959H0.643607C0.289157 12.4959 0 12.2192 0 11.8772V1.21572C0 0.873705 0.289157 0.596985 0.643607 0.596985H13.5468C13.9013 0.596985 14.1904 0.873705 14.1904 1.21572Z" fill="#F1F2F2"/>
<path d="M14.1904 1.21572V3.4699H0V1.21572C0 0.873705 0.289157 0.596985 0.643607 0.596985H1.10999V1.65412C1.1131 1.87798 1.29343 2.05831 1.5173 2.05831H1.69452C1.91838 2.05831 2.09872 1.87798 2.09872 1.65412V0.596985H3.7808V1.65412C3.78391 1.87798 3.96424 2.05831 4.18811 2.05831H4.36533C4.5892 2.05831 4.76953 1.87798 4.76953 1.65412V0.596985H6.45161V1.65412C6.45472 1.87798 6.63506 2.05831 6.85892 2.05831H7.03614C7.26001 2.05831 7.44034 1.87798 7.44034 1.65412V0.596985H9.1815V1.65412C9.1815 1.87798 9.36183 2.05831 9.5857 2.05831H9.76292C9.98679 2.05831 10.1671 1.87798 10.1671 1.65412V0.596985H11.7186V1.65412C11.7186 1.87798 11.899 2.05831 12.1228 2.05831H12.3C12.5239 2.05831 12.7042 1.87798 12.7073 1.65412V0.596985H13.5468C13.9013 0.596985 14.1904 0.873705 14.1904 1.21572Z" fill="#49699C"/>
<path d="M10.1653 0.404197V1.6541C10.1653 1.87796 9.98497 2.0583 9.76111 2.0583H9.58388C9.36002 2.0583 9.17969 1.87796 9.17969 1.6541V0.404197C9.17969 0.180334 9.36002 0 9.58388 0H9.76111C9.98497 0 10.1653 0.180334 10.1653 0.404197Z" fill="#F04930"/>
<path d="M12.7075 0.404197V1.6541C12.7044 1.87796 12.524 2.0583 12.3002 2.0583H12.1229C11.8991 2.0583 11.7188 1.87796 11.7188 1.6541V0.404197C11.7188 0.180334 11.8991 0 12.1229 0H12.3002C12.524 0 12.7044 0.180334 12.7075 0.404197Z" fill="#F04930"/>
<path d="M7.43795 0.404197V1.6541C7.43795 1.87796 7.25761 2.0583 7.03375 2.0583H6.85653C6.63266 2.0583 6.45233 1.87796 6.44922 1.6541V0.404197C6.45233 0.180334 6.63266 0 6.85653 0H7.03375C7.25761 0 7.43795 0.180334 7.43795 0.404197Z" fill="#F04930"/>
<path d="M4.76998 0.404197V1.6541C4.76998 1.87796 4.58964 2.0583 4.36578 2.0583H4.18856C3.96469 2.0583 3.78436 1.87796 3.78125 1.6541V0.404197C3.78436 0.180334 3.96469 0 4.18856 0H4.36578C4.58964 0 4.76998 0.180334 4.76998 0.404197Z" fill="#F04930"/>
<path d="M2.0981 0.404197V1.6541C2.0981 1.87796 1.91777 2.0583 1.69391 2.0583H1.51668C1.29282 2.0583 1.11248 1.87796 1.10938 1.6541V0.404197C1.11248 0.180334 1.29282 0 1.51668 0H1.69391C1.91777 0 2.0981 0.180334 2.0981 0.404197Z" fill="#F04930"/>
<path d="M3.05078 5.17993H5.02202V7.14806H3.05078V5.17993Z" fill="#F04930"/>
<path d="M6.95312 8.89856H8.92437V10.8667H6.95312V8.89856Z" fill="#F04930"/>
<path d="M13.0574 4.99963H2.90275V6.8434H1.13672V10.9662H11.0738V9.20951H13.0574V4.99963ZM12.6843 6.8434H11.0738V5.37274H12.6843V6.8434ZM6.83279 6.8434H5.21911V5.37274H6.83279V6.8434ZM7.2059 5.37274H8.77916V6.8434H7.2059V5.37274ZM6.83279 7.2165V8.8364H5.21911V7.2165H6.83279ZM4.84601 8.8364H3.27586V7.2165H4.84601V8.8364ZM4.84601 9.20951V10.5931H3.27586V9.20951H4.84601ZM5.21911 9.20951H6.83279V10.5931H5.21911V9.20951ZM7.2059 9.20951H8.77916V10.5931H7.2059V9.20951ZM7.2059 8.8364V7.2165H8.77916V8.8364H7.2059ZM9.15226 7.2165H10.7007V8.8364H9.15226V7.2165ZM9.15226 6.8434V5.37274H10.7007V6.8434H9.15226ZM3.27586 5.37274H4.84601V6.8434H3.27586V5.37274ZM2.90275 7.2165V8.8364H1.50982V7.2165H2.90275ZM1.50982 9.20951H2.90275V10.5931H1.50982V9.20951ZM10.7007 10.5931H9.15226V9.20951H10.7007V10.5931ZM11.0738 8.8364V7.2165H12.6843V8.8364H11.0738Z" fill="#5E5E5E"/>
<path d="M12.6337 15.6735C14.4917 15.6735 15.9979 14.1673 15.9979 12.3094C15.9979 10.4514 14.4917 8.94519 12.6337 8.94519C10.7757 8.94519 9.26953 10.4514 9.26953 12.3094C9.26953 14.1673 10.7757 15.6735 12.6337 15.6735Z" fill="#FFBB26"/>
<path d="M15.9991 12.3094C15.996 14.1687 14.4881 15.6735 12.6287 15.6735C11.2669 15.6704 10.0419 14.8496 9.51953 13.5904C11.4099 14.1904 13.4309 13.1457 14.0341 11.2522C14.2393 10.6117 14.258 9.92461 14.0901 9.27478C15.256 9.83444 15.9991 11.0159 15.9991 12.3094Z" fill="#F2B10C"/>
<path d="M10.6935 11.4357L10.3359 11.33C10.4945 10.7983 10.849 10.3475 11.3278 10.0676L11.5174 10.3879C11.1195 10.6211 10.8272 10.9942 10.6935 11.4357Z" fill="#F1F2F2"/>
<path d="M14.3878 14.1407L14.1484 13.8577C14.4687 13.5872 14.6863 13.2141 14.761 12.8006L15.1278 12.869C15.0346 13.3665 14.7734 13.8142 14.3878 14.1407Z" fill="#F1F2F2"/>
<path d="M13.7792 12.9312C13.7823 12.3871 13.2071 12.2472 12.75 12.1352C12.293 12.0233 12.0225 11.9456 11.9883 11.7373C11.9665 11.6347 11.9945 11.5289 12.0629 11.4512C12.1655 11.3268 12.3521 11.2647 12.5946 11.2647C12.778 11.2647 13.0299 11.3175 13.1698 11.4637C13.2631 11.5569 13.3035 11.6813 13.3004 11.8461L13.7326 11.8616C13.7419 11.5756 13.6548 11.3455 13.4838 11.1652C13.3128 10.9848 13.0516 10.8916 12.8589 10.8605V10.4843H12.4298V10.8449C12.1344 10.876 11.895 10.9911 11.7364 11.1745C11.5841 11.3486 11.5219 11.5849 11.5654 11.8119C11.6525 12.3156 12.1842 12.4431 12.6537 12.5581C13.1232 12.6731 13.3532 12.7415 13.3501 12.9312C13.347 13.1209 13.2693 13.4038 12.635 13.4162C12.4111 13.4225 12.2308 13.3603 12.1096 13.2421C12.0101 13.1395 11.951 13.0058 11.9479 12.8628H11.5157C11.5126 13.1209 11.6183 13.3696 11.8048 13.5468C11.9727 13.7085 12.1873 13.8111 12.4174 13.836V14.1158H12.8464V13.8329C13.6517 13.7427 13.7761 13.239 13.7792 12.9312Z" fill="#5E5E5E"/>
</svg>
