<svg width="27" height="21" viewBox="0 0 27 21" fill="none" xmlns="http://www.w3.org/2000/svg">
<path d="M24.3104 11.6027V0.552509C24.3104 0.405975 24.2522 0.265442 24.1486 0.161826C24.045 0.0582107 23.9044 0 23.7579 0H8.28764C8.1411 0 8.00057 0.0582107 7.89696 0.161826C7.79334 0.265442 7.73513 0.405975 7.73513 0.552509V9.58051C6.88427 9.52526 6.69089 9.58051 4.42007 9.87334V9.39266C4.42007 9.24612 4.36186 9.10559 4.25825 9.00197C4.15463 8.89836 4.0141 8.84015 3.86756 8.84015H0.552509C0.405975 8.84015 0.265442 8.89836 0.161826 9.00197C0.0582106 9.10559 0 9.24612 0 9.39266L0 18.7853C0 18.9318 0.0582106 19.0724 0.161826 19.176C0.265442 19.2796 0.405975 19.3378 0.552509 19.3378H3.86756C4.0141 19.3378 4.15463 19.2796 4.25825 19.176C4.36186 19.0724 4.42007 18.9318 4.42007 18.7853V18.2328C6.37596 18.2328 5.35381 17.9621 10.8458 20.4428C11.7275 20.8432 12.6904 21.0324 13.658 20.9954C15.5918 20.9954 15.6747 20.708 25.3215 15.7797C25.7632 15.5534 26.1159 15.185 26.3227 14.7339C26.5296 14.2828 26.5786 13.7751 26.4618 13.2928C26.3451 12.8104 26.0693 12.3814 25.6791 12.0748C25.2888 11.7682 24.8067 11.6019 24.3104 11.6027ZM17.6803 1.10502V2.9725C15.6802 1.97246 16.3598 1.97798 14.3652 2.9725V1.10502H17.6803ZM8.84015 1.10502H13.2602V3.86756C13.2605 3.96175 13.2849 4.05429 13.331 4.13642C13.3771 4.21854 13.4434 4.28751 13.5237 4.33678C13.604 4.38604 13.6955 4.41398 13.7896 4.41792C13.8837 4.42186 13.9773 4.40168 14.0614 4.3593L16.0228 3.38136C18.1057 4.42007 18.172 4.55268 18.5256 4.3372C18.8792 4.12172 18.7853 4.07752 18.7853 1.10502H23.2054V11.8955L17.1278 15.0006C17.1375 14.7189 17.0944 14.4378 17.0007 14.1719C16.5753 13.0171 16.2548 13.1 9.94517 10.1275C9.58917 9.96853 9.21926 9.84277 8.84015 9.75179V1.10502ZM3.31506 18.2328H1.10502V9.94517H3.31506V18.2328ZM24.8187 14.7962C15.1498 19.7356 15.2272 19.8903 13.658 19.8903C12.8496 19.93 12.0433 19.7786 11.3043 19.4483C5.71295 16.9123 6.63011 17.1278 4.42007 17.1278V10.9839C8.9617 10.4314 7.42573 10.1717 15.3874 13.9122C15.5196 13.9743 15.6382 14.0621 15.7363 14.1704C15.8343 14.2787 15.91 14.4053 15.9588 14.543C16.0076 14.6807 16.0286 14.8267 16.0206 14.9726C16.0127 15.1185 15.9758 15.2614 15.9123 15.3929C15.8526 15.5255 15.7673 15.6449 15.6614 15.7445C15.5554 15.844 15.4309 15.9217 15.2948 15.973C15.1588 16.0243 15.014 16.0483 14.8687 16.0436C14.7234 16.0388 14.5805 16.0055 14.4481 15.9454L10.0888 13.868C9.95878 13.8169 9.81423 13.817 9.68426 13.8682C9.55428 13.9194 9.44854 14.018 9.38831 14.1441C9.32808 14.2701 9.31785 14.4143 9.35966 14.5476C9.40147 14.6809 9.49223 14.7934 9.61366 14.8625L13.973 16.9123C14.3173 17.0789 14.6996 17.1513 15.081 17.1222C15.4624 17.0931 15.8293 16.9635 16.1443 16.7466L23.8021 12.8293C23.9313 12.7625 24.0723 12.7219 24.2171 12.7096C24.362 12.6974 24.5079 12.7138 24.6464 12.7579C24.7849 12.802 24.9134 12.873 25.0245 12.9668C25.1356 13.0605 25.2271 13.1753 25.2939 13.3044C25.3606 13.4336 25.4013 13.5746 25.4135 13.7195C25.4258 13.8643 25.4094 14.0102 25.3653 14.1487C25.3211 14.2872 25.2502 14.4157 25.1564 14.5268C25.0626 14.6379 24.9479 14.7294 24.8187 14.7962Z" fill="white"/>
<path d="M19.3392 11.0502H21.5492C21.6957 11.0502 21.8363 10.992 21.9399 10.8884C22.0435 10.7847 22.1017 10.6442 22.1017 10.4977C22.1017 10.3511 22.0435 10.2106 21.9399 10.107C21.8363 10.0034 21.6957 9.94517 21.5492 9.94517H19.3392C19.1926 9.94517 19.0521 10.0034 18.9485 10.107C18.8449 10.2106 18.7866 10.3511 18.7866 10.4977C18.7866 10.6442 18.8449 10.7847 18.9485 10.8884C19.0521 10.992 19.1926 11.0502 19.3392 11.0502Z" fill="white"/>
</svg>
