<svg width="22" height="18" viewBox="0 0 22 18" fill="none" xmlns="http://www.w3.org/2000/svg">
<path d="M12.019 11.2558H10.9958C10.5762 11.2558 10.2283 10.9723 10.2283 10.6305C10.2283 10.2886 10.5762 10.0052 10.9958 10.0052H12.019C12.7251 10.0052 13.2981 9.53826 13.2981 8.96296V1.25065H4.85624C3.6488 1.25065 2.54365 1.78424 1.95017 2.64302C1.74552 2.94317 1.27486 3.05159 0.906488 2.88484C0.538116 2.71809 0.405053 2.33454 0.609704 2.03439C1.46924 0.78374 3.09624 0 4.85624 0H14.0655C14.4851 0 14.833 0.28348 14.833 0.625323V8.96296C14.833 10.2303 13.5744 11.2558 12.019 11.2558Z" fill="#292D32"/>
<path d="M18.1628 16.2585H17.1395C16.72 16.2585 16.3721 15.9751 16.3721 15.6332C16.3721 15.0579 15.7991 14.591 15.093 14.591C14.387 14.591 13.814 15.0579 13.814 15.6332C13.814 15.9751 13.466 16.2585 13.0465 16.2585H8.95349C8.53395 16.2585 8.18604 15.9751 8.18604 15.6332C8.18604 15.0579 7.61302 14.591 6.90698 14.591C6.20093 14.591 5.62791 15.0579 5.62791 15.6332C5.62791 15.9751 5.28 16.2585 4.86046 16.2585H3.83721C1.71907 16.2585 0 14.8578 0 13.1319C0 12.7901 0.347907 12.5066 0.767442 12.5066C1.18698 12.5066 1.53488 12.7901 1.53488 13.1319C1.53488 14.1658 2.56837 15.0079 3.83721 15.0079H4.19532C4.533 14.0491 5.61767 13.3404 6.90698 13.3404C8.19628 13.3404 9.28095 14.0491 9.61863 15.0079H12.3916C12.7293 14.0491 13.814 13.3404 15.1033 13.3404C16.3926 13.3404 17.4772 14.0491 17.8149 15.0079H18.1628C19.4316 15.0079 20.4651 14.1658 20.4651 13.1319V11.256H18.1628C17.1805 11.256 16.3721 10.5973 16.3721 9.79687V7.29557C16.3721 6.49516 17.1702 5.83649 18.1628 5.83649L17.0679 4.27735C16.8428 3.95218 16.413 3.75208 15.9526 3.75208H14.8372V8.9631C14.8372 10.2304 13.5786 11.256 12.0233 11.256H11C10.5805 11.256 10.2326 10.9725 10.2326 10.6306C10.2326 10.2888 10.5805 10.0053 11 10.0053H12.0233C12.7293 10.0053 13.3023 9.5384 13.3023 8.9631V3.12675C13.3023 2.78491 13.6502 2.50143 14.0698 2.50143H15.9526C16.9656 2.50143 17.8967 2.94334 18.3981 3.66037L20.1479 6.15332C20.2809 6.34509 20.2809 6.58688 20.1479 6.77864C20.0149 6.97041 19.759 7.08713 19.4828 7.08713H18.1628C18.0195 7.08713 17.907 7.17885 17.907 7.29557V9.79687C17.907 9.91359 18.0195 10.0053 18.1628 10.0053H21.2326C21.6521 10.0053 22 10.2888 22 10.6306V13.1319C22 14.8578 20.2809 16.2585 18.1628 16.2585Z" fill="#292D32"/>
<path d="M6.90398 17.926C5.34863 17.926 4.09003 16.9005 4.09003 15.6331C4.09003 14.3658 5.34863 13.3403 6.90398 13.3403C8.45933 13.3403 9.71793 14.3658 9.71793 15.6331C9.71793 16.9005 8.45933 17.926 6.90398 17.926ZM6.90398 14.5909C6.19793 14.5909 5.62491 15.0579 5.62491 15.6331C5.62491 16.2084 6.19793 16.6754 6.90398 16.6754C7.61003 16.6754 8.18305 16.2084 8.18305 15.6331C8.18305 15.0579 7.61003 14.5909 6.90398 14.5909Z" fill="#292D32"/>
<path d="M15.093 17.926C13.5377 17.926 12.2791 16.9005 12.2791 15.6331C12.2791 14.3658 13.5377 13.3403 15.093 13.3403C16.6484 13.3403 17.907 14.3658 17.907 15.6331C17.907 16.9005 16.6484 17.926 15.093 17.926ZM15.093 14.5909C14.387 14.5909 13.814 15.0579 13.814 15.6331C13.814 16.2084 14.387 16.6754 15.093 16.6754C15.7991 16.6754 16.3721 16.2084 16.3721 15.6331C16.3721 15.0579 15.7991 14.5909 15.093 14.5909Z" fill="#292D32"/>
<path d="M21.2296 11.2562H18.1598C17.1775 11.2562 16.3691 10.5975 16.3691 9.79713V7.29584C16.3691 6.49543 17.1775 5.83676 18.1598 5.83676H19.4798C19.7561 5.83676 20.0119 5.95349 20.1449 6.15359L21.8947 8.65488C21.9561 8.7466 21.997 8.85498 21.997 8.96337V10.6309C21.997 10.9727 21.6491 11.2562 21.2296 11.2562ZM18.1598 7.0874C18.0165 7.0874 17.904 7.17912 17.904 7.29584V9.79713C17.904 9.91386 18.0165 10.0056 18.1598 10.0056H20.4621V9.13013L19.0295 7.0874H18.1598Z" fill="#292D32"/>
<path d="M6.90698 6.25326H0.767442C0.347907 6.25326 0 5.96978 0 5.62793C0 5.28609 0.347907 5.00261 0.767442 5.00261H6.90698C7.32651 5.00261 7.67442 5.28609 7.67442 5.62793C7.67442 5.96978 7.32651 6.25326 6.90698 6.25326Z" fill="#292D32"/>
<path d="M4.86047 8.75419H0.767442C0.347907 8.75419 0 8.47071 0 8.12887C0 7.78702 0.347907 7.50354 0.767442 7.50354H4.86047C5.28 7.50354 5.62791 7.78702 5.62791 8.12887C5.62791 8.47071 5.28 8.75419 4.86047 8.75419Z" fill="#292D32"/>
<path d="M2.81395 11.2554H0.767442C0.347907 11.2554 0 10.9719 0 10.63C0 10.2882 0.347907 10.0047 0.767442 10.0047H2.81395C3.23349 10.0047 3.58139 10.2882 3.58139 10.63C3.58139 10.9719 3.23349 11.2554 2.81395 11.2554Z" fill="#292D32"/>
</svg>
