<svg width="30" height="35" viewBox="0 0 30 35" fill="none" xmlns="http://www.w3.org/2000/svg">
<path d="M29.5172 5.48285C27.1404 3.10608 24.1122 1.48748 20.8155 0.83173C17.5189 0.17598 14.1018 0.512534 10.9964 1.79883C7.89097 3.08513 5.23674 5.2634 3.36932 8.05818C1.50191 10.853 0.50518 14.1387 0.50518 17.5C0.505179 20.8613 1.50191 24.147 3.36932 26.9418C5.23674 29.7366 7.89097 31.9149 10.9964 33.2012C14.1018 34.4875 17.5189 34.824 20.8155 34.1683C24.1122 33.5125 27.1404 31.8939 29.5172 29.5172" stroke="#DD3F61"/>
<path d="M25.044 17.1079L25.5491 17.1079L25.5491 18.118L25.044 18.118L25.044 17.1079ZM10.1338 17.9701C9.93655 17.7728 9.93655 17.4531 10.1338 17.2558L13.3481 14.0415C13.5453 13.8443 13.8651 13.8443 14.0623 14.0415C14.2596 14.2388 14.2596 14.5586 14.0623 14.7558L11.2052 17.6129L14.0623 20.4701C14.2596 20.6673 14.2596 20.9871 14.0623 21.1844C13.8651 21.3816 13.5453 21.3816 13.3481 21.1844L10.1338 17.9701ZM25.044 18.118L10.4909 18.118L10.4909 17.1079L25.044 17.1079L25.044 18.118Z" fill="#DD3F61"/>
</svg>
