<svg width="32" height="32" viewBox="0 0 32 32" fill="none" xmlns="http://www.w3.org/2000/svg">
<path d="M16 0C12.8355 0 9.74207 0.938383 7.11088 2.69649C4.4797 4.45459 2.42894 6.95345 1.21793 9.87706C0.00693266 12.8007 -0.309921 16.0177 0.307443 19.1214C0.924806 22.2251 2.44866 25.0761 4.6863 27.3137C6.92394 29.5513 9.77486 31.0752 12.8786 31.6926C15.9823 32.3099 19.1993 31.9931 22.1229 30.7821C25.0466 29.5711 27.5454 27.5203 29.3035 24.8891C31.0616 22.2579 32 19.1645 32 16C31.9957 11.7579 30.3086 7.6907 27.3089 4.69105C24.3093 1.6914 20.2421 0.00430747 16 0ZM16 30.3729C13.1573 30.3729 10.3785 29.5299 8.01486 27.9506C5.65125 26.3713 3.80904 24.1266 2.7212 21.5003C1.63335 18.874 1.34872 15.9841 1.9033 13.196C2.45788 10.4079 3.82676 7.84692 5.83684 5.83684C7.84693 3.82675 10.4079 2.45787 13.196 1.90329C15.9841 1.34871 18.874 1.63334 21.5003 2.72119C24.1266 3.80904 26.3713 5.65125 27.9506 8.01485C29.5299 10.3785 30.3729 13.1573 30.3729 16C30.3686 19.8106 28.8529 23.4639 26.1584 26.1584C23.4639 28.8529 19.8106 30.3686 16 30.3729Z" fill="black"/>
<path d="M15.9993 12.4146C15.3524 12.416 14.7324 12.6736 14.275 13.131C13.8176 13.5884 13.56 14.2084 13.5586 14.8552V22.7576C13.5586 23.4049 13.8157 24.0257 14.2735 24.4834C14.7312 24.9411 15.352 25.1983 15.9993 25.1983C16.6466 25.1983 17.2674 24.9411 17.7251 24.4834C18.1828 24.0257 18.4399 23.4049 18.4399 22.7576V14.8552C18.4385 14.2084 18.1809 13.5884 17.7235 13.131C17.2661 12.6736 16.6461 12.416 15.9993 12.4146ZM16.8128 22.7576C16.8128 22.9734 16.7271 23.1803 16.5745 23.3329C16.422 23.4854 16.215 23.5712 15.9993 23.5712C15.7835 23.5712 15.5766 23.4854 15.424 23.3329C15.2714 23.1803 15.1857 22.9734 15.1857 22.7576V14.8552C15.1857 14.6395 15.2714 14.4325 15.424 14.28C15.5766 14.1274 15.7835 14.0417 15.9993 14.0417C16.215 14.0417 16.422 14.1274 16.5745 14.28C16.7271 14.4325 16.8128 14.6395 16.8128 14.8552V22.7576Z" fill="black"/>
<path d="M15.9993 6.77979C15.5166 6.77979 15.0447 6.92293 14.6433 7.19111C14.2419 7.4593 13.9291 7.84048 13.7444 8.28646C13.5597 8.73243 13.5113 9.22317 13.6055 9.69661C13.6997 10.1701 13.9321 10.6049 14.2735 10.9463C14.6148 11.2876 15.0497 11.5201 15.5231 11.6142C15.9966 11.7084 16.4873 11.6601 16.9333 11.4754C17.3793 11.2906 17.7604 10.9778 18.0286 10.5764C18.2968 10.1751 18.4399 9.70318 18.4399 9.22046C18.4399 8.57315 18.1828 7.95236 17.7251 7.49464C17.2674 7.03693 16.6466 6.77979 15.9993 6.77979ZM15.9993 10.034C15.8384 10.034 15.6811 9.98631 15.5473 9.89691C15.4135 9.80752 15.3092 9.68046 15.2476 9.5318C15.1861 9.38314 15.17 9.21956 15.2013 9.06175C15.2327 8.90393 15.3102 8.75897 15.424 8.64519C15.5378 8.53141 15.6827 8.45393 15.8406 8.42254C15.9984 8.39114 16.1619 8.40726 16.3106 8.46883C16.4593 8.53041 16.5863 8.63468 16.6757 8.76847C16.7651 8.90226 16.8128 9.05956 16.8128 9.22046C16.8128 9.43623 16.7271 9.64316 16.5745 9.79574C16.422 9.94831 16.215 10.034 15.9993 10.034Z" fill="black"/>
</svg>
