<svg width="28" height="28" viewBox="0 0 28 28" fill="none" xmlns="http://www.w3.org/2000/svg">
<g clip-path="url(#clip0_60_7399)">
<path d="M17.5593 5.83237C18.6988 6.05466 19.7461 6.61187 20.5671 7.43269C21.388 8.25351 21.9453 9.30059 22.1676 10.4399M17.5593 1.1665C19.9268 1.42947 22.1345 2.48948 23.8199 4.1725C25.5054 5.85551 26.5683 8.0615 26.8343 10.4283M25.6676 19.7367V23.2361C25.669 23.5609 25.6024 23.8825 25.4722 24.1801C25.3421 24.4778 25.1512 24.745 24.9117 24.9646C24.6723 25.1842 24.3897 25.3514 24.0819 25.4555C23.7741 25.5596 23.4479 25.5982 23.1243 25.569C19.5343 25.179 16.0858 23.9524 13.056 21.9879C10.2371 20.197 7.84721 17.8075 6.05598 14.9891C4.08429 11.9461 2.85726 8.48141 2.47431 4.87587C2.44516 4.5533 2.4835 4.2282 2.5869 3.92126C2.69029 3.61432 2.85648 3.33227 3.07487 3.09307C3.29327 2.85386 3.55909 2.66274 3.8554 2.53188C4.15172 2.40102 4.47204 2.33328 4.79598 2.33297H8.29598C8.86217 2.3274 9.41107 2.52786 9.84037 2.897C10.2697 3.26613 10.5501 3.77874 10.6293 4.33929C10.777 5.45918 11.051 6.55876 11.446 7.61707C11.6029 8.03457 11.6369 8.48832 11.5439 8.92454C11.4508 9.36075 11.2347 9.76116 10.921 10.0783L9.43931 11.5597C11.1001 14.48 13.5185 16.898 16.4393 18.5585L17.921 17.0771C18.2382 16.7635 18.6387 16.5474 19.075 16.4543C19.5112 16.3613 19.9651 16.3953 20.3826 16.5522C21.4411 16.9471 22.5409 17.221 23.661 17.3687C24.2277 17.4487 24.7453 17.7341 25.1153 18.1707C25.4853 18.6073 25.6818 19.1646 25.6676 19.7367Z" stroke="#DD3F61" stroke-width="1.5" stroke-linecap="round" stroke-linejoin="round"/>
</g>
<defs>
<clipPath id="clip0_60_7399">
<rect width="28" height="27.9952" fill="white"/>
</clipPath>
</defs>
</svg>
