<svg width="16" height="16" viewBox="0 0 16 16" fill="none" xmlns="http://www.w3.org/2000/svg">
<path d="M14.9545 12.4026C14.9608 12.7602 14.6747 13.0524 14.3172 13.0586C14.3141 13.0586 14.3141 13.0586 14.3109 13.0586H1.40772C1.08436 13.0555 0.813857 12.8161 0.773438 12.4959H13.5461C13.9005 12.4959 14.1897 12.2192 14.1897 11.8771V1.21566C14.1897 0.873644 13.9005 0.596924 13.5461 0.596924H13.7544C14.112 0.603142 14.4011 0.895408 14.398 1.25297L14.9545 12.4026Z" fill="#49699C"/>
<path d="M14.1904 1.21566V11.8771C14.1904 12.2192 13.9013 12.4959 13.5468 12.4959H0.643607C0.289157 12.4959 0 12.2192 0 11.8771V1.21566C0 0.873644 0.289157 0.596924 0.643607 0.596924H13.5468C13.9013 0.596924 14.1904 0.873644 14.1904 1.21566Z" fill="#F1F2F2"/>
<path d="M14.1904 1.21566V3.46983H0V1.21566C0 0.873644 0.289157 0.596924 0.643607 0.596924H1.10999V1.65406C1.1131 1.87792 1.29343 2.05825 1.5173 2.05825H1.69452C1.91838 2.05825 2.09872 1.87792 2.09872 1.65406V0.596924H3.7808V1.65406C3.78391 1.87792 3.96424 2.05825 4.18811 2.05825H4.36533C4.5892 2.05825 4.76953 1.87792 4.76953 1.65406V0.596924H6.45161V1.65406C6.45472 1.87792 6.63506 2.05825 6.85892 2.05825H7.03614C7.26001 2.05825 7.44034 1.87792 7.44034 1.65406V0.596924H9.1815V1.65406C9.1815 1.87792 9.36183 2.05825 9.5857 2.05825H9.76292C9.98679 2.05825 10.1671 1.87792 10.1671 1.65406V0.596924H11.7186V1.65406C11.7186 1.87792 11.899 2.05825 12.1228 2.05825H12.3C12.5239 2.05825 12.7042 1.87792 12.7073 1.65406V0.596924H13.5468C13.9013 0.596924 14.1904 0.873644 14.1904 1.21566Z" fill="#49699C"/>
<path d="M10.1653 0.404197V1.6541C10.1653 1.87796 9.98497 2.0583 9.76111 2.0583H9.58388C9.36002 2.0583 9.17969 1.87796 9.17969 1.6541V0.404197C9.17969 0.180334 9.36002 0 9.58388 0H9.76111C9.98497 0 10.1653 0.180334 10.1653 0.404197Z" fill="#F04930"/>
<path d="M12.7075 0.404197V1.6541C12.7044 1.87796 12.524 2.0583 12.3002 2.0583H12.1229C11.8991 2.0583 11.7188 1.87796 11.7188 1.6541V0.404197C11.7188 0.180334 11.8991 0 12.1229 0H12.3002C12.524 0 12.7044 0.180334 12.7075 0.404197Z" fill="#F04930"/>
<path d="M7.43795 0.404197V1.6541C7.43795 1.87796 7.25761 2.0583 7.03375 2.0583H6.85653C6.63266 2.0583 6.45233 1.87796 6.44922 1.6541V0.404197C6.45233 0.180334 6.63266 0 6.85653 0H7.03375C7.25761 0 7.43795 0.180334 7.43795 0.404197Z" fill="#F04930"/>
<path d="M4.76998 0.404197V1.6541C4.76998 1.87796 4.58964 2.0583 4.36578 2.0583H4.18856C3.96469 2.0583 3.78436 1.87796 3.78125 1.6541V0.404197C3.78436 0.180334 3.96469 0 4.18856 0H4.36578C4.58964 0 4.76998 0.180334 4.76998 0.404197Z" fill="#F04930"/>
<path d="M2.0981 0.404197V1.6541C2.0981 1.87796 1.91777 2.0583 1.69391 2.0583H1.51668C1.29282 2.0583 1.11248 1.87796 1.10938 1.6541V0.404197C1.11248 0.180334 1.29282 0 1.51668 0H1.69391C1.91777 0 2.0981 0.180334 2.0981 0.404197Z" fill="#F04930"/>
<path d="M3.05078 5.17993H5.02202V7.14806H3.05078V5.17993Z" fill="#F04930"/>
<path d="M6.95312 8.89868H8.92437V10.8668H6.95312V8.89868Z" fill="#F04930"/>
<path d="M13.0574 4.99951H2.90275V6.84327H1.13672V10.9661H11.0738V9.20938H13.0574V4.99951ZM12.6843 6.84327H11.0738V5.37262H12.6843V6.84327ZM6.83279 6.84327H5.21911V5.37262H6.83279V6.84327ZM7.2059 5.37262H8.77916V6.84327H7.2059V5.37262ZM6.83279 7.21638V8.83628H5.21911V7.21638H6.83279ZM4.84601 8.83628H3.27586V7.21638H4.84601V8.83628ZM4.84601 9.20938V10.593H3.27586V9.20938H4.84601ZM5.21911 9.20938H6.83279V10.593H5.21911V9.20938ZM7.2059 9.20938H8.77916V10.593H7.2059V9.20938ZM7.2059 8.83628V7.21638H8.77916V8.83628H7.2059ZM9.15226 7.21638H10.7007V8.83628H9.15226V7.21638ZM9.15226 6.84327V5.37262H10.7007V6.84327H9.15226ZM3.27586 5.37262H4.84601V6.84327H3.27586V5.37262ZM2.90275 7.21638V8.83628H1.50982V7.21638H2.90275ZM1.50982 9.20938H2.90275V10.593H1.50982V9.20938ZM10.7007 10.593H9.15226V9.20938H10.7007V10.593ZM11.0738 8.83628V7.21638H12.6843V8.83628H11.0738Z" fill="#5E5E5E"/>
<path d="M12.6337 15.6736C14.4917 15.6736 15.9979 14.1675 15.9979 12.3095C15.9979 10.4515 14.4917 8.94531 12.6337 8.94531C10.7757 8.94531 9.26953 10.4515 9.26953 12.3095C9.26953 14.1675 10.7757 15.6736 12.6337 15.6736Z" fill="#FFBB26"/>
<path d="M15.9991 12.3092C15.996 14.1686 14.4881 15.6734 12.6287 15.6734C11.2669 15.6703 10.0419 14.8495 9.51953 13.5902C11.4099 14.1903 13.4309 13.1456 14.0341 11.2521C14.2393 10.6116 14.258 9.92448 14.0901 9.27466C15.256 9.83432 15.9991 11.0158 15.9991 12.3092Z" fill="#F2B10C"/>
<path d="M10.6935 11.4357L10.3359 11.33C10.4945 10.7983 10.849 10.3475 11.3278 10.0676L11.5174 10.3879C11.1195 10.6211 10.8272 10.9942 10.6935 11.4357Z" fill="#F1F2F2"/>
<path d="M14.3878 14.1406L14.1484 13.8577C14.4687 13.5872 14.6863 13.2141 14.761 12.8005L15.1278 12.8689C15.0346 13.3664 14.7734 13.8141 14.3878 14.1406Z" fill="#F1F2F2"/>
<path d="M13.7792 12.9313C13.7823 12.3872 13.2071 12.2473 12.75 12.1354C12.293 12.0234 12.0225 11.9457 11.9883 11.7374C11.9665 11.6348 11.9945 11.5291 12.0629 11.4513C12.1655 11.327 12.3521 11.2648 12.5946 11.2648C12.778 11.2648 13.0299 11.3176 13.1698 11.4638C13.2631 11.5571 13.3035 11.6814 13.3004 11.8462L13.7326 11.8618C13.7419 11.5757 13.6548 11.3456 13.4838 11.1653C13.3128 10.985 13.0516 10.8917 12.8589 10.8606V10.4844H12.4298V10.845C12.1344 10.8761 11.895 10.9912 11.7364 11.1746C11.5841 11.3487 11.5219 11.585 11.5654 11.812C11.6525 12.3157 12.1842 12.4432 12.6537 12.5582C13.1232 12.6733 13.3532 12.7417 13.3501 12.9313C13.347 13.121 13.2693 13.4039 12.635 13.4164C12.4111 13.4226 12.2308 13.3604 12.1096 13.2422C12.0101 13.1396 11.951 13.0059 11.9479 12.8629H11.5157C11.5126 13.121 11.6183 13.3697 11.8048 13.5469C11.9727 13.7086 12.1873 13.8112 12.4174 13.8361V14.1159H12.8464V13.833C13.6517 13.7428 13.7761 13.2391 13.7792 12.9313Z" fill="#5E5E5E"/>
</svg>
