<svg width="21" height="13" viewBox="0 0 21 13" fill="none" xmlns="http://www.w3.org/2000/svg">
<path d="M20.8026 7.34742L19.1219 3.65009C18.9826 3.34457 18.7584 3.0855 18.4761 2.90369C18.1938 2.72187 17.8652 2.62497 17.5294 2.62449H1.31499C1.19898 2.62449 1.08772 2.67057 1.00568 2.75261C0.923649 2.83464 0.877563 2.9459 0.877563 3.06192V7.87346H1.53368C1.59148 7.8729 1.64882 7.8838 1.70238 7.90553C1.75594 7.92727 1.80466 7.9594 1.84573 8.00007C1.8868 8.04074 1.9194 8.08915 1.94164 8.1425C1.96389 8.19584 1.97535 8.25307 1.97535 8.31087C1.97535 8.36867 1.96389 8.4259 1.94164 8.47924C1.9194 8.53259 1.8868 8.581 1.84573 8.62167C1.80466 8.66234 1.75594 8.69448 1.70238 8.71621C1.64882 8.73794 1.59148 8.74884 1.53368 8.74828H0.877563V10.0605C0.877943 10.4084 1.01632 10.742 1.26233 10.988C1.50834 11.234 1.84189 11.3724 2.18981 11.3728H19.6864C20.0343 11.3724 20.3679 11.234 20.6139 10.988C20.8599 10.742 20.9983 10.4084 20.9986 10.0605V8.25245C20.9991 7.94019 20.9322 7.63149 20.8026 7.34742Z" fill="#00CF66"/>
<path d="M0.877563 9.62314V10.0606C0.877943 10.4085 1.01632 10.742 1.26233 10.988C1.50834 11.2341 1.84189 11.3724 2.18981 11.3728H19.6864C20.0343 11.3724 20.3679 11.2341 20.6139 10.988C20.8599 10.742 20.9983 10.4085 20.9986 10.0606V9.62314H0.877563Z" fill="#00B157"/>
<path d="M20.1252 8.74828H21V8.25245C20.9991 8.12533 20.9872 7.99851 20.9643 7.87346H20.1252C20.0092 7.87346 19.8979 7.91955 19.8159 8.00158C19.7338 8.08362 19.6878 8.19488 19.6878 8.31089C19.6878 8.4269 19.7339 8.53815 19.8159 8.62017C19.8979 8.7022 20.0092 8.74828 20.1252 8.74828Z" fill="#FAC100"/>
<path d="M17.7313 4.37417H15.7497C15.6337 4.37417 15.5224 4.42025 15.4404 4.50229C15.3583 4.58432 15.3122 4.69558 15.3122 4.81159V6.56123C15.3122 6.67724 15.3583 6.7885 15.4404 6.87053C15.5224 6.95257 15.6337 6.99865 15.7497 6.99865H18.8083C18.8815 6.99865 18.9535 6.98029 19.0177 6.94524C19.082 6.91019 19.1364 6.85958 19.176 6.79805C19.2157 6.73651 19.2392 6.66601 19.2445 6.59301C19.2499 6.52002 19.2368 6.44685 19.2065 6.38022L18.5277 4.88697C18.4582 4.73405 18.3462 4.60439 18.2049 4.51345C18.0637 4.42252 17.8993 4.37416 17.7313 4.37417Z" fill="#EAEFF0"/>
<path d="M19.1257 6.20265C19.0855 6.24675 19.0364 6.28196 18.9817 6.30604C18.9271 6.33012 18.868 6.34253 18.8083 6.34248H15.7497C15.6337 6.34248 15.5224 6.2964 15.4404 6.21438C15.3583 6.13235 15.3123 6.0211 15.3122 5.9051V6.56122C15.3122 6.67723 15.3583 6.78849 15.4404 6.87053C15.5224 6.95256 15.6337 6.99865 15.7497 6.99865H18.8083C18.8815 6.99865 18.9535 6.98028 19.0177 6.94523C19.082 6.91019 19.1364 6.85958 19.176 6.79804C19.2157 6.7365 19.2392 6.666 19.2445 6.59301C19.2499 6.52001 19.2368 6.44684 19.2065 6.38021L19.1257 6.20265Z" fill="#D9E1E2"/>
<path d="M13.1267 0H2.19129C1.84338 0.000379906 1.50983 0.138756 1.26382 0.384767C1.01781 0.630778 0.879431 0.964332 0.879051 1.31224V6.99865H0.441663C0.383866 6.99809 0.32653 7.00899 0.272971 7.03072C0.219411 7.05245 0.170689 7.08458 0.129621 7.12525C0.0885524 7.16592 0.055952 7.21433 0.0337036 7.26768C0.0114552 7.32103 0 7.37825 0 7.43605C0 7.49385 0.0114552 7.55108 0.0337036 7.60443C0.055952 7.65778 0.0885524 7.70618 0.129621 7.74686C0.170689 7.78753 0.219411 7.81966 0.272971 7.84139C0.32653 7.86312 0.383866 7.87402 0.441663 7.87346H1.53517C1.59297 7.8729 1.65031 7.8838 1.70387 7.90553C1.75742 7.92727 1.80615 7.9594 1.84722 8.00007C1.88828 8.04074 1.92088 8.08915 1.94313 8.1425C1.96538 8.19584 1.97684 8.25307 1.97684 8.31087C1.97684 8.36867 1.96538 8.4259 1.94313 8.47924C1.92088 8.53259 1.88828 8.581 1.84722 8.62167C1.80615 8.66235 1.75742 8.69447 1.70387 8.71621C1.65031 8.73794 1.59297 8.74884 1.53517 8.74828H0.441663C0.326389 8.74939 0.216216 8.79597 0.135097 8.87788C0.0539772 8.95979 0.00847053 9.07041 0.00847053 9.18569C0.00847053 9.30097 0.0539772 9.41158 0.135097 9.49349C0.216216 9.5754 0.326389 9.62198 0.441663 9.62309H13.1267C13.4746 9.62271 13.8081 9.48434 14.0541 9.23833C14.3002 8.99231 14.4385 8.65876 14.4389 8.31085V1.31224C14.4385 0.964332 14.3002 0.630778 14.0541 0.384767C13.8081 0.138756 13.4746 0.000379906 13.1267 0Z" fill="#FD3730"/>
<path d="M4.37828 3.06186H3.06604C2.95003 3.06186 2.83878 3.10794 2.75674 3.18996C2.67471 3.27199 2.62862 3.38324 2.62861 3.49925V6.12373C2.62805 6.18153 2.63895 6.23887 2.66068 6.29243C2.68241 6.34599 2.71454 6.39471 2.75521 6.43578C2.79589 6.47684 2.8443 6.50944 2.89764 6.53169C2.95099 6.55394 3.00822 6.5654 3.06602 6.5654C3.12382 6.5654 3.18104 6.55394 3.23439 6.53169C3.28774 6.50944 3.33615 6.47684 3.37682 6.43578C3.41749 6.39471 3.44962 6.34599 3.47135 6.29243C3.49308 6.23887 3.50398 6.18153 3.50342 6.12373V5.24892H4.15955C4.21734 5.24948 4.27468 5.23858 4.32824 5.21685C4.3818 5.19512 4.43052 5.16298 4.47159 5.12231C4.51266 5.08164 4.54526 5.03323 4.56751 4.97988C4.58975 4.92654 4.60121 4.86931 4.60121 4.81151C4.60121 4.75371 4.58975 4.69648 4.56751 4.64314C4.54526 4.58979 4.51266 4.54138 4.47159 4.50071C4.43052 4.46004 4.3818 4.42791 4.32824 4.40617C4.27468 4.38444 4.21734 4.37354 4.15955 4.3741H3.50342V3.93667H4.37824C4.49351 3.93556 4.60369 3.88898 4.68481 3.80707C4.76593 3.72517 4.81143 3.61455 4.81143 3.49927C4.81143 3.38399 4.76593 3.27337 4.68481 3.19146C4.60369 3.10955 4.49355 3.06298 4.37828 3.06186Z" fill="#EAEFF0"/>
<path d="M7.55637 4.15541C7.55601 3.86549 7.44068 3.58755 7.23568 3.38255C7.03068 3.17755 6.75274 3.06222 6.46282 3.06186H5.58801C5.47199 3.06186 5.36073 3.10795 5.2787 3.18998C5.19666 3.27201 5.15058 3.38327 5.15058 3.49929V6.12377C5.15002 6.18157 5.16092 6.23891 5.18265 6.29247C5.20438 6.34603 5.23651 6.39475 5.27718 6.43582C5.31786 6.47689 5.36626 6.50949 5.41961 6.53173C5.47296 6.55398 5.53018 6.56544 5.58798 6.56544C5.64578 6.56544 5.70301 6.55398 5.75636 6.53173C5.80971 6.50949 5.85811 6.47689 5.89879 6.43582C5.93946 6.39475 5.97159 6.34603 5.99332 6.29247C6.01505 6.23891 6.02595 6.18157 6.02539 6.12377V5.60072L6.73523 6.41181C6.77286 6.45571 6.81881 6.4917 6.87044 6.51772C6.92206 6.54375 6.97833 6.55927 7.036 6.56341C7.09366 6.56754 7.15157 6.56021 7.20638 6.54182C7.26119 6.52343 7.31181 6.49436 7.35532 6.45629C7.39882 6.41821 7.43434 6.37189 7.45983 6.32C7.48532 6.26811 7.50027 6.21168 7.50381 6.15398C7.50735 6.09628 7.49942 6.03844 7.48047 5.98382C7.46152 5.92921 7.43193 5.87889 7.39341 5.83578L6.8259 5.18704C7.03932 5.11161 7.22413 4.97193 7.35493 4.7872C7.48574 4.60247 7.55611 4.38176 7.55637 4.15541ZM6.46282 4.3741H6.02543V3.93672H6.46286C6.52087 3.93672 6.5765 3.95976 6.61752 4.00078C6.65853 4.04179 6.68158 4.09742 6.68158 4.15543C6.68158 4.21344 6.65853 4.26907 6.61752 4.31008C6.5765 4.3511 6.52087 4.37414 6.46286 4.37414L6.46282 4.3741Z" fill="#EAEFF0"/>
<path d="M9.73796 3.93669C9.79575 3.93725 9.85309 3.92635 9.90665 3.90462C9.96021 3.88289 10.0089 3.85076 10.05 3.81009C10.0911 3.76942 10.1237 3.72101 10.1459 3.66766C10.1682 3.61431 10.1796 3.55709 10.1796 3.49929C10.1796 3.44149 10.1682 3.38426 10.1459 3.33091C10.1237 3.27757 10.0911 3.22916 10.05 3.18848C10.0089 3.14781 9.96021 3.11568 9.90665 3.09395C9.85309 3.07222 9.79575 3.06132 9.73796 3.06188H8.42571C8.3097 3.06188 8.19844 3.10797 8.1164 3.19C8.03437 3.27203 7.98828 3.38329 7.98828 3.49931V6.1238C7.98829 6.2398 8.03439 6.35105 8.11642 6.43308C8.19845 6.5151 8.30971 6.56118 8.42571 6.56118H9.73796C9.79575 6.56174 9.85309 6.55084 9.90665 6.52911C9.96021 6.50738 10.0089 6.47525 10.05 6.43458C10.0911 6.3939 10.1237 6.3455 10.1459 6.29215C10.1682 6.2388 10.1796 6.18157 10.1796 6.12377C10.1796 6.06597 10.1682 6.00875 10.1459 5.9554C10.1237 5.90205 10.0911 5.85365 10.05 5.81297C10.0089 5.7723 9.96021 5.74017 9.90665 5.71844C9.85309 5.69671 9.79575 5.68581 9.73796 5.68637H8.86314V5.24894H9.50967C9.56746 5.2495 9.6248 5.2386 9.67836 5.21687C9.73192 5.19514 9.78064 5.16301 9.82171 5.12233C9.86278 5.08166 9.89538 5.03325 9.91763 4.97991C9.93987 4.92656 9.95133 4.86933 9.95133 4.81153C9.95133 4.75373 9.93987 4.6965 9.91763 4.64316C9.89538 4.58981 9.86278 4.5414 9.82171 4.50073C9.78064 4.46006 9.73192 4.42793 9.67836 4.4062C9.6248 4.38446 9.56746 4.37356 9.50967 4.37412H8.86314V3.93669H9.73796Z" fill="#EAEFF0"/>
<path d="M12.2517 5.68638H11.3769V5.24895H12.0231C12.0809 5.24951 12.1383 5.23861 12.1918 5.21688C12.2454 5.19515 12.2941 5.16302 12.3352 5.12234C12.3763 5.08167 12.4089 5.03326 12.4311 4.97992C12.4534 4.92657 12.4648 4.86934 12.4648 4.81154C12.4648 4.75374 12.4534 4.69651 12.4311 4.64317C12.4089 4.58982 12.3763 4.54141 12.3352 4.50074C12.2941 4.46007 12.2454 4.42794 12.1918 4.40621C12.1383 4.38448 12.0809 4.37358 12.0231 4.37413H11.3769V3.93671H12.2517C12.367 3.93559 12.4771 3.88901 12.5582 3.80711C12.6394 3.7252 12.6849 3.61458 12.6849 3.4993C12.6849 3.38402 12.6394 3.2734 12.5582 3.19149C12.4771 3.10958 12.367 3.06301 12.2517 3.06189H10.9394C10.8234 3.0619 10.7122 3.10799 10.6302 3.19001C10.5481 3.27203 10.5021 3.38328 10.5021 3.49928V6.12377C10.5021 6.23978 10.5481 6.35104 10.6302 6.43307C10.7122 6.51511 10.8235 6.56119 10.9395 6.56119H12.2517C12.367 6.56008 12.4772 6.5135 12.5583 6.43159C12.6394 6.34968 12.6849 6.23907 12.6849 6.12379C12.6849 6.00851 12.6394 5.89789 12.5583 5.81598C12.4772 5.73407 12.367 5.68749 12.2517 5.68638Z" fill="#EAEFF0"/>
<path d="M4.81429 12.9038C5.90139 12.9038 6.78266 12.0225 6.78266 10.9354C6.78266 9.84829 5.90139 8.96702 4.81429 8.96702C3.7272 8.96702 2.84593 9.84829 2.84593 10.9354C2.84593 12.0225 3.7272 12.9038 4.81429 12.9038Z" fill="#2D4A60"/>
<path d="M4.81565 11.8102C5.29879 11.8102 5.69046 11.4185 5.69046 10.9354C5.69046 10.4522 5.29879 10.0606 4.81565 10.0606C4.3325 10.0606 3.94083 10.4522 3.94083 10.9354C3.94083 11.4185 4.3325 11.8102 4.81565 11.8102Z" fill="#D9E1E2"/>
<path d="M16.1898 12.9038C17.2769 12.9038 18.1582 12.0225 18.1582 10.9354C18.1582 9.84829 17.2769 8.96702 16.1898 8.96702C15.1027 8.96702 14.2214 9.84829 14.2214 10.9354C14.2214 12.0225 15.1027 12.9038 16.1898 12.9038Z" fill="#2D4A60"/>
<path d="M16.1871 11.8102C16.6702 11.8102 17.0619 11.4185 17.0619 10.9354C17.0619 10.4522 16.6702 10.0606 16.1871 10.0606C15.7039 10.0606 15.3122 10.4522 15.3122 10.9354C15.3122 11.4185 15.7039 11.8102 16.1871 11.8102Z" fill="#D9E1E2"/>
</svg>
