<svg width="26" height="29" viewBox="0 0 26 29" fill="none" xmlns="http://www.w3.org/2000/svg">
<path d="M12.6413 17.4188C9.76962 17.4188 7.42373 15.0864 7.42373 12.2013C7.42373 9.31607 9.76962 6.99715 12.6413 6.99715C15.513 6.99715 17.8589 9.32956 17.8589 12.2147C17.8589 15.0999 15.513 17.4188 12.6413 17.4188ZM12.6413 9.01947C10.8886 9.01947 9.44605 10.4486 9.44605 12.2147C9.44605 13.9809 10.8752 15.41 12.6413 15.41C14.4075 15.41 15.8366 13.9809 15.8366 12.2147C15.8366 10.4486 14.394 9.01947 12.6413 9.01947Z" fill="white"/>
<path d="M12.6417 29.0001C10.6464 29.0001 8.63752 28.2451 7.07359 26.7486C3.09636 22.9196 -1.29881 16.8122 0.359489 9.54535C1.85601 2.95259 7.61288 0 12.6417 0C12.6417 0 12.6417 0 12.6552 0C17.684 0 23.4409 2.95259 24.9374 9.55883C26.5822 16.8257 22.1871 22.9196 18.2098 26.7486C16.6459 28.2451 14.6371 29.0001 12.6417 29.0001ZM12.6417 2.02232C8.71841 2.02232 3.67609 4.11205 2.34136 9.99026C0.885292 16.3403 4.876 21.8141 8.48921 25.279C10.8216 27.5305 14.4753 27.5305 16.8077 25.279C20.4074 21.8141 24.3981 16.3403 22.969 9.99026C21.6208 4.11205 16.565 2.02232 12.6417 2.02232Z" fill="white"/>
</svg>
