<svg width="17" height="18" viewBox="0 0 17 18" fill="none" xmlns="http://www.w3.org/2000/svg">
<path d="M8.22551 0.0581396L0.16527 3.9493C0.0641953 3.9981 0 4.10041 0 4.21262V13.7874C0 13.8996 0.0642305 14.0019 0.16527 14.0507L8.22551 17.9418C8.38614 18.0194 8.57338 18.0194 8.73401 17.9418L16.7942 14.0507C16.8953 14.0019 16.9595 13.8996 16.9595 13.7874V4.21262C16.9595 4.10041 16.8953 3.9981 16.7942 3.9493L8.73401 0.0581396C8.57338 -0.0193799 8.38614 -0.0193799 8.22551 0.0581396Z" fill="#FFE17D"/>
<path d="M0.0486211 4.05255C0.0178945 4.09934 0 4.15443 0 4.21262V13.7874C0 13.8996 0.0642305 14.0019 0.16527 14.0507L8.22551 17.9418C8.3058 17.9806 8.39278 17.9999 8.47976 17.9999V8.12277L0.0486211 4.05255Z" fill="#FFC350"/>
<path d="M16.9116 4.05255C16.9423 4.09934 16.9602 4.15443 16.9602 4.21262V13.7874C16.9602 13.8996 16.896 14.0019 16.795 14.0507L8.73472 17.9418C8.65442 17.9806 8.56745 18 8.48047 18V8.12277L16.9116 4.05255Z" fill="#FFD164"/>
<path d="M2.4155 13.277C2.37296 13.277 2.32954 13.2676 2.28872 13.2479L1.0443 12.6471C0.898679 12.5769 0.837859 12.4021 0.908101 12.2568C0.978062 12.1114 1.15339 12.0509 1.29844 12.1206L2.54287 12.7214C2.68848 12.7916 2.7493 12.9664 2.67906 13.1117C2.62882 13.2162 2.5243 13.277 2.4155 13.277Z" fill="#FFE17D"/>
<path d="M3.55912 12.5312C3.51658 12.5312 3.47316 12.5218 3.43234 12.5021L1.04425 11.3493C0.898912 11.2791 0.837811 11.1043 0.908053 10.959C0.978014 10.8139 1.15362 10.7531 1.29839 10.8228L3.68645 11.9756C3.83179 12.0458 3.89289 12.2206 3.82265 12.3659C3.77244 12.4704 3.66792 12.5312 3.55912 12.5312Z" fill="#FFF6D8"/>
<path d="M14.0544 5.42721L5.59359 1.33984L3.36328 2.4209L11.843 6.5146L14.0544 5.42721Z" fill="#FF8087"/>
<path d="M11.8438 6.51459V9.68593C11.8438 9.79372 11.9564 9.86446 12.0535 9.81759L13.8898 8.93113C13.9909 8.88233 14.0551 8.78003 14.0551 8.66781V5.42725L11.8438 6.51459Z" fill="#E6646E"/>
</svg>
