<svg width="36" height="36" viewBox="0 0 36 36" fill="none" xmlns="http://www.w3.org/2000/svg">
<ellipse opacity="0.1" cx="17.9717" cy="18.0001" rx="17.9717" ry="18.0001" fill="white"/>
<ellipse cx="17.9717" cy="17.9999" rx="12.3556" ry="12.3751" fill="white"/>
<path d="M22.1673 16.0501L16.7432 12.9119C16.5881 12.82 16.4115 12.7709 16.2314 12.7695C15.9482 12.7695 15.6766 12.8822 15.4764 13.0827C15.2761 13.2832 15.1636 13.5552 15.1636 13.8388V20.5739C15.1637 20.7621 15.214 20.9469 15.3095 21.109C15.405 21.2711 15.5421 21.4046 15.7066 21.4956C15.871 21.5867 16.0568 21.632 16.2447 21.6268C16.4325 21.6216 16.6156 21.5661 16.7748 21.4661L22.2052 18.0305C22.3741 17.9246 22.5127 17.7768 22.6075 17.6014C22.7024 17.426 22.7502 17.229 22.7464 17.0295C22.7426 16.8301 22.6872 16.635 22.5857 16.4634C22.4843 16.2917 22.3401 16.1493 22.1673 16.0501Z" fill="#DD3F61"/>
</svg>
