<svg width="18" height="17" viewBox="0 0 18 17" fill="none" xmlns="http://www.w3.org/2000/svg">
<path d="M9.55286 1.84614L11.2561 5.42437C11.3301 5.63907 11.5523 5.78219 11.7745 5.85376L15.6252 6.42628C16.2917 6.42628 16.5139 7.14192 16.0695 7.57131L13.2555 10.3623C13.1074 10.5055 13.0334 10.7917 13.0334 11.0064L13.6998 14.8709C13.7739 15.4434 13.1815 15.9444 12.6631 15.6581L9.1826 13.7974C8.96044 13.6543 8.73828 13.6543 8.51612 13.7974L5.03563 15.6581C4.51726 15.9444 3.85078 15.515 3.99889 14.8709L4.66536 11.0064C4.73942 10.7917 4.59131 10.5055 4.44321 10.3623L1.62919 7.57131C1.25893 7.14192 1.48108 6.42628 2.07351 6.35471L5.92427 5.7822C6.14643 5.7822 6.36858 5.5675 6.44264 5.35281L8.14586 1.77458C8.51612 1.27362 9.25665 1.27362 9.55286 1.84614Z" fill="#F6C100"/>
</svg>
