<svg width="21" height="15" viewBox="0 0 21 15" fill="none" xmlns="http://www.w3.org/2000/svg">
<path d="M16.4863 9.07822L16.9927 4.66675H15.6594L13.8203 12.3731L20.3611 12.0001L20.897 10.0001L16.4863 9.07822Z" fill="#FFA95F"/>
<path d="M15.5635 10H14.2302L13.5156 12.6667H19.5156C19.8838 12.6667 20.2623 12.3682 20.3609 12H15.6943C15.3261 12 15.1076 11.7015 15.2062 11.3333L15.5635 10Z" fill="#FF8B5A"/>
<path d="M20.8067 9.13921L19.6797 8.33342L18.3963 7.4974L19.6685 6.00008L19.6645 5.15799C19.6631 4.86797 19.4536 4.66675 19.1529 4.66675H16.9955L15.5664 10.0001H20.8997L20.9772 9.71089C21.0399 9.47669 20.9752 9.25968 20.8067 9.13921Z" fill="#FFC269"/>
<path d="M13.287 4H16.173C16.3571 4 16.4664 4.14926 16.417 4.33333L14.3628 12L4.74382 12.5645C4.55975 12.5645 4.4894 12.4751 4.53875 12.291L6.37764 5.37989L13.287 4Z" fill="#E5646E"/>
<path d="M5.36286 12C5.17874 12 5.06952 11.8507 5.11886 11.6666L5.6058 9.8494C5.65661 9.65974 5.86079 9.55138 6.04319 9.62406C6.64878 9.86536 7.30794 10 7.9998 10C10.9453 10 13.3331 7.6122 13.3331 4.66667C13.3331 4.44038 13.3144 4.21886 13.2871 4H6.83983C6.65571 4 6.46651 4.14921 6.41717 4.33333L4.27357 12.3333C4.22423 12.5174 4.33349 12.6667 4.51757 12.6667H14.1842L14.3628 12H5.36286V12Z" fill="#DB4655"/>
<path d="M18.6382 13.5427C19.2719 12.9881 19.4415 12.1452 19.0169 11.66C18.5923 11.1748 17.7344 11.2312 17.1006 11.7858C16.4669 12.3404 16.2973 13.1833 16.7219 13.6685C17.1465 14.1537 18.0045 14.0973 18.6382 13.5427Z" fill="#5D5360"/>
<path d="M18.2488 13.1034C18.5657 12.8261 18.6505 12.4046 18.4382 12.162C18.2258 11.9195 17.7969 11.9476 17.48 12.2249C17.1631 12.5022 17.0784 12.9237 17.2907 13.1663C17.503 13.4089 17.9319 13.3807 18.2488 13.1034Z" fill="#DAD8DB"/>
<path d="M8.29836 13.5478C8.9321 12.9932 9.10165 12.1503 8.67706 11.6651C8.25247 11.18 7.39452 11.2363 6.76077 11.7909C6.12703 12.3455 5.95748 13.1885 6.38208 13.6736C6.80667 14.1588 7.66462 14.1025 8.29836 13.5478Z" fill="#5D5360"/>
<path d="M7.91288 13.1088C8.22975 12.8315 8.31452 12.41 8.10222 12.1674C7.88991 11.9248 7.46093 11.953 7.14406 12.2303C6.82719 12.5076 6.74242 12.9291 6.95472 13.1717C7.16703 13.4143 7.59601 13.3861 7.91288 13.1088Z" fill="#DAD8DB"/>
<path d="M19.6702 6H17.9732L17.3828 6.66667L17.6135 8.11768L19.6813 7.66667L19.6702 6Z" fill="#DBEAFF"/>
<path d="M18.193 7.66667C17.8248 7.66667 17.6063 7.3682 17.7049 7L17.9729 6C17.6047 6 17.2262 6.29847 17.1276 6.66667L16.8596 7.66667C16.761 8.03487 16.9795 8.33334 17.3477 8.33334H19.681L19.6778 7.66667H18.193Z" fill="#C3DDFF"/>
<path d="M8.00261 9.33335C10.5799 9.33335 12.6693 7.24401 12.6693 4.66668C12.6693 2.08934 10.5799 0 8.00261 0C5.42528 0 3.33594 2.08934 3.33594 4.66668C3.33594 7.24401 5.42528 9.33335 8.00261 9.33335Z" fill="#ECEAEC"/>
<path d="M8.00001 8.66676C10.2092 8.66676 12 6.8759 12 4.66676C12 2.45761 10.2092 0.666748 8.00001 0.666748C5.79086 0.666748 4 2.45761 4 4.66676C4 6.8759 5.79086 8.66676 8.00001 8.66676Z" fill="white"/>
<path d="M8.00521 2C7.82097 2 7.67188 1.85075 7.67188 1.66667V1.33333C7.67188 1.14926 7.82097 1 8.00521 1C8.18945 1 8.33854 1.14926 8.33854 1.33333V1.66667C8.33854 1.85075 8.18945 2 8.00521 2Z" fill="#C8C5C9"/>
<path d="M8.00521 8.33325C7.82097 8.33325 7.67188 8.184 7.67188 7.99992V7.66659C7.67188 7.48251 7.82097 7.33325 8.00521 7.33325C8.18945 7.33325 8.33854 7.48251 8.33854 7.66659V7.99992C8.33854 8.184 8.18945 8.33325 8.00521 8.33325Z" fill="#C8C5C9"/>
<path d="M11.3385 4.99992H11.0052C10.821 4.99992 10.6719 4.85066 10.6719 4.66659C10.6719 4.48251 10.821 4.33325 11.0052 4.33325H11.3385C11.5228 4.33325 11.6719 4.48251 11.6719 4.66659C11.6719 4.85066 11.5228 4.99992 11.3385 4.99992Z" fill="#C8C5C9"/>
<path d="M5.00261 4.99992H4.66927C4.48503 4.99992 4.33594 4.85066 4.33594 4.66659C4.33594 4.48251 4.48503 4.33325 4.66927 4.33325H5.00261C5.18685 4.33325 5.33594 4.48251 5.33594 4.66659C5.33594 4.85066 5.18685 4.99992 5.00261 4.99992Z" fill="#C8C5C9"/>
<path d="M3.66667 9.33342H0.333334C0.149092 9.33342 0 9.18416 0 9.00008C0 8.816 0.149092 8.66675 0.333334 8.66675H3.66667C3.85092 8.66675 4.00001 8.816 4.00001 9.00008C4.00001 9.18416 3.85092 9.33342 3.66667 9.33342Z" fill="#F9EAC7"/>
<path d="M3.33334 10.6667H1.33333C1.14909 10.6667 1 10.5174 1 10.3333C1 10.1493 1.14909 10 1.33333 10H3.33334C3.51758 10 3.66667 10.1493 3.66667 10.3333C3.66667 10.5174 3.51758 10.6667 3.33334 10.6667Z" fill="#F9EAC7"/>
<path d="M3 11.9999H2.33333C2.14909 11.9999 2 11.8507 2 11.6666C2 11.4825 2.14909 11.3333 2.33333 11.3333H3C3.18424 11.3333 3.33334 11.4825 3.33334 11.6666C3.33334 11.8507 3.18424 11.9999 3 11.9999Z" fill="#F9EAC7"/>
<path d="M6.99741 6.00008C6.91214 6.00008 6.82682 5.96751 6.76173 5.90242C6.63151 5.7722 6.63151 5.56129 6.76173 5.43107L9.92838 2.26442C10.0586 2.13419 10.2695 2.13419 10.3997 2.26442C10.53 2.39464 10.53 2.60554 10.3997 2.73577L7.23308 5.90242C7.16795 5.96751 7.08268 6.00008 6.99741 6.00008Z" fill="#E5646E"/>
<path d="M8.00261 5.33334C8.3708 5.33334 8.66927 5.03486 8.66927 4.66667C8.66927 4.29848 8.3708 4 8.00261 4C7.63441 4 7.33594 4.29848 7.33594 4.66667C7.33594 5.03486 7.63441 5.33334 8.00261 5.33334Z" fill="#5D5360"/>
</svg>
