<svg width="59" height="49" viewBox="0 0 59 49" fill="none" xmlns="http://www.w3.org/2000/svg">
<path d="M13.0134 15.0969C8.26739 13.3175 4.14181 14.1533 1.09914 17.4119C0.869048 17.6576 0.822114 18.0286 0.980086 18.3277C4.61687 25.2226 9.04351 23.827 12.5555 23.1442" stroke="white" stroke-width="1.76526" stroke-miterlimit="10" stroke-linecap="round" stroke-linejoin="round"/>
<path d="M2.31942 20.4653C5.3392 18.4911 9.57124 16.9899 13.5823 18.7334M45.653 15.097C50.399 13.3176 54.5257 14.1522 57.5684 17.4119C57.7985 17.6577 57.8454 18.0286 57.6874 18.3277C54.0507 25.2227 49.624 23.827 46.112 23.1442" stroke="white" stroke-width="1.76526" stroke-miterlimit="10" stroke-linecap="round" stroke-linejoin="round"/>
<path d="M45.0861 18.7333C49.0961 16.991 53.3281 18.491 56.3479 20.4651M35.1036 40.4392C34.0395 42.3761 31.1187 43.6848 29.3336 41.3815C27.5486 43.6849 24.6278 42.3761 23.5637 40.4392M29.3336 41.3622V38.2846M29.3336 38.2846C28.6321 38.2846 27.9968 37.8346 27.787 37.1568C27.4725 36.1413 26.7223 35.3271 25.7731 34.9235C24.7728 34.4982 24.5121 33.1744 25.2994 32.4187C26.3507 31.4096 27.7707 30.7906 29.3336 30.7906C30.8965 30.7906 32.3165 31.4096 33.3677 32.4187C34.1552 33.1744 33.8943 34.4982 32.8941 34.9235C31.945 35.3271 31.1947 36.1411 30.8803 37.1568C30.6704 37.8346 30.0351 38.2846 29.3336 38.2846ZM20.0227 26.1047V27.2327M38.6446 26.1047V27.2327" stroke="white" stroke-width="1.76526" stroke-miterlimit="10" stroke-linecap="round" stroke-linejoin="round"/>
<path d="M14.1684 17.4734C13.0867 19.5265 12.5209 21.8177 12.5211 24.1447V24.9793C12.5211 28.5149 13.8261 31.923 16.1785 34.5359L17.163 35.629C18.5444 37.162 19.5495 39.0032 20.0969 41.0031C21.2497 45.2053 25.0272 48.1126 29.3337 48.1126C32.049 48.1126 34.5548 46.9568 36.3234 45.0488M44.499 17.4723C45.5807 19.5257 46.1464 21.8173 46.1462 24.1447V24.9793C46.1462 28.5149 44.8412 31.923 42.4888 34.5359L41.5044 35.629C40.123 37.162 39.1178 39.0032 38.5704 41.0031C38.5132 41.2083 38.4514 41.41 38.3827 41.6094" stroke="white" stroke-width="1.76526" stroke-miterlimit="10" stroke-linecap="round" stroke-linejoin="round"/>
<path d="M17.5966 7.51458C17.2018 8.07814 16.9461 8.72922 16.8507 9.41337C16.798 9.79012 16.5347 10.0973 16.1719 10.197C14.6093 10.6247 13.3463 11.9264 13.0361 13.6467C12.6091 16.0034 14.1284 18.2663 16.4373 18.7404M42.4534 18.6882V18.6871C44.6353 18.1191 46.0436 15.9269 45.6315 13.6467C45.3213 11.9253 44.058 10.6245 42.4943 10.1968C42.3186 10.1489 42.1607 10.0497 42.0402 9.91159C41.9197 9.77349 41.842 9.60257 41.8167 9.4201C41.5924 7.82734 40.5245 6.48427 39.018 5.92206C39.006 5.70384 38.9805 5.48661 38.9416 5.27162C38.4174 2.3678 35.666 0.444315 32.7985 0.976393C30.9784 1.31372 29.55 2.55883 28.8826 4.1655C28.7716 4.43328 28.4497 4.5332 28.2059 4.38019C27.4446 3.90491 26.5153 3.70182 25.5664 3.87802C24.464 4.08204 23.5642 4.75682 23.0297 5.65868C22.9175 5.84879 22.6915 5.93794 22.4843 5.86839C22.0221 5.71405 21.5374 5.64032 21.0509 5.65034" stroke="white" stroke-width="1.76526" stroke-miterlimit="10" stroke-linecap="round" stroke-linejoin="round"/>
<path d="M34.7001 11.4928C37.5679 10.9609 39.4669 8.17557 38.9417 5.27151C38.7264 4.07017 38.1098 2.9803 37.1953 2.18465M42.4533 18.687V18.6881C42.2198 19.8392 41.1358 20.7469 39.9693 20.9683C37.6856 21.4009 35.4401 19.8822 33.787 18.0892C33.572 17.856 33.1889 18.0158 33.1977 18.3347C33.218 19.0664 33.0939 19.8028 32.5252 20.3111C31.1025 21.5855 28.546 20.0498 27.3817 18.1677C27.2403 17.9393 26.9023 17.9718 26.7995 18.2205C25.9284 20.3285 24.1154 20.643 22.7732 19.3606C22.5281 19.1266 22.2579 18.8488 22.0083 18.5584C21.8083 18.3259 21.4372 18.4128 21.3539 18.7094C21.0887 19.6559 20.2865 20.4595 19.3194 20.6228C18.0831 20.8315 16.7655 19.9609 16.437 18.7403" stroke="white" stroke-width="1.76526" stroke-miterlimit="10" stroke-linecap="round" stroke-linejoin="round"/>
</svg>
