<svg width="15" height="16" viewBox="0 0 15 16" fill="none" xmlns="http://www.w3.org/2000/svg">
<path d="M13.9365 6.86562H8.56348V1.13437C8.56348 0.50625 8.08594 0 7.5 0C6.91406 0 6.43652 0.50625 6.43652 1.13437V6.86562H1.06348C0.474609 6.86562 0 7.375 0 8C0 8.625 0.474609 9.13437 1.06348 9.13437H6.43652V14.8656C6.43652 15.4906 6.91113 16 7.5 16C8.08594 16 8.56348 15.4938 8.56348 14.8656V9.13437H13.9365C14.5225 9.13437 15 8.62813 15 8C15 7.375 14.5254 6.86562 13.9365 6.86562Z" fill="white"/>
</svg>
