<svg width="26" height="29" viewBox="0 0 26 29" fill="none" xmlns="http://www.w3.org/2000/svg">
<path d="M12.6432 17.4187C9.77151 17.4187 7.42564 15.0863 7.42564 12.2011C7.42564 9.316 9.77151 6.99709 12.6432 6.99709C15.5149 6.99709 17.8607 9.32948 17.8607 12.2146C17.8607 15.0998 15.5149 17.4187 12.6432 17.4187ZM12.6432 9.01939C10.8905 9.01939 9.44795 10.4485 9.44795 12.2146C9.44795 13.9808 10.877 15.4099 12.6432 15.4099C14.4093 15.4099 15.8384 13.9808 15.8384 12.2146C15.8384 10.4485 14.3958 9.01939 12.6432 9.01939Z" fill="#171717"/>
<path d="M12.6416 28.9998C10.6463 28.9998 8.63744 28.2448 7.07353 26.7483C3.09634 22.9194 -1.2988 16.8121 0.359486 9.54527C1.85599 2.95256 7.61281 0 12.6416 0C12.6416 0 12.6416 0 12.6551 0C17.6839 0 23.4407 2.95256 24.9372 9.55875C26.582 16.8256 22.1869 22.9194 18.2097 26.7483C16.6458 28.2448 14.6369 28.9998 12.6416 28.9998ZM12.6416 2.0223C8.71834 2.0223 3.67606 4.11202 2.34134 9.99018C0.885285 16.3402 4.87596 21.8139 8.48914 25.2788C10.8215 27.5303 14.4752 27.5303 16.8075 25.2788C20.4072 21.8139 24.3979 16.3402 22.9688 9.99018C21.6206 4.11202 16.5649 2.0223 12.6416 2.0223Z" fill="#171717"/>
</svg>
