<svg width="29" height="25" viewBox="0 0 29 25" fill="none" xmlns="http://www.w3.org/2000/svg">
<path d="M15.8476 9.44288H7.75388C7.20081 9.44288 6.74216 8.98424 6.74216 8.43116C6.74216 7.87809 7.20081 7.41944 7.75388 7.41944H15.8476C16.4007 7.41944 16.8594 7.87809 16.8594 8.43116C16.8594 8.98424 16.4007 9.44288 15.8476 9.44288Z" fill="#292D32"/>
<path d="M23.9952 16.2555C21.9583 16.2555 20.2316 14.7447 20.0698 12.8022C19.9619 11.6826 20.3666 10.5899 21.1759 9.79404C21.8504 9.09258 22.8081 8.70138 23.8198 8.70138H26.6392C27.9747 8.74185 28.9999 9.79398 28.9999 11.089V13.8679C28.9999 15.1629 27.9747 16.2151 26.6797 16.2555H23.9952ZM26.5987 10.7248H23.8333C23.3612 10.7248 22.9296 10.9002 22.6193 11.2239C22.2281 11.6016 22.0393 12.1142 22.0932 12.6268C22.1607 13.5171 23.024 14.2321 23.9952 14.2321H26.6392C26.8146 14.2321 26.9764 14.0703 26.9764 13.8679V11.089C26.9764 10.8866 26.8145 10.7383 26.5987 10.7248Z" fill="#292D32"/>
<path d="M19.8972 24.9558H7.75652C3.1161 24.9558 0 21.8397 0 17.1992V7.75652C0 3.60172 2.56299 0.593552 6.54242 0.0944371C6.90664 0.0404787 7.32485 0 7.75652 0H19.8972C20.2209 0 20.6391 0.0134863 21.0707 0.0809343C25.0502 0.539581 27.6537 3.56125 27.6537 7.75652V9.71253C27.6537 10.2656 27.195 10.7242 26.642 10.7242H23.8361C23.364 10.7242 22.9323 10.8996 22.6221 11.2234L22.6086 11.2369C22.2309 11.6011 22.0555 12.1001 22.096 12.6127C22.1634 13.5031 23.0267 14.218 23.998 14.218H26.642C27.195 14.218 27.6537 14.6767 27.6537 15.2297V17.1857C27.6537 21.8396 24.5376 24.9558 19.8972 24.9558ZM7.75652 2.02344C7.43277 2.02344 7.12249 2.0504 6.81223 2.09087C3.84452 2.46858 2.02344 4.62693 2.02344 7.75652V17.1992C2.02344 20.6796 4.2762 22.9323 7.75652 22.9323H19.8972C23.3775 22.9323 25.6302 20.6796 25.6302 17.1992V16.2549H23.998C21.961 16.2549 20.2344 14.7441 20.0725 12.8016C19.9646 11.6955 20.3693 10.5894 21.1787 9.80696C21.8801 9.09201 22.8244 8.70081 23.8361 8.70081H25.6302V7.75652C25.6302 4.59995 23.7821 2.4281 20.7874 2.07737C20.4637 2.02341 20.1804 2.02344 19.8972 2.02344H7.75652Z" fill="#292D32"/>
</svg>
