<svg width="21" height="15" viewBox="0 0 21 15" fill="none" xmlns="http://www.w3.org/2000/svg">
<path d="M16.4863 9.0781L16.9927 4.66663H15.6594L13.8203 12.373L20.3611 12L20.897 9.99997L16.4863 9.0781Z" fill="#FFA95F"/>
<path d="M15.5635 10H14.2302L13.5156 12.6667H19.5156C19.8838 12.6667 20.2623 12.3682 20.3609 12H15.6943C15.3261 12 15.1076 11.7015 15.2062 11.3333L15.5635 10Z" fill="#FF8B5A"/>
<path d="M20.8067 9.13909L19.6797 8.3333L18.3963 7.49728L19.6685 5.99996L19.6645 5.15787C19.6631 4.86785 19.4536 4.66663 19.1529 4.66663H16.9955L15.5664 9.99997H20.8997L20.9772 9.71077C21.0399 9.47657 20.9752 9.25956 20.8067 9.13909Z" fill="#FFC269"/>
<path d="M13.287 4H16.173C16.3571 4 16.4664 4.14926 16.417 4.33333L14.3628 12L4.74382 12.5645C4.55975 12.5645 4.4894 12.4751 4.53875 12.291L6.37764 5.37989L13.287 4Z" fill="#E5646E"/>
<path d="M5.36286 12C5.17874 12 5.06952 11.8507 5.11886 11.6666L5.6058 9.8494C5.65661 9.65974 5.86079 9.55138 6.04319 9.62406C6.64878 9.86536 7.30794 10 7.9998 10C10.9453 10 13.3331 7.6122 13.3331 4.66667C13.3331 4.44038 13.3144 4.21886 13.2871 4H6.83983C6.65571 4 6.46651 4.14921 6.41717 4.33333L4.27357 12.3333C4.22423 12.5174 4.33349 12.6667 4.51757 12.6667H14.1842L14.3628 12H5.36286V12Z" fill="#DB4655"/>
<path d="M18.6382 13.5426C19.2719 12.988 19.4415 12.145 19.0169 11.6599C18.5923 11.1747 17.7344 11.231 17.1006 11.7857C16.4669 12.3403 16.2973 13.1832 16.7219 13.6684C17.1465 14.1535 18.0045 14.0972 18.6382 13.5426Z" fill="#5D5360"/>
<path d="M18.2488 13.1034C18.5657 12.8261 18.6505 12.4046 18.4382 12.162C18.2258 11.9195 17.7969 11.9476 17.48 12.2249C17.1631 12.5022 17.0784 12.9237 17.2907 13.1663C17.503 13.4089 17.9319 13.3807 18.2488 13.1034Z" fill="#DAD8DB"/>
<path d="M8.29836 13.5479C8.9321 12.9933 9.10165 12.1503 8.67706 11.6652C8.25247 11.18 7.39452 11.2364 6.76077 11.791C6.12703 12.3456 5.95748 13.1885 6.38208 13.6737C6.80667 14.1588 7.66462 14.1025 8.29836 13.5479Z" fill="#5D5360"/>
<path d="M7.91288 13.1087C8.22975 12.8313 8.31452 12.4099 8.10222 12.1673C7.88991 11.9247 7.46093 11.9529 7.14406 12.2302C6.82719 12.5075 6.74242 12.929 6.95472 13.1715C7.16703 13.4141 7.59601 13.386 7.91288 13.1087Z" fill="#DAD8DB"/>
<path d="M19.6702 6H17.9732L17.3828 6.66667L17.6135 8.11768L19.6813 7.66667L19.6702 6Z" fill="#DBEAFF"/>
<path d="M18.193 7.66667C17.8248 7.66667 17.6063 7.3682 17.7049 7L17.9729 6C17.6047 6 17.2262 6.29847 17.1276 6.66667L16.8596 7.66667C16.761 8.03487 16.9795 8.33334 17.3477 8.33334H19.681L19.6778 7.66667H18.193Z" fill="#C3DDFF"/>
<path d="M8.00261 9.33335C10.5799 9.33335 12.6693 7.24401 12.6693 4.66668C12.6693 2.08934 10.5799 0 8.00261 0C5.42528 0 3.33594 2.08934 3.33594 4.66668C3.33594 7.24401 5.42528 9.33335 8.00261 9.33335Z" fill="#ECEAEC"/>
<path d="M8.00001 8.66664C10.2092 8.66664 12 6.87578 12 4.66663C12 2.45749 10.2092 0.666626 8.00001 0.666626C5.79086 0.666626 4 2.45749 4 4.66663C4 6.87578 5.79086 8.66664 8.00001 8.66664Z" fill="white"/>
<path d="M8.00521 2C7.82097 2 7.67188 1.85075 7.67188 1.66667V1.33333C7.67188 1.14926 7.82097 1 8.00521 1C8.18945 1 8.33854 1.14926 8.33854 1.33333V1.66667C8.33854 1.85075 8.18945 2 8.00521 2Z" fill="#C8C5C9"/>
<path d="M8.00521 8.33338C7.82097 8.33338 7.67188 8.18412 7.67188 8.00004V7.66671C7.67188 7.48263 7.82097 7.33337 8.00521 7.33337C8.18945 7.33337 8.33854 7.48263 8.33854 7.66671V8.00004C8.33854 8.18412 8.18945 8.33338 8.00521 8.33338Z" fill="#C8C5C9"/>
<path d="M11.3385 5.00004H11.0052C10.821 5.00004 10.6719 4.85079 10.6719 4.66671C10.6719 4.48263 10.821 4.33337 11.0052 4.33337H11.3385C11.5228 4.33337 11.6719 4.48263 11.6719 4.66671C11.6719 4.85079 11.5228 5.00004 11.3385 5.00004Z" fill="#C8C5C9"/>
<path d="M5.00261 4.99998H4.66927C4.48503 4.99998 4.33594 4.85073 4.33594 4.66665C4.33594 4.48257 4.48503 4.33331 4.66927 4.33331H5.00261C5.18685 4.33331 5.33594 4.48257 5.33594 4.66665C5.33594 4.85073 5.18685 4.99998 5.00261 4.99998Z" fill="#C8C5C9"/>
<path d="M3.66667 9.33329H0.333334C0.149092 9.33329 0 9.18404 0 8.99996C0 8.81588 0.149092 8.66663 0.333334 8.66663H3.66667C3.85092 8.66663 4.00001 8.81588 4.00001 8.99996C4.00001 9.18404 3.85092 9.33329 3.66667 9.33329Z" fill="#F9EAC7"/>
<path d="M3.33334 10.6667H1.33333C1.14909 10.6667 1 10.5174 1 10.3333C1 10.1493 1.14909 10 1.33333 10H3.33334C3.51758 10 3.66667 10.1493 3.66667 10.3333C3.66667 10.5174 3.51758 10.6667 3.33334 10.6667Z" fill="#F9EAC7"/>
<path d="M3 12H2.33333C2.14909 12 2 11.8508 2 11.6667C2 11.4826 2.14909 11.3334 2.33333 11.3334H3C3.18424 11.3334 3.33334 11.4826 3.33334 11.6667C3.33334 11.8508 3.18424 12 3 12Z" fill="#F9EAC7"/>
<path d="M6.99741 5.99996C6.91214 5.99996 6.82682 5.96739 6.76173 5.9023C6.63151 5.77207 6.63151 5.56117 6.76173 5.43095L9.92838 2.26429C10.0586 2.13407 10.2695 2.13407 10.3997 2.26429C10.53 2.39452 10.53 2.60542 10.3997 2.73565L7.23308 5.9023C7.16795 5.96739 7.08268 5.99996 6.99741 5.99996Z" fill="#E5646E"/>
<path d="M8.00261 5.33334C8.3708 5.33334 8.66927 5.03486 8.66927 4.66667C8.66927 4.29848 8.3708 4 8.00261 4C7.63441 4 7.33594 4.29848 7.33594 4.66667C7.33594 5.03486 7.63441 5.33334 8.00261 5.33334Z" fill="#5D5360"/>
</svg>
