<svg width="20" height="29" viewBox="0 0 20 29" fill="none" xmlns="http://www.w3.org/2000/svg">
<path d="M9.77896 28.9999C4.38367 28.9999 0 25.1287 0 20.3674V15.3768C0 14.8238 0.458599 14.3652 1.01162 14.3652C1.56463 14.3652 2.02323 14.8238 2.02323 15.3768C2.02323 18.9107 5.35482 21.5813 9.77896 21.5813C14.2031 21.5813 17.5347 18.9107 17.5347 15.3768C17.5347 14.8238 17.9933 14.3652 18.5463 14.3652C19.0993 14.3652 19.5579 14.8238 19.5579 15.3768V20.3674C19.5579 25.1287 15.1742 28.9999 9.77896 28.9999ZM2.02323 20.5158C2.11765 24.0902 5.55715 26.9766 9.77896 26.9766C14.0008 26.9766 17.4403 24.0902 17.5347 20.5158C15.7812 22.4176 13.0026 23.6046 9.77896 23.6046C6.55527 23.6046 3.79019 22.4176 2.02323 20.5158Z" fill="#171717"/>
<path d="M9.77896 16.8603C6.05621 16.8603 2.71112 15.1877 1.07904 12.4901C0.377654 11.3436 0 10.0083 0 8.63246C0 6.31249 1.0386 4.1274 2.91346 2.48183C4.74786 0.876735 7.18922 0 9.77896 0C12.3687 0 14.7966 0.876737 16.6445 2.46835C18.5193 4.1274 19.5579 6.31249 19.5579 8.63246C19.5579 10.0083 19.1803 11.3301 18.4789 12.4901C16.8468 15.1877 13.5017 16.8603 9.77896 16.8603ZM9.77896 2.02323C7.6748 2.02323 5.70554 2.72462 4.23532 4.01949C2.80557 5.26041 2.02323 6.90597 2.02323 8.63246C2.02323 9.64408 2.29298 10.5883 2.80553 11.438C4.08691 13.5422 6.7576 14.837 9.77896 14.837C12.8003 14.837 15.471 13.5287 16.7524 11.438C17.2784 10.5883 17.5347 9.64408 17.5347 8.63246C17.5347 6.90597 16.7524 5.26041 15.3091 3.99251C13.8389 2.72462 11.8831 2.02323 9.77896 2.02323Z" fill="#171717"/>
<path d="M9.77896 23.6044C4.20832 23.6044 0 20.0705 0 15.3766V8.63246C0 3.87112 4.38367 0 9.77896 0C12.3687 0 14.7966 0.876737 16.6445 2.46835C18.5193 4.1274 19.5579 6.31249 19.5579 8.63246V15.3766C19.5579 20.0705 15.3496 23.6044 9.77896 23.6044ZM9.77896 2.02323C5.50319 2.02323 2.02323 4.99064 2.02323 8.63246V15.3766C2.02323 18.9105 5.35482 21.5811 9.77896 21.5811C14.2031 21.5811 17.5347 18.9105 17.5347 15.3766V8.63246C17.5347 6.90597 16.7524 5.2604 15.3091 3.99251C13.8389 2.72462 11.8831 2.02323 9.77896 2.02323Z" fill="#171717"/>
</svg>
