<svg width="14" height="14" viewBox="0 0 14 14" fill="none" xmlns="http://www.w3.org/2000/svg">
<path d="M8.84957 14H4.98794C1.49316 14 0 12.5069 0 9.01211V5.15048C0 1.6557 1.49316 0.162538 4.98794 0.162538H6.27515C6.53903 0.162538 6.75785 0.381363 6.75785 0.645241C6.75785 0.909119 6.53903 1.12795 6.27515 1.12795H4.98794C2.02092 1.12795 0.965408 2.18346 0.965408 5.15048V9.01211C0.965408 11.9791 2.02092 13.0346 4.98794 13.0346H8.84957C11.8166 13.0346 12.8721 11.9791 12.8721 9.01211V7.7249C12.8721 7.46102 13.0909 7.24219 13.3548 7.24219C13.6187 7.24219 13.8375 7.46102 13.8375 7.7249V9.01211C13.8375 12.5069 12.3443 14 8.84957 14Z" fill="white"/>
<path d="M4.66373 10.7434C4.27113 10.7434 3.91072 10.6018 3.64684 10.3443C3.33147 10.029 3.19631 9.57202 3.26711 9.08931L3.54386 7.15206C3.59535 6.77877 3.83992 6.29607 4.1038 6.03219L9.1754 0.960581C10.4562 -0.320194 11.7563 -0.320194 13.037 0.960581C13.7386 1.66211 14.0539 2.37651 13.9896 3.09091C13.9316 3.67016 13.6227 4.23653 13.037 4.81577L7.96543 9.88738C7.70155 10.1513 7.21885 10.3958 6.84555 10.4473L4.9083 10.7241C4.82463 10.7434 4.74097 10.7434 4.66373 10.7434ZM9.85763 1.6428L4.78602 6.71441C4.66373 6.8367 4.52214 7.11988 4.4964 7.28722L4.21965 9.22447C4.1939 9.41112 4.23252 9.56558 4.32906 9.66212C4.4256 9.75866 4.58006 9.79728 4.76671 9.77153L6.70396 9.49478C6.8713 9.46904 7.16092 9.32745 7.27677 9.20516L12.3484 4.13355C12.7667 3.71521 12.9855 3.34192 13.0177 2.99437C13.0563 2.57603 12.8375 2.13194 12.3484 1.63637C11.3186 0.606598 10.6106 0.89622 9.85763 1.6428Z" fill="white"/>
<path d="M11.9686 5.68435C11.9236 5.68435 11.8785 5.67792 11.8399 5.66505C10.1472 5.18878 8.80209 3.84364 8.32582 2.15096C8.25502 1.89352 8.40305 1.62964 8.6605 1.55241C8.91794 1.48161 9.18182 1.62964 9.25261 1.88709C9.63878 3.25796 10.7265 4.34566 12.0973 4.73182C12.3548 4.80262 12.5028 5.07293 12.432 5.33037C12.3741 5.5492 12.181 5.68435 11.9686 5.68435Z" fill="white"/>
</svg>
