<svg width="45" height="14" viewBox="0 0 45 14" fill="none" xmlns="http://www.w3.org/2000/svg">
<path d="M16.4989 13.2853L18.7845 0.428476H22.3559L20.1417 13.2853H16.4989Z" fill="#3C58BF"/>
<path d="M16.4989 13.2853L19.4274 0.428476H22.3559L20.1417 13.2853H16.4989Z" fill="#293688"/>
<path d="M33.071 0.571413C32.3567 0.285706 31.2139 0 29.7854 0C26.2141 0 23.6427 1.78567 23.6427 4.35703C23.6427 6.28555 25.4284 7.28552 26.8569 7.92836C28.2854 8.5712 28.714 8.99976 28.714 9.57117C28.714 10.4283 27.5712 10.8569 26.5712 10.8569C25.1427 10.8569 24.357 10.6426 23.1427 10.1426L22.6427 9.92831L22.1427 12.8568C22.9999 13.2139 24.5712 13.5711 26.2141 13.5711C29.9997 13.5711 32.4996 11.7854 32.4996 9.07119C32.4996 7.57123 31.5711 6.4284 29.4283 5.49985C28.1426 4.85701 27.3569 4.49988 27.3569 3.85704C27.3569 3.28563 27.9997 2.71421 29.4283 2.71421C30.6425 2.71421 31.4996 2.92849 32.1425 3.2142L32.4996 3.35705L33.071 0.571413Z" fill="#3C58BF"/>
<path d="M33.071 0.571413C32.3567 0.285706 31.2139 0 29.7854 0C26.2141 0 24.2855 1.78567 24.2855 4.35703C24.2855 6.28555 25.4284 7.28552 26.8569 7.92836C28.2854 8.5712 28.714 8.99976 28.714 9.57117C28.714 10.4283 27.5712 10.8569 26.5712 10.8569C25.1427 10.8569 24.357 10.6426 23.1427 10.1426L22.6427 9.92831L22.1427 12.8568C22.9999 13.2139 24.5712 13.5711 26.2141 13.5711C29.9997 13.5711 32.4996 11.7854 32.4996 9.07119C32.4996 7.57123 31.5711 6.4284 29.4283 5.49985C28.1426 4.85701 27.3569 4.49988 27.3569 3.85704C27.3569 3.28563 27.9997 2.71421 29.4283 2.71421C30.6425 2.71421 31.4996 2.92849 32.1425 3.2142L32.4996 3.35705L33.071 0.571413Z" fill="#293688"/>
<path d="M39.2135 0.428476C38.3564 0.428476 37.7135 0.499903 37.3564 1.35702L31.9994 13.2853H35.8564L36.5707 11.1425H41.142L41.5706 13.2853H44.999L41.9991 0.428476H39.2135ZM37.5707 8.99968C37.785 8.35684 38.9992 5.21406 38.9992 5.21406C38.9992 5.21406 39.2849 4.42837 39.4992 3.92838L39.7135 5.14264C39.7135 5.14264 40.4277 8.35684 40.5706 9.0711H37.5707V8.99968Z" fill="#3C58BF"/>
<path d="M40.0706 0.428476C39.2135 0.428476 38.5706 0.499903 38.2135 1.35702L31.9994 13.2853H35.8564L36.5707 11.1425H41.142L41.5706 13.2853H44.999L41.9991 0.428476H40.0706ZM37.5707 8.99968C37.8564 8.28541 38.9992 5.21406 38.9992 5.21406C38.9992 5.21406 39.2849 4.42837 39.4992 3.92838L39.7135 5.14264C39.7135 5.14264 40.4277 8.35684 40.5706 9.0711H37.5707V8.99968Z" fill="#293688"/>
<path d="M9.92806 9.42826L9.57093 7.57117C8.92809 5.42837 6.85672 3.07129 4.57106 1.92846L7.78526 13.3567H11.6423L17.4279 0.499929H13.5708L9.92806 9.42826Z" fill="#3C58BF"/>
<path d="M9.92806 9.42826L9.57093 7.57117C8.92809 5.42837 6.85672 3.07129 4.57106 1.92846L7.78526 13.3567H11.6423L17.4279 0.499929H14.2851L9.92806 9.42826Z" fill="#293688"/>
<path d="M0 0.428476L0.64284 0.57133C5.21415 1.64273 8.35692 4.35694 9.57117 7.57114L8.28549 1.49988C8.07121 0.642756 7.42837 0.428476 6.64268 0.428476H0Z" fill="#FFBC00"/>
<path d="M0 0.428476C4.57131 1.49988 8.35692 4.28552 9.57117 7.49972L8.35692 2.42842C8.14264 1.5713 7.42837 1.07132 6.64268 1.07132L0 0.428476Z" fill="#F7981D"/>
<path d="M0 0.428476C4.57131 1.49988 8.35692 4.28552 9.57117 7.49972L8.71405 4.71408C8.49977 3.85696 8.21407 2.99984 7.21409 2.6427L0 0.428476Z" fill="#ED7C00"/>
<path d="M13.5004 8.99972L11.0719 6.57122L9.92907 9.28543L9.64336 7.49976C9.00052 5.35696 6.92915 2.99988 4.64349 1.85706L7.85769 13.2853H11.7147L13.5004 8.99972Z" fill="#051244"/>
<path d="M20.1436 13.2852L17.0723 10.1425L16.5008 13.2852H20.1436Z" fill="#051244"/>
<path d="M28.3569 8.8568C28.6426 9.14251 28.7854 9.35679 28.714 9.64249C28.714 10.4996 27.5712 10.9282 26.5712 10.9282C25.1427 10.9282 24.357 10.7139 23.1427 10.2139L22.6427 9.99963L22.1427 12.9281C22.9999 13.2853 24.5712 13.6424 26.2141 13.6424C28.4997 13.6424 30.3568 12.9995 31.4282 11.8567L28.3569 8.8568Z" fill="#051244"/>
<path d="M32.5005 13.2854H35.8576L36.5719 11.1426H41.1432L41.5717 13.2854H45.0002L43.786 8.07122L39.5004 3.92847L39.7146 5.0713C39.7146 5.0713 40.4289 8.2855 40.5718 8.99976H37.5718C37.8575 8.2855 39.0004 5.21415 39.0004 5.21415C39.0004 5.21415 39.2861 4.42846 39.5004 3.92847" fill="#051244"/>
</svg>
