<svg width="183" height="60" viewBox="0 0 183 60" fill="none" xmlns="http://www.w3.org/2000/svg">
<path d="M132.666 9.25958C136.728 5.19767 141.903 2.43148 147.537 1.3108C153.171 0.190128 159.011 0.765299 164.318 2.96358C169.625 5.16187 174.161 8.88454 177.353 13.6608C180.544 18.4371 182.248 24.0525 182.248 29.7969C182.248 35.5413 180.544 41.1567 177.353 45.933C174.161 50.7093 169.625 54.432 164.318 56.6303C159.011 58.8285 153.171 59.4037 147.537 58.283C141.903 57.1624 136.728 54.3962 132.666 50.3343" stroke="white" stroke-width="1.5"/>
<path d="M140.358 29.237L139.606 29.237L139.606 30.7419L140.358 30.7419L140.358 29.237ZM165.67 30.5215C165.963 30.2277 165.963 29.7512 165.67 29.4574L160.881 24.6686C160.587 24.3747 160.111 24.3747 159.817 24.6686C159.523 24.9625 159.523 25.4389 159.817 25.7328L164.073 29.9894L159.817 34.2461C159.523 34.54 159.523 35.0164 159.817 35.3103C160.111 35.6041 160.587 35.6041 160.881 35.3103L165.67 30.5215ZM140.358 30.7419L165.137 30.7419L165.137 29.237L140.358 29.237L140.358 30.7419Z" fill="white"/>
<path d="M50.334 9.25958C46.2721 5.19767 41.0969 2.43148 35.4629 1.3108C29.8289 0.190128 23.9891 0.765299 18.6819 2.96358C13.3748 5.16187 8.83873 8.88454 5.64732 13.6608C2.4559 18.4371 0.752486 24.0525 0.752486 29.7969C0.752485 35.5413 2.4559 41.1567 5.64731 45.933C8.83873 50.7093 13.3748 54.432 18.6819 56.6303C23.9891 58.8285 29.8289 59.4037 35.4629 58.283C41.0969 57.1624 46.2721 54.3962 50.334 50.3343" stroke="white" stroke-width="1.5"/>
<path d="M42.6417 29.237L43.3942 29.237L43.3942 30.7419L42.6417 30.7419L42.6417 29.237ZM17.3304 30.5215C17.0366 30.2277 17.0366 29.7512 17.3304 29.4574L22.1192 24.6686C22.413 24.3747 22.8895 24.3747 23.1833 24.6686C23.4772 24.9625 23.4772 25.4389 23.1833 25.7328L18.9267 29.9894L23.1833 34.2461C23.4772 34.54 23.4772 35.0164 23.1833 35.3103C22.8895 35.6041 22.413 35.6041 22.1192 35.3103L17.3304 30.5215ZM42.6417 30.7419L17.8625 30.7419L17.8625 29.237L42.6417 29.237L42.6417 30.7419Z" fill="white"/>
</svg>
