<svg width="10" height="16" viewBox="0 0 10 16" fill="none" xmlns="http://www.w3.org/2000/svg">
<path d="M8.25961 15.9686C8.69086 15.8749 8.98148 15.6186 9.10335 15.1811C9.23773 14.703 9.09085 14.3061 8.75023 13.9686C7.43775 12.6593 6.12214 11.353 4.80652 10.0468C4.15028 9.39054 3.49716 8.72805 2.77529 8.00306L8.75648 2.02187C9.25648 1.52187 9.2846 0.809382 8.84398 0.346887C8.40336 -0.115608 7.6565 -0.121858 7.16588 0.365637C4.89715 2.62186 2.63155 4.88746 0.375319 7.15619C-0.115301 7.64994 -0.127801 8.34368 0.356569 8.82805C2.62217 11.1093 4.89402 13.3811 7.17212 15.6467C7.47212 15.9436 7.84087 16.0624 8.25961 15.9686Z" fill="#818B9D"/>
</svg>
