<svg width="54" height="36" viewBox="0 0 54 36" fill="none" xmlns="http://www.w3.org/2000/svg">
<path d="M53.6724 5.20418C53.1528 2.73576 50.5232 2.07401 48.1873 2.27695C47.3934 1.85437 46.4314 1.90277 45.6618 2.05962C45.3622 1.58832 44.9783 1.20448 44.517 0.91586C44.2916 0.774963 44.014 0.731077 43.7567 0.795331C43.4984 0.85969 43.2739 1.02883 43.1409 1.25907C42.8982 1.67882 42.5645 2.57796 43.0021 3.93947C41.762 6.04767 41.6475 8.73689 38.3776 8.73689C33.9385 8.73689 33.2333 5.86709 31.5377 3.68676C30.0482 1.77163 27.7242 -1.32453 24.8897 0.615483C24.3305 0.998067 23.5814 1.26768 22.4606 1.48953C22.0341 1.57404 21.7567 1.98833 21.8412 2.41491C21.9257 2.84148 22.3392 3.11897 22.7665 3.03446C24.1063 2.76915 25.0354 2.42404 25.7789 1.91526C27.2275 0.923734 28.5074 2.35601 30.2946 4.65372C31.8413 6.64265 33.0111 10.3118 38.3777 10.3118C42.8155 10.3118 43.309 6.45073 44.4029 4.66611C44.6119 4.325 44.6566 3.9107 44.5253 3.52917C44.4576 3.33252 44.4151 3.15677 44.3907 3.00044C44.4074 3.02942 44.4236 3.05902 44.4393 3.08905C44.6847 3.55773 45.2122 3.79311 45.7217 3.66188C46.4919 3.46324 47.1376 3.47468 47.493 3.69337C47.7052 3.82398 47.9621 3.88183 48.2172 3.85611C48.7996 3.79731 51.7257 3.60161 52.1314 5.52881C52.1915 5.81449 52.18 5.94825 52.1714 5.99455C52.0222 6.07886 51.5209 6.13125 51.1502 6.16999C47.5326 6.54837 46.4674 7.69969 44.5226 9.8332C41.5846 13.0572 39.6432 15.1875 35.4525 13.9345C34.6853 13.705 33.851 14.0507 33.4679 14.7557C32.5462 16.4523 30.9628 18.0001 29.3824 19.1579C29.0044 19.4347 28.8597 19.4947 28.7495 19.7531C28.7479 19.7567 28.7458 19.7599 28.7444 19.7635L26.6686 24.8394C26.4779 25.2137 24.9112 28.3602 24.0764 32.2954C23.9133 33.0641 24.3254 33.829 25.0562 34.1142C25.3045 34.2111 25.5371 34.3154 25.7501 34.4249H23.6728C23.6751 33.6314 23.5488 33.5327 23.0148 32.8081C23.002 32.7906 22.9994 32.7683 23.0079 32.7487C23.5858 31.4158 24.9346 27.9936 24.9813 25.0036L27.4496 18.965C27.6828 18.3946 27.5835 17.7455 27.1905 17.2708C26.7982 16.797 26.1803 16.5785 25.577 16.7012C21.7762 17.4736 17.8167 17.0345 14.6234 14.9789C14.8678 14.3233 15.2419 13.2023 15.4942 11.8947C15.5766 11.4677 15.2972 11.0548 14.8702 10.9723C14.4433 10.8902 14.0303 11.1693 13.9479 11.5963C13.4488 14.1829 12.7171 15.7841 11.0706 17.8691C9.77527 19.5068 7.73468 21.5582 4.73375 23.2575C4.36628 23.4655 4.09604 23.7999 3.97278 24.1989C3.60993 25.3735 2.46428 29.4562 2.95899 32.6759C3.04141 33.2144 3.45644 33.649 3.99168 33.7572C4.34077 33.8279 4.91359 34.0038 5.22919 34.4247H1.59926C2.34511 29.7425 2.73085 26.1492 2.74628 23.7422C2.74765 23.5376 2.82292 23.3425 2.95847 23.1929C4.13824 21.8904 6.90326 18.432 7.09697 14.4609C7.32312 9.84097 7.2555 6.1577 13.1625 4.70695C15.4764 4.13864 17.4371 3.82703 19.0501 3.5971C19.4807 3.53578 19.7799 3.13703 19.7185 2.70647C19.6572 2.2759 19.2582 1.97657 18.8278 2.0381C17.1765 2.27349 15.1678 2.59287 12.7868 3.17766C9.44108 3.99942 7.68628 5.52041 6.74179 7.37926C5.83089 8.007 2.22595 10.9437 1.65228 18.4064C1.6189 18.84 1.94332 19.2185 2.37693 19.2519C2.3975 19.2534 2.41798 19.2542 2.43814 19.2542C2.8456 19.2542 3.19071 18.9402 3.22241 18.527C3.52415 14.6029 4.739 12.1134 5.70501 10.716C5.73861 10.6673 5.77189 10.6223 5.80538 10.5756C5.62868 11.8106 5.58679 13.094 5.52401 14.3843C5.35518 17.8474 2.85736 20.9588 1.79119 22.1359C1.39537 22.5731 1.17531 23.14 1.17153 23.7324C1.16114 25.3515 0.952735 28.5058 0.018428 34.3386C-0.121419 35.2103 0.552513 36 1.43496 36H5.55939C6.01442 36 6.44005 35.7758 6.6978 35.4005C6.9546 35.0264 7.01088 34.5508 6.84835 34.128C6.38094 32.9133 5.23959 32.4389 4.48996 32.2555C4.1163 29.3924 5.14699 25.7349 5.47771 24.6641C5.48348 24.6455 5.50038 24.6337 5.50994 24.6282C7.16994 23.6883 8.55371 22.6513 9.69778 21.625C9.79585 22.0093 9.91081 22.386 10.0441 22.752C11.4225 26.5346 12.0789 32.7361 12.1203 34.6847C12.1356 35.41 12.7384 36 13.4641 36H17.908C18.8884 36 19.5321 34.9397 19.0409 34.0729C18.3943 32.9328 17.1356 32.4879 16.3926 32.3198C15.2838 28.1069 14.8527 24.2665 14.9796 23.2132C14.9937 23.0969 15.0338 22.9829 15.099 22.8746C16.0332 21.3217 16.7397 19.6551 17.2058 17.9097C20.6262 18.9838 23.9181 18.6457 25.891 18.2447C25.963 18.23 26.0202 18.3 25.992 18.3693L23.521 24.4148C23.4482 24.5926 23.4098 24.782 23.4069 24.9775C23.3642 27.7597 21.9851 31.1497 21.5631 32.1225C21.3327 32.6546 21.4031 33.2752 21.7472 33.7424C21.8834 33.927 22.0528 34.15 22.0967 34.2171C22.0995 34.2808 22.098 34.5065 22.0978 34.5717C22.0978 35.3592 22.7385 35.9999 23.526 35.9999H27.1403C28.1186 35.9999 28.6378 34.8293 27.9734 34.1111C27.3162 33.4007 26.3356 32.9227 25.6288 32.647C25.6194 32.6434 25.6148 32.6335 25.6172 32.6223C26.442 28.7337 28.068 25.5624 28.0841 25.5311C28.095 25.5102 28.1049 25.4888 28.1138 25.467L29.3508 22.4419C29.534 22.7881 29.7433 23.1479 29.9671 23.5314C30.4495 24.3582 30.9962 25.2952 31.4823 26.4439C32.2143 28.1741 32.7492 30.4039 33.14 32.0322C33.4988 33.528 33.6342 34.0603 33.8558 34.356C33.903 34.4188 33.9722 34.5932 34.0123 34.8781C34.1022 35.5176 34.6578 35.9999 35.3047 35.9999H38.6864C39.2109 35.9999 39.6952 35.715 39.9501 35.2562C40.699 33.9086 39.0584 32.6193 37.5867 32.0955C37.5672 32.0886 37.555 32.0723 37.5482 32.0598C36.8293 30.7474 36.2089 29.1532 35.7036 27.3214C35.5879 26.9023 35.1546 26.6559 34.7351 26.7717C34.3159 26.8873 34.0698 27.3209 34.1854 27.7401C34.7229 29.6891 35.3896 31.397 36.167 32.8163C36.3622 33.1729 36.6788 33.4439 37.0584 33.5792C37.3544 33.6845 38.0266 33.9619 38.43 34.425H35.5321C35.453 34.0295 35.3225 33.702 35.1427 33.4483C35.0469 33.2313 34.8475 32.4005 34.6712 31.6649C34.2677 29.9832 33.7152 27.6804 32.9324 25.8303C32.4072 24.5887 31.8083 23.5623 31.327 22.7378C30.7925 21.8216 30.3526 21.0677 30.2663 20.4632C31.3227 19.6943 32.3181 18.8147 33.1714 17.854C33.2528 18.9949 33.2965 20.3861 33.183 21.6554C33.1198 22.3607 33.1836 22.8539 33.3678 23.9828C33.4378 24.412 33.8421 24.7032 34.2718 24.633C34.701 24.563 34.9921 24.1583 34.9221 23.7291C34.7375 22.5983 34.7089 22.2732 34.7515 21.7956C34.945 19.633 34.7168 17.1786 34.5753 15.9829C34.6829 15.8081 34.7749 15.6485 34.8514 15.5076C34.8809 15.4533 34.9443 15.4261 35.0011 15.4435C40.6677 17.1371 43.2092 13.5389 46.643 9.8522C48.3223 8.04921 50.0514 7.86831 51.3139 7.73634C52.2108 7.64247 52.9855 7.56153 53.4492 6.92508C53.8564 6.366 53.7716 5.67527 53.6724 5.20418ZM13.7491 22.0627C13.5686 22.3627 13.4564 22.6865 13.4157 23.0249C13.2482 24.4154 13.7638 28.546 14.8888 32.7944C15.03 33.3279 15.452 33.7299 15.9902 33.8438C16.2753 33.9041 16.8676 34.0651 17.3047 34.4249H13.6876C13.6028 32.1811 12.9153 26.0326 11.5235 22.2126C11.305 21.6132 11.1401 20.9805 11.0318 20.3271C12.5381 18.7358 13.4678 17.2884 13.9547 16.422C14.539 16.7856 15.1307 17.0932 15.7239 17.3539C15.2966 19.0112 14.6337 20.5925 13.7491 22.0627Z" fill="white"/>
<path d="M46.9452 5.81077C47.3414 5.81077 47.6626 5.48958 47.6626 5.09337C47.6626 4.69717 47.3414 4.37598 46.9452 4.37598C46.549 4.37598 46.2278 4.69717 46.2278 5.09337C46.2278 5.48958 46.549 5.81077 46.9452 5.81077Z" fill="white"/>
</svg>
