<svg width="21" height="29" viewBox="0 0 21 29" fill="none" xmlns="http://www.w3.org/2000/svg">
<path d="M10.2915 14.1187C10.2507 14.1187 10.2234 14.1187 10.1826 14.1187C10.1145 14.1051 10.0192 14.1051 9.93753 14.1187C5.9892 13.9962 3.00752 10.892 3.00752 7.06616C3.00752 3.17228 6.17981 0 10.0737 0C13.9676 0 17.1398 3.17228 17.1398 7.06616C17.1262 10.892 14.1309 13.9962 10.3324 14.1187C10.3188 14.1187 10.3051 14.1187 10.2915 14.1187ZM10.0737 2.04224C7.30985 2.04224 5.04977 4.30233 5.04977 7.06616C5.04977 9.78915 7.1737 11.9812 9.88307 12.0765C9.95115 12.0628 10.1418 12.0628 10.3188 12.0765C12.9873 11.9539 15.084 9.76192 15.0976 7.06616C15.0976 4.30233 12.8375 2.04224 10.0737 2.04224Z" fill="white"/>
<path d="M10.3065 28.9999C7.63799 28.9999 4.95584 28.3192 2.92722 26.9577C1.03474 25.7051 0 23.9896 0 22.1244C0 20.2591 1.03474 18.53 2.92722 17.2638C7.0117 14.5545 13.6286 14.5545 17.6858 17.2638C19.5647 18.5164 20.613 20.2319 20.613 22.0972C20.613 23.9624 19.5783 25.6915 17.6858 26.9577C15.6436 28.3192 12.9751 28.9999 10.3065 28.9999ZM4.05726 18.9793C2.75022 19.8507 2.04224 20.9671 2.04224 22.138C2.04224 23.2953 2.76384 24.4117 4.05726 25.2694C7.44738 27.5431 13.1657 27.5431 16.5558 25.2694C17.8628 24.3981 18.5708 23.2817 18.5708 22.1108C18.5708 20.9535 17.8492 19.8371 16.5558 18.9793C13.1657 16.7192 7.44738 16.7192 4.05726 18.9793Z" fill="white"/>
</svg>
