<svg width="32" height="32" viewBox="0 0 32 32" fill="none" xmlns="http://www.w3.org/2000/svg">
<path d="M28.0009 8.97314C27.9742 8.97314 27.9342 8.97314 27.8942 8.97314C20.8409 8.26647 13.8009 7.99981 6.82753 8.70647L4.10753 8.97314C3.54753 9.02647 3.0542 8.62647 3.00086 8.06647C2.94753 7.50647 3.34753 7.02647 3.8942 6.97314L6.6142 6.70647C13.7075 5.98647 20.8942 6.26647 28.0942 6.97314C28.6409 7.02647 29.0409 7.51981 28.9875 8.06647C28.9475 8.58647 28.5075 8.97314 28.0009 8.97314Z" fill="#FF445B"/>
<path d="M11.333 7.6265C11.2797 7.6265 11.2264 7.6265 11.1597 7.61317C10.6264 7.51984 10.253 6.99984 10.3464 6.4665L10.6397 4.71984C10.853 3.43984 11.1464 1.6665 14.253 1.6665H17.7464C20.8664 1.6665 21.1597 3.5065 21.3597 4.73317L21.653 6.4665C21.7464 7.01317 21.373 7.53317 20.8397 7.61317C20.293 7.7065 19.773 7.33317 19.693 6.79984L19.3997 5.0665C19.213 3.9065 19.173 3.67984 17.7597 3.67984H14.2664C12.853 3.67984 12.8264 3.8665 12.6264 5.05317L12.3197 6.7865C12.2397 7.27984 11.813 7.6265 11.333 7.6265Z" fill="#FF445B"/>
<path d="M20.2792 30.3334H11.7192C7.06588 30.3334 6.87921 27.7601 6.73255 25.6801L5.86588 12.2534C5.82588 11.7068 6.25255 11.2268 6.79921 11.1868C7.35921 11.1601 7.82588 11.5734 7.86588 12.1201L8.73255 25.5468C8.87921 27.5734 8.93255 28.3334 11.7192 28.3334H20.2792C23.0792 28.3334 23.1325 27.5734 23.2659 25.5468L24.1325 12.1201C24.1725 11.5734 24.6525 11.1601 25.1992 11.1868C25.7459 11.2268 26.1725 11.6934 26.1325 12.2534L25.2659 25.6801C25.1192 27.7601 24.9325 30.3334 20.2792 30.3334Z" fill="#FF445B"/>
<path d="M18.2134 23H13.7734C13.2268 23 12.7734 22.5467 12.7734 22C12.7734 21.4533 13.2268 21 13.7734 21H18.2134C18.7601 21 19.2134 21.4533 19.2134 22C19.2134 22.5467 18.7601 23 18.2134 23Z" fill="#FF445B"/>
<path d="M19.3346 17.6665H12.668C12.1213 17.6665 11.668 17.2132 11.668 16.6665C11.668 16.1198 12.1213 15.6665 12.668 15.6665H19.3346C19.8813 15.6665 20.3346 16.1198 20.3346 16.6665C20.3346 17.2132 19.8813 17.6665 19.3346 17.6665Z" fill="#FF445B"/>
</svg>
