<svg width="18" height="18" viewBox="0 0 18 18" fill="none" xmlns="http://www.w3.org/2000/svg">
<g clip-path="url(#clip0_243_3824)">
<path d="M17.8936 8.67079L16.6512 6.94909L16.8677 4.83782C16.8924 4.59626 16.7595 4.36609 16.5378 4.26695L14.6001 3.4L13.7333 1.46215C13.6341 1.24064 13.404 1.10771 13.1625 1.13228L11.0503 1.3486L9.329 0.106286C9.13234 -0.0354286 8.86729 -0.0354286 8.67063 0.106286L6.94935 1.34856L4.83752 1.13225C4.59705 1.10767 4.36593 1.2406 4.26679 1.46226L3.40012 3.39996L1.46228 4.26667C1.24062 4.36584 1.10755 4.59584 1.13227 4.83739L1.34858 6.94951L0.106409 8.67079C-0.0354462 8.86731 -0.0354462 9.13264 0.106268 9.32916L1.34869 11.0507L1.13251 13.1627C1.1078 13.4043 1.24086 13.6343 1.46238 13.7334L3.39981 14.6L4.26676 16.538C4.36593 16.7595 4.59705 16.8923 4.83748 16.8678L6.94931 16.6517L8.6706 17.8937C8.76893 17.9645 8.88427 17.9999 8.99976 17.9999C9.11511 17.9999 9.2306 17.9645 9.32879 17.8937L11.0505 16.6517L13.1626 16.8677C13.4055 16.8923 13.6342 16.7593 13.7333 16.5377L14.6 14.6003L16.5377 13.7334C16.7593 13.6342 16.8923 13.4041 16.8676 13.1627L16.6513 11.0507L17.8936 9.32916C18.0354 9.13264 18.0354 8.86731 17.8936 8.67079Z" fill="#F34336"/>
<path d="M17.896 8.67081L16.6536 6.94911L16.8701 4.83784C16.8948 4.59628 16.7618 4.36611 16.5402 4.26697L14.6025 3.40002L13.7356 1.46217C13.6365 1.24066 13.4063 1.10773 13.1649 1.1323L11.4531 1.30756C11.4953 1.35245 11.5316 1.40371 11.5577 1.46217L12.4246 3.40002L14.3623 4.26697C14.584 4.36615 14.7169 4.59628 14.6922 4.83784L14.4757 6.94911L15.7181 8.67081C15.8598 8.86733 15.8598 9.13266 15.7181 9.32918L14.4759 11.0507L14.6922 13.1627C14.7169 13.4041 14.5838 13.6343 14.3623 13.7334L12.4246 14.6003L11.5579 16.5377C11.5317 16.5963 11.4954 16.6477 11.4531 16.6926L13.1651 16.8677C13.408 16.8923 13.6366 16.7594 13.7358 16.5377L14.6025 14.6003L16.5402 13.7334C16.7617 13.6343 16.8948 13.4041 16.8701 13.1627L16.6537 11.0507L17.896 9.32918C18.0377 9.13266 18.0377 8.86733 17.896 8.67081Z" fill="#D22F2F"/>
<path d="M4.74089 6.93149H3.09375C2.8607 6.93149 2.67188 7.12031 2.67188 7.35336V10.6465C2.67188 10.8796 2.8607 11.0684 3.09375 11.0684C3.32676 11.0684 3.51562 10.8796 3.51562 10.6465V9.42167H4.41102C4.64407 9.42167 4.83289 9.23271 4.83289 8.9998C4.83289 8.76692 4.64407 8.57792 4.41102 8.57792H3.51562V7.77524H4.74089C4.97394 7.77524 5.16276 7.58641 5.16276 7.35336C5.16276 7.12031 4.97394 6.93149 4.74089 6.93149Z" fill="#FEEA3B"/>
<path d="M11.5179 7.775C11.751 7.77486 11.9397 7.58589 11.9397 7.35284C11.9395 7.11993 11.7507 6.93121 11.5178 6.93121H11.5177L9.87095 6.93164C9.63804 6.93178 9.44922 7.1206 9.44922 7.35351V10.647C9.44922 10.7588 9.49373 10.8662 9.57283 10.9453C9.65193 11.0244 9.75916 11.069 9.87113 11.069H9.87127L11.518 11.0684C11.751 11.0684 11.9397 10.8794 11.9397 10.6464C11.9396 10.4135 11.7508 10.2246 11.5178 10.2246H11.5177L10.293 10.2249V9.42185L11.1884 9.42171C11.4213 9.42157 11.6101 9.23275 11.6101 8.9997C11.6101 8.76679 11.4212 8.57796 11.1883 8.57796H11.1881L10.293 8.5781V7.77528L11.5179 7.775Z" fill="#FEEA3B"/>
<path d="M14.9045 10.2247L13.6797 10.2248V9.42185L14.5751 9.42171C14.8081 9.42157 14.997 9.23275 14.997 8.9997C14.997 8.76679 14.808 8.57782 14.5751 8.57796L13.6797 8.5781V7.77528L14.9047 7.775C15.1377 7.77486 15.3265 7.58589 15.3264 7.35284C15.3263 7.11993 15.1374 6.93121 14.9045 6.93121H14.9044L13.2577 6.93164C13.0248 6.93178 12.8359 7.1206 12.8359 7.35351V10.6467C12.8359 10.7586 12.8804 10.866 12.9595 10.9451C13.0386 11.0242 13.146 11.0686 13.2578 11.0686L14.9046 11.0684C15.1376 11.0684 15.3264 10.8795 15.3264 10.6466C15.3264 10.4135 15.1374 10.2247 14.9045 10.2247Z" fill="#FEEA3B"/>
<path d="M7.58137 9.42185H8.04487C8.27792 9.42185 8.46675 9.23289 8.46675 8.99998V7.35355C8.46675 7.12049 8.27792 6.93167 8.04487 6.93167H6.39844C6.16539 6.93167 5.97656 7.12049 5.97656 7.35355V10.6467C5.97656 10.8797 6.16539 11.0686 6.39844 11.0686C6.63149 11.0686 6.82031 10.8797 6.82031 10.6467V9.85392L7.91138 10.9451C7.99379 11.0275 8.10172 11.0686 8.20968 11.0686C8.31761 11.0686 8.42558 11.0274 8.50798 10.9451C8.6728 10.7803 8.6728 10.5132 8.50798 10.3485L7.58137 9.42185ZM6.82031 7.77542H7.623V8.57811H6.82031V7.77542Z" fill="#FEEA3B"/>
</g>
<defs>
<clipPath id="clip0_243_3824">
<rect width="18" height="18" fill="white"/>
</clipPath>
</defs>
</svg>
