<svg width="32" height="32" viewBox="0 0 32 32" fill="none" xmlns="http://www.w3.org/2000/svg">
<path d="M29.6473 24.3532C31.1896 21.8404 32.0041 18.9487 32 16.0003V15.9997C32.0041 13.0513 31.1896 10.1596 29.6472 7.64675L29.6384 7.63304C28.2075 5.30077 26.2023 3.37442 23.8146 2.03807C21.4269 0.701718 18.7363 1.11813e-05 16.0001 1.33624e-10C13.2638 -1.1181e-05 10.5733 0.701674 8.18552 2.03801C5.79778 3.37434 3.79263 5.30067 2.36166 7.63292L2.35277 7.64682C0.814201 10.1614 1.14202e-05 13.052 1.20137e-10 16C-1.14199e-05 18.9479 0.814155 21.8385 2.35271 24.3531L2.36175 24.3672C3.79272 26.6994 5.79787 28.6257 8.18559 29.962C10.5733 31.2983 13.2638 32 16.0001 32C18.7363 32 21.4268 31.2983 23.8145 29.962C26.2022 28.6256 28.2074 26.6993 29.6383 24.3671L29.6473 24.3532ZM18.0452 29.2578C17.7403 29.552 17.3894 29.7944 17.0063 29.9753C16.6919 30.1247 16.3481 30.2022 16 30.2022C15.6519 30.2022 15.3081 30.1247 14.9937 29.9753C14.2647 29.603 13.6407 29.0538 13.1787 28.3781C12.2351 27.0146 11.5358 25.4974 11.1121 23.8943C12.7398 23.7941 14.3691 23.7431 16 23.7412C17.6303 23.7412 19.2597 23.7922 20.8882 23.8943C20.6537 24.7185 20.3607 25.525 20.0116 26.3077C19.5519 27.4083 18.8842 28.41 18.0452 29.2578ZM1.82904 16.8989H8.28261C8.32463 18.6997 8.51982 20.4936 8.86607 22.2613C7.10191 22.4165 5.34227 22.6297 3.58712 22.9009C2.55934 21.057 1.95855 19.0059 1.82904 16.8989ZM3.58711 9.09907C5.34156 9.37094 7.10183 9.58421 8.86792 9.73886C8.52099 11.5064 8.32537 13.3003 8.28319 15.1011H1.82904C1.95854 12.9941 2.55933 10.943 3.58711 9.09907ZM13.9548 2.74217C14.2597 2.44798 14.6106 2.20561 14.9937 2.02464C15.3081 1.87524 15.6519 1.79773 16 1.79773C16.3481 1.79773 16.6919 1.87524 17.0063 2.02464C17.7353 2.39701 18.3593 2.94615 18.8213 3.62188C19.7649 4.98539 20.4642 6.5026 20.8879 8.10571C19.2602 8.20587 17.6309 8.2569 16 8.25878C14.3697 8.25876 12.7403 8.20773 11.1118 8.10569C11.3463 7.28145 11.6393 6.47495 11.9884 5.69233C12.4481 4.59168 13.1158 3.59 13.9548 2.74217ZM30.171 15.1011H23.7174C23.6754 13.3003 23.4802 11.5064 23.134 9.7387C24.8981 9.58346 26.6578 9.37025 28.4129 9.09906C29.4407 10.943 30.0415 12.9941 30.171 15.1011ZM10.6742 22.1215C10.3226 20.4016 10.1241 18.6539 10.0808 16.8989H21.9194C21.8765 18.6539 21.6783 20.4016 21.3271 22.1216C19.5533 22.0052 17.7776 21.9458 16 21.9435C14.2237 21.9435 12.4484 22.0028 10.6742 22.1215ZM21.3258 9.87846C21.6774 11.5984 21.8759 13.3461 21.9192 15.1011H10.0806C10.1235 13.3461 10.3217 11.5984 10.6729 9.87838C12.4467 9.99476 14.2224 10.0541 16 10.0565C17.7764 10.0565 19.5516 9.99715 21.3258 9.87846ZM23.7168 16.8989H30.171C30.0415 19.0059 29.4407 21.057 28.4129 22.9009C26.6584 22.629 24.8982 22.4158 23.1321 22.2611C23.479 20.4936 23.6746 18.6997 23.7168 16.8989ZM27.335 7.44442C25.801 7.66573 24.2625 7.84096 22.7193 7.97008C22.442 6.93748 22.0843 5.92816 21.6495 4.95136C21.2526 4.05247 20.7531 3.20245 20.161 2.41822C23.0223 3.29572 25.5331 5.05485 27.335 7.44442ZM5.95745 5.95745C7.59877 4.31457 9.61803 3.09939 11.8382 2.41843C11.8045 2.46206 11.7699 2.50375 11.7367 2.54828C10.5955 4.19106 9.76427 6.02863 9.28396 7.97036C7.74073 7.83965 6.20108 7.66434 4.66502 7.44442C5.06118 6.91968 5.49301 6.42285 5.95745 5.95745ZM4.66501 24.5556C6.19896 24.3342 7.73751 24.159 9.28067 24.0299C9.55801 25.0625 9.91571 26.0718 10.3505 27.0486C10.7474 27.9475 11.2469 28.7975 11.839 29.5818C8.97772 28.7043 6.46689 26.9451 4.66501 24.5556ZM26.0426 26.0425C24.4012 27.6854 22.382 28.9006 20.1618 29.5816C20.1955 29.5379 20.2301 29.4962 20.2633 29.4517C21.4045 27.8089 22.2357 25.9714 22.7161 24.0296C24.2593 24.1603 25.7989 24.3357 27.335 24.5556C26.9388 25.0803 26.507 25.5771 26.0426 26.0425Z" fill="black"/>
</svg>
