<svg width="24" height="24" viewBox="0 0 24 24" fill="none" xmlns="http://www.w3.org/2000/svg">
<path d="M1.59961 21.9999L3.59961 19.9999M12.0996 2.3999C6.79961 2.79991 2.59961 6.24989 2.59961 11.4999C2.59961 16.7499 6.84961 20.9999 12.0996 20.9999C17.3496 20.9999 21.5996 16.7499 21.5996 11.4999C21.5996 7.79989 18.1972 2.3999 12.0996 2.3999Z" stroke="#BDC1DF" stroke-width="1.3" stroke-linecap="round" stroke-linejoin="round"/>
<path opacity="0.963" fill-rule="evenodd" clip-rule="evenodd" d="M16.6144 6.26907C15.7437 6.49829 15.5182 7.01368 15.9379 7.81521C17.0272 8.80466 17.5442 10.0399 17.4891 11.5209C17.7908 12.2184 18.2788 12.3829 18.9532 12.0148C19.0837 11.9001 19.1766 11.7611 19.2319 11.5978C19.3949 9.50805 18.6817 7.77642 17.0926 6.40299C16.9315 6.34346 16.772 6.29881 16.6144 6.26907Z" fill="#BDC1DF"/>
</svg>
