<svg width="79" height="79" viewBox="0 0 79 79" fill="none" xmlns="http://www.w3.org/2000/svg">
<rect width="79.0001" height="79.0001" rx="22.6316" fill="#DD3F61"/>
<path d="M44.2575 38.2273C44.9822 38.2273 45.6907 38.0123 46.2933 37.6097C46.8959 37.2071 47.3656 36.6348 47.6429 35.9652C47.9202 35.2956 47.9928 34.5589 47.8514 33.8481C47.71 33.1372 47.361 32.4843 46.8486 31.9719C46.3361 31.4594 45.6832 31.1104 44.9724 30.969C44.2616 30.8276 43.5248 30.9002 42.8552 31.1775C42.1857 31.4549 41.6134 31.9245 41.2107 32.5271C40.8081 33.1297 40.5932 33.8382 40.5932 34.5629C40.5932 35.5348 40.9793 36.4668 41.6664 37.154C42.3536 37.8412 43.2857 38.2273 44.2575 38.2273ZM44.2575 32.7308C44.6199 32.7308 44.9741 32.8382 45.2754 33.0395C45.5767 33.2409 45.8115 33.527 45.9502 33.8618C46.0889 34.1966 46.1252 34.565 46.0545 34.9204C45.9838 35.2758 45.8093 35.6022 45.553 35.8585C45.2968 36.1147 44.9704 36.2892 44.6149 36.3599C44.2595 36.4306 43.8912 36.3943 43.5564 36.2556C43.2216 36.117 42.9354 35.8821 42.7341 35.5808C42.5328 35.2795 42.4254 34.9253 42.4254 34.5629C42.4254 34.077 42.6184 33.611 42.962 33.2674C43.3056 32.9238 43.7716 32.7308 44.2575 32.7308Z" fill="white"/>
<path d="M18.1491 51.7514C17.7435 52.09 17.4126 52.5091 17.1772 52.9821C16.9418 53.4551 16.807 53.9719 16.7814 54.4996C16.7552 55.013 16.8375 55.5261 17.023 56.0055C17.2084 56.4849 17.4929 56.9197 17.8578 57.2818C18.4312 57.8307 19.1604 58.1888 19.9453 58.3071C20.7302 58.4253 21.5325 58.2979 22.2422 57.9423C23.275 57.2912 24.1905 56.4704 24.9501 55.5146C24.8897 56.8301 24.7788 58.4296 24.5709 59.8065C24.4517 60.5758 24.5646 61.3632 24.895 62.0681C25.2255 62.773 25.7585 63.3635 26.4261 63.764C27.0937 64.1645 27.8655 64.357 28.6429 64.3169C29.4204 64.2767 30.1683 64.0058 30.791 63.5386C32.1146 62.5627 33.3203 61.4363 34.3839 60.1821C34.5312 61.3711 34.7506 62.5502 35.0407 63.7126C35.314 64.8095 35.9474 65.7829 36.8395 66.4771C37.7315 67.1714 38.8307 67.5463 39.961 67.5419C40.9148 67.5367 41.8481 67.2651 42.6558 66.7579C43.4635 66.2506 44.1134 65.5278 44.5322 64.6709C44.8959 63.9011 45.2182 63.1124 45.4978 62.3083C46.5769 63.8889 47.8098 65.3587 49.1786 66.6963C49.8177 67.2414 50.6284 67.5439 51.4683 67.5507C52.3082 67.5575 53.1237 67.2681 53.7715 66.7334C54.4193 66.1987 54.858 65.4528 55.0105 64.6268C55.163 63.8008 55.0196 62.9475 54.6055 62.2167C52.3336 58.2061 51.2389 55.4514 50.8495 52.7343C51.7946 52.5308 52.6471 52.0233 53.2764 51.2894C53.9057 50.5555 54.2773 49.6357 54.3343 48.6706C54.3292 47.7508 54.0279 46.8572 53.475 46.1221C52.9532 45.3685 52.5727 44.5264 52.3519 43.6367C52.8385 43.6931 53.3278 43.7222 53.8176 43.7238C55.8715 43.7238 58.3852 43.1906 59.8876 41.0177L60.0708 41.08C60.2821 41.1614 60.5066 41.2033 60.7331 41.2036C60.9808 41.2029 61.2256 41.1515 61.4527 41.0525C61.6797 40.9536 61.8841 40.8092 62.0532 40.6283C62.3153 40.3524 62.4899 40.0052 62.5551 39.6303C62.6203 39.2554 62.5732 38.8695 62.4196 38.5214C60.5508 34.2158 55.5729 33.1101 52.9382 32.8298C52.7242 32.0349 52.4387 31.261 52.0853 30.5176C53.4533 29.5734 54.4598 28.1923 54.9394 26.6008C55.4191 25.0093 55.3435 23.302 54.725 21.7591C54.1066 20.2163 52.982 18.9295 51.5359 18.11C50.0897 17.2905 48.408 16.9869 46.7666 17.2491C46.43 16.0547 45.7541 14.9836 44.8209 14.1658C43.8877 13.3479 42.7372 12.8184 41.509 12.6414C40.2808 12.4644 39.0276 12.6476 37.9015 13.1687C36.7753 13.6898 35.8245 14.5265 35.1644 15.5772C34.5451 15.4092 33.9062 15.3245 33.2645 15.3253C31.3215 15.3275 29.4587 16.1003 28.0847 17.4742C26.7108 18.8481 25.938 20.7109 25.9358 22.6539C25.9321 24.2776 26.473 25.8555 27.4721 27.1354C23.4212 30.9069 21.3554 36.7845 21.3554 44.6399C21.3627 45.9859 21.0801 47.3177 20.5268 48.5448C19.9736 49.7719 19.1626 50.8656 18.1491 51.7514ZM49.7539 51.0524C49.025 51.0524 48.326 50.7629 47.8106 50.2475C47.2952 49.7321 47.0057 49.0331 47.0057 48.3042C47.0057 44.9009 49.2043 43.8749 50.4428 43.5671C50.7097 44.8742 51.2396 46.1134 52.0001 47.2095C52.3199 47.63 52.496 48.1423 52.5021 48.6706C52.5021 50.0118 51.0254 51.0524 49.7539 51.0524ZM52.3711 41.8C52.5452 41.2714 52.7138 40.7456 52.8612 40.2115C53.5899 40.1118 54.3244 40.061 55.0598 40.0595C56.0551 40.0743 57.0453 40.2046 58.0105 40.4479C56.4972 42.018 53.9486 42.0006 52.3711 41.8ZM60.735 39.2533C60.7707 39.3367 60.7148 39.3724 60.7056 39.3632C60.4253 39.2615 60.1267 39.1589 59.7813 39.0399C57.683 38.3565 55.4676 38.1072 53.2698 38.307C53.3669 37.6743 53.4165 37.0352 53.4182 36.3951C53.4149 35.8367 53.3776 35.279 53.3065 34.7251C55.5069 35.0467 59.3489 36.0608 60.735 39.2533ZM33.2645 17.1575C33.9467 17.1551 34.623 17.2848 35.256 17.5395C35.4743 17.628 35.7183 17.629 35.9374 17.5424C36.1564 17.4557 36.3336 17.288 36.4323 17.0741C36.8495 16.1665 37.5521 15.4201 38.4328 14.9488C39.3136 14.4775 40.3243 14.307 41.3109 14.4634C42.2975 14.6197 43.206 15.0944 43.8979 15.8149C44.5898 16.5355 45.0271 17.4625 45.1433 18.4546C45.1588 18.5873 45.203 18.7149 45.273 18.8286C45.343 18.9424 45.437 19.0394 45.5485 19.113C45.6599 19.1865 45.7861 19.2349 45.9182 19.2545C46.0503 19.2742 46.1851 19.2648 46.3131 19.2269C46.8351 19.0706 47.3769 18.9907 47.9217 18.9896C49.0788 18.9899 50.2062 19.3554 51.1434 20.0339C52.0806 20.7124 52.7798 21.6693 53.1414 22.7684C53.5029 23.8674 53.5085 25.0526 53.1572 26.155C52.8059 27.2574 52.1156 28.2208 51.1848 28.908C49.9391 26.9898 48.2341 25.413 46.2245 24.3208C44.2148 23.2287 41.9643 22.6557 39.677 22.6539C35.8177 22.5816 32.0353 23.7381 28.8764 25.9564C28.1549 25.0068 27.7655 23.8465 27.768 22.6539C27.7694 21.1966 28.349 19.7994 29.3795 18.7689C30.4099 17.7385 31.8072 17.1589 33.2645 17.1575ZM39.677 24.4861C42.8344 24.4897 45.8614 25.7456 48.094 27.9782C50.3266 30.2108 51.5824 33.2378 51.5861 36.3951C51.5217 38.2099 51.1468 40.0001 50.4776 41.6882C48.9269 41.9293 47.5226 42.742 46.541 43.9664C45.5594 45.1908 45.0716 46.7382 45.1735 48.3042C45.1771 49.3893 45.5659 50.438 46.2705 51.2632C46.9751 52.0885 47.9499 52.6368 49.021 52.8104C49.4195 55.8334 50.5784 58.8052 53.0179 63.1181C53.1666 63.3834 53.2432 63.683 53.2401 63.987C53.2369 64.2911 53.1542 64.5891 53.0001 64.8512C52.846 65.1134 52.6259 65.3306 52.3617 65.4812C52.0976 65.6318 51.7985 65.7106 51.4945 65.7097C51.0901 65.7147 50.6973 65.575 50.3869 65.3158C48.7265 63.5965 47.2373 61.7198 45.9403 59.7121C45.8431 59.563 45.7045 59.4454 45.5416 59.3738C45.3787 59.3021 45.1984 59.2795 45.0228 59.3086C44.8472 59.3378 44.6839 59.4175 44.5529 59.5379C44.4218 59.6584 44.3287 59.8144 44.2849 59.9869C43.9429 61.3301 43.4717 62.6371 42.8778 63.8894C42.6097 64.4346 42.1944 64.8939 41.679 65.2156C41.1636 65.5372 40.5685 65.7084 39.961 65.7097C39.2396 65.7136 38.5378 65.4754 37.9679 65.0331C37.398 64.5908 36.9931 63.97 36.8179 63.2702C36.3394 61.3701 36.0694 59.4236 36.0127 57.465C36.0125 57.2588 35.9427 57.0587 35.8146 56.897C35.6866 56.7354 35.5077 56.6217 35.307 56.5744C35.1064 56.527 34.8956 56.5487 34.7087 56.636C34.5219 56.7234 34.37 56.8711 34.2777 57.0555C33.1202 59.038 31.5538 60.7512 29.6826 62.0811C29.3498 62.3275 28.9512 62.4691 28.5375 62.488C28.1239 62.5068 27.714 62.402 27.3602 62.187C27.0063 61.9719 26.7246 61.6564 26.5509 61.2805C26.3771 60.9047 26.3193 60.4856 26.3847 60.0767C26.6906 57.6915 26.8466 55.2894 26.8519 52.8846C26.8519 52.6946 26.7928 52.5094 26.6828 52.3545C26.5728 52.1996 26.4175 52.0828 26.2382 52.0201C26.0588 51.9574 25.8645 51.952 25.682 52.0046C25.4995 52.0573 25.3378 52.1653 25.2195 52.3139C23.5513 54.4062 22.3256 55.8078 21.3719 56.3272C21.0104 56.4967 20.6065 56.5545 20.212 56.4933C19.8174 56.4321 19.4501 56.2547 19.1568 55.9837C18.9721 55.8017 18.8276 55.5828 18.7329 55.3413C18.6383 55.0999 18.5954 54.8412 18.6072 54.5821C18.6205 54.3086 18.6906 54.0409 18.813 53.796C18.9354 53.5511 19.1074 53.3343 19.3181 53.1594C20.5362 52.0998 21.5123 50.7907 22.1799 49.3207C22.8476 47.8507 23.1912 46.2543 23.1876 44.6399C23.1876 26.4502 34.7192 24.4861 39.677 24.4861Z" fill="white"/>
</svg>
