<svg width="17" height="21" viewBox="0 0 17 21" fill="none" xmlns="http://www.w3.org/2000/svg">
<path d="M14.0995 7.86338C10.5312 3.92237 9.72065 0.857238 9.72065 0.857238C9.72065 0.857238 9.10266 1.13302 8.407 1.76489L7.53124 11.8044L8.407 20.3842H8.40704C12.711 20.3841 16.2 16.8951 16.2 12.5912C16.2 10.8134 15.2071 9.08677 14.0995 7.86338Z" fill="#FF6200"/>
<path d="M7.09653 3.48431C6.65018 4.37706 6.54504 5.38357 6.54931 6.15596C6.55342 6.90524 6.02557 7.55188 5.29087 7.69885C4.77756 7.80152 4.24692 7.64084 3.87676 7.27068L3.15556 6.54948C3.15556 6.54948 2.08641 8.02369 1.90319 8.30104C1.08023 9.5468 0.605421 11.0427 0.617408 12.6503C0.649347 16.9435 4.11683 20.3839 8.41019 20.3839V1.76465C7.95513 2.17796 7.4669 2.74357 7.09653 3.48431Z" fill="#FD7D21"/>
<path d="M14.5596 7.45008C12.7791 5.48358 11.721 3.75246 11.1468 2.64649C10.5249 1.44855 10.3211 0.705722 10.3196 0.69981L10.1345 0L9.47338 0.294875C9.43573 0.311665 8.98318 0.517951 8.41054 0.961474L7.97264 1.733L8.41054 2.64094C8.75275 2.25707 9.10572 1.97012 9.38959 1.77147C9.85273 2.94949 11.0268 5.38325 13.6466 8.27674C14.2303 8.92134 15.5878 10.6321 15.5878 12.5912C15.5878 16.5488 12.3681 19.7685 8.41059 19.7685L7.97264 20.5621L8.41054 21C13.0471 21 16.8193 17.2278 16.8193 12.5912C16.8193 10.9101 15.9957 9.03624 14.5596 7.45008Z" fill="#FFB62D"/>
<path d="M3.34813 17.6903C1.99761 16.3501 1.24603 14.5586 1.23179 12.646C1.22112 11.2142 1.63049 9.82917 2.4156 8.64076C2.51146 8.49568 2.89599 7.95922 3.22978 7.49628L3.43993 7.70642C3.95685 8.22334 4.69324 8.44638 5.41025 8.30298C6.43195 8.09863 7.1694 7.19442 7.16369 6.1529C7.16012 5.50834 7.24091 4.57002 7.64589 3.75999C7.86556 3.32065 8.13371 2.94958 8.40879 2.641V0.961485C7.80566 1.4287 7.06936 2.15917 6.54434 3.2092C6.03058 4.23676 5.92783 5.38084 5.93214 6.15959C5.93464 6.6128 5.61354 7.00632 5.16866 7.09528C4.85675 7.1576 4.53589 7.06063 4.31076 6.83551L3.07933 5.60407L2.65571 6.1882C2.61175 6.24883 1.5765 7.67657 1.38803 7.96184C0.467693 9.35502 -0.0122029 10.9779 0.0002358 12.6551C0.0169028 14.8951 0.897792 16.9937 2.48063 18.5644C4.06334 20.135 6.16868 21 8.40879 21V19.7684C6.49586 19.7684 4.69861 19.0304 3.34813 17.6903Z" fill="#FDCB02"/>
<path d="M8.41092 8.45839C8.40637 8.45839 8.40181 8.45856 8.39725 8.45856L7.37108 13.2751L8.39725 18.0917C8.40181 18.0917 8.40637 18.0919 8.41092 18.0919C11.0711 18.0919 13.2277 15.9353 13.2277 13.2751C13.2277 10.6149 11.0711 8.45839 8.41092 8.45839Z" fill="#ED3800"/>
<path d="M3.59374 13.275C3.59374 15.9306 5.74289 18.0841 8.39681 18.0915V8.45839C5.74293 8.46578 3.59374 10.6193 3.59374 13.275Z" fill="#FF4B00"/>
<path d="M11.0238 10.4478H9.6586L8.39683 12.2955L7.97264 13.9938L8.39683 14.2948L11.0238 10.4478Z" fill="#D9E7EC"/>
<path d="M10.483 13.033C9.62673 13.033 8.98046 13.6066 8.98046 14.6083C8.98046 15.618 9.62669 16.1835 10.483 16.1835C11.3393 16.1835 11.9855 15.618 11.9855 14.6083C11.9855 13.6066 11.3393 13.033 10.483 13.033ZM10.483 15.311C10.3053 15.311 10.1276 15.1495 10.1276 14.6082C10.1276 14.067 10.3053 13.9054 10.483 13.9054C10.6607 13.9054 10.8384 14.067 10.8384 14.6082C10.8384 15.1495 10.6607 15.311 10.483 15.311Z" fill="#D9E7EC"/>
<path d="M7.16204 16.1024L8.39643 14.2948V12.2955L5.79687 16.1024H7.16204Z" fill="#FAFCFD"/>
<path d="M7.841 11.9423C7.841 10.9406 7.19477 10.367 6.33847 10.367C5.48217 10.367 4.83593 10.9406 4.83593 11.9423C4.83593 12.952 5.48217 13.5175 6.33847 13.5175C7.19477 13.5175 7.841 12.952 7.841 11.9423ZM5.98304 11.9423C5.98304 11.401 6.16075 11.2395 6.33847 11.2395C6.51618 11.2395 6.69389 11.401 6.69389 11.9423C6.69389 12.4835 6.51618 12.6451 6.33847 12.6451C6.16075 12.6451 5.98304 12.4835 5.98304 11.9423Z" fill="#FAFCFD"/>
</svg>
