<svg width="19" height="10" viewBox="0 0 19 10" fill="none" xmlns="http://www.w3.org/2000/svg">
<path d="M13.0576 0.282631C12.689 -0.0900746 12.0884 -0.0947762 11.7141 0.272155L4.69184 7.21247L1.63922 4.05225C1.27514 3.67278 0.672385 3.66032 0.292957 4.02441C-0.0865121 4.38849 -0.0989672 4.99125 0.265119 5.37068C0.266768 5.37237 0.268377 5.37406 0.270026 5.37575L3.99205 9.23296C4.17017 9.41468 4.41363 9.51758 4.66809 9.51861H4.67857C4.9282 9.51782 5.16757 9.41901 5.34508 9.24344L13.049 1.62614C13.4212 1.25702 13.425 0.656491 13.0576 0.282631Z" fill="#151515"/>
<path d="M9.70467 9.23315C9.88234 9.41441 10.125 9.51722 10.3788 9.51879H10.3893C10.6389 9.51801 10.8783 9.41919 11.0558 9.24363L18.7598 1.62632C19.109 1.23312 19.0733 0.631315 18.6801 0.282118C18.3237 -0.0344567 17.788 -0.0386222 17.4267 0.272344L10.4074 7.21266L10.1569 6.95271C9.79288 6.57324 9.19013 6.56074 8.81066 6.92483C8.43119 7.28887 8.4187 7.89162 8.78278 8.27109C8.78443 8.27283 8.78608 8.27452 8.78773 8.27621L9.70467 9.23315Z" fill="#151515"/>
</svg>
