<svg width="26" height="21" viewBox="0 0 26 21" fill="none" xmlns="http://www.w3.org/2000/svg">
<path d="M0 5.82594L13.0657 5.24512L25.9971 5.82594L12.9986 21L0 5.82594Z" fill="#FFB04C"/>
<path d="M25.9971 5.82594H0L4.14908 0H21.848L25.9971 5.82594Z" fill="#FFDB6C"/>
<path d="M21.8477 0V5.82594H25.9967L21.8477 0Z" fill="#FFC866"/>
<path d="M21.8244 5.86568L12.998 21L25.8832 5.9583C25.9278 5.90625 25.8908 5.82593 25.8223 5.82593H21.8936C21.8651 5.82593 21.8387 5.84106 21.8244 5.86568Z" fill="#F7A05E"/>
<path d="M4.14844 0H21.8474L12.9979 21L4.14844 0Z" fill="#FFDB6C"/>
<path d="M19.3923 5.82594L21.8474 0H4.14844L6.60349 5.82594H19.3923Z" fill="#FFF2BB"/>
<path d="M6.60352 5.82594L12.9979 0L19.3924 5.82594H6.60352Z" fill="#FFEB8A"/>
</svg>
