<svg width="29" height="29" viewBox="0 0 29 29" fill="none" xmlns="http://www.w3.org/2000/svg">
<path d="M21.8513 29.0002C20.3271 29.0002 18.722 28.636 17.0629 27.9346C15.4443 27.2467 13.8122 26.3025 12.2205 25.156C10.6424 23.9959 9.11819 22.7011 7.67493 21.2848C6.24515 19.8415 4.95026 18.3173 3.80374 16.7526C2.64374 15.134 1.71303 13.5154 1.0521 11.9508C0.3507 10.2782 0 8.65958 0 7.13539C0 6.08329 0.188838 5.08514 0.553026 4.15444C0.930703 3.19676 1.53768 2.30652 2.36048 1.53768C3.39909 0.512561 4.58607 0 5.85399 0C6.38004 0 6.91957 0.121396 7.37818 0.337211C7.90423 0.580003 8.34935 0.944191 8.67307 1.42978L11.8024 5.8405C12.0856 6.23166 12.3015 6.60934 12.4498 6.98701C12.6252 7.39167 12.7196 7.79632 12.7196 8.18749C12.7196 8.70005 12.5712 9.19912 12.288 9.67122C12.0856 10.0354 11.7754 10.4266 11.3842 10.8177L10.467 11.7754C10.4805 11.8159 10.494 11.8429 10.5075 11.8698C10.6694 12.1531 10.9931 12.6387 11.6136 13.367C12.2745 14.1224 12.895 14.8103 13.5154 15.4443C14.3112 16.2266 14.9722 16.8471 15.5926 17.3596C16.3615 18.0071 16.8606 18.3308 17.1573 18.4792L17.1303 18.5466L18.115 17.5754C18.5331 17.1573 18.9378 16.8471 19.3289 16.6447C20.0708 16.1861 21.015 16.1052 21.9592 16.4964C22.3099 16.6447 22.6876 16.8471 23.0922 17.1303L27.5704 20.3136C28.0695 20.6508 28.4336 21.0824 28.6495 21.595C28.8518 22.1076 28.9462 22.5797 28.9462 23.0518C28.9462 23.6992 28.7978 24.3466 28.5146 24.9536C28.2313 25.5606 27.8806 26.0867 27.4355 26.5722C26.6667 27.422 25.8304 28.029 24.8592 28.4202C23.9285 28.7978 22.9169 29.0002 21.8513 29.0002ZM5.85399 2.02327C5.11212 2.02327 4.42421 2.34699 3.76328 2.99443C3.14281 3.57444 2.71118 4.2084 2.44141 4.89631C2.15815 5.59771 2.02327 6.33957 2.02327 7.13539C2.02327 8.38981 2.32001 9.75215 2.9135 11.1549C3.52048 12.5847 4.37026 14.0684 5.44933 15.5522C6.52841 17.0359 7.75586 18.4792 9.1047 19.8415C10.4535 21.1769 11.9103 22.4178 13.4075 23.5104C14.8643 24.5759 16.3615 25.4392 17.8452 26.0597C20.1517 27.0443 22.3099 27.2736 24.0904 26.5318C24.7783 26.2485 25.3853 25.8169 25.9383 25.1964C26.2485 24.8592 26.4913 24.495 26.6936 24.0634C26.8555 23.7262 26.9364 23.3755 26.9364 23.0248C26.9364 22.809 26.896 22.5931 26.7881 22.3504C26.7476 22.2694 26.6667 22.1211 26.4104 21.9457L21.9322 18.7624C21.6624 18.5736 21.4197 18.4387 21.1903 18.3443C20.8936 18.2229 20.7722 18.1015 20.3136 18.3848C20.0438 18.5196 19.801 18.722 19.5313 18.9917L18.5061 20.0034C17.9801 20.5159 17.1708 20.6373 16.5503 20.408L16.1861 20.2462C15.6331 19.9494 14.9857 19.4908 14.2708 18.8838C13.6233 18.3308 12.9219 17.6834 12.0722 16.8471C11.4112 16.1726 10.7503 15.4578 10.0624 14.6619C9.42842 13.9201 8.96982 13.2861 8.68656 12.7601L8.5247 12.3554C8.44377 12.0452 8.41679 11.8698 8.41679 11.681C8.41679 11.1954 8.59214 10.7638 8.92935 10.4266L9.94098 9.37447C10.2108 9.1047 10.4131 8.84842 10.548 8.61912C10.6559 8.44377 10.6963 8.29539 10.6963 8.16051C10.6963 8.0526 10.6559 7.89074 10.5884 7.72888C10.494 7.51306 10.3456 7.27027 10.1568 7.01399L7.02748 2.58978C6.8926 2.40094 6.73074 2.26606 6.52841 2.17164C6.31259 2.07722 6.08329 2.02327 5.85399 2.02327ZM17.1303 18.5601L16.9145 19.4773L17.2787 18.5331C17.2113 18.5196 17.1573 18.5331 17.1303 18.5601Z" fill="black"/>
</svg>
