<svg width="18" height="18" viewBox="0 0 18 18" fill="none" xmlns="http://www.w3.org/2000/svg">
<path d="M13.5629 18.0002C12.6169 18.0002 11.6206 17.7741 10.5908 17.3388C9.58613 16.9118 8.5731 16.3257 7.58518 15.6141C6.60564 14.8941 5.65959 14.0904 4.76376 13.2113C3.87631 12.3155 3.07259 11.3694 2.36095 10.3982C1.64095 9.39357 1.06327 8.38891 0.653029 7.41774C0.217676 6.37959 0 5.37493 0 4.42888C0 3.77585 0.11721 3.15631 0.343259 2.57863C0.57768 1.9842 0.954427 1.43164 1.46513 0.954427C2.10979 0.318142 2.84654 0 3.63352 0C3.96004 0 4.29492 0.0753495 4.57958 0.209304C4.90609 0.360003 5.18237 0.586052 5.3833 0.88745L7.32565 3.62515C7.50146 3.86794 7.63542 4.10236 7.72751 4.33678C7.83635 4.58795 7.89495 4.83911 7.89495 5.08191C7.89495 5.40005 7.80286 5.70982 7.62704 6.00284C7.50146 6.22889 7.3089 6.47169 7.06611 6.71448L6.4968 7.3089C6.50517 7.33402 6.51355 7.35076 6.52192 7.36751C6.62238 7.54332 6.82332 7.84472 7.20844 8.29682C7.61867 8.76566 8.00379 9.19264 8.38891 9.58613C8.88287 10.0717 9.29311 10.4568 9.67823 10.775C10.1554 11.1768 10.4652 11.3778 10.6494 11.4699L10.6327 11.5117L11.2438 10.9089C11.5034 10.6494 11.7545 10.4568 11.9973 10.3313C12.4578 10.0466 13.0438 9.99637 13.6299 10.2392C13.8476 10.3313 14.082 10.4568 14.3332 10.6327L17.1127 12.6085C17.4225 12.8178 17.6485 13.0857 17.7825 13.4038C17.9081 13.722 17.9667 14.015 17.9667 14.308C17.9667 14.7099 17.8746 15.1118 17.6988 15.4885C17.5229 15.8653 17.3053 16.1918 17.029 16.4932C16.5518 17.0206 16.0327 17.3974 15.4299 17.6402C14.8522 17.8746 14.2243 18.0002 13.5629 18.0002ZM3.63352 1.25583C3.17305 1.25583 2.74607 1.45676 2.33583 1.85862C1.95071 2.21862 1.68281 2.61212 1.51536 3.0391C1.33955 3.47445 1.25583 3.93492 1.25583 4.42888C1.25583 5.20749 1.44001 6.05308 1.80839 6.92378C2.18514 7.81123 2.71258 8.73217 3.38236 9.65311C4.05213 10.574 4.814 11.4699 5.65121 12.3155C6.48843 13.1443 7.39262 13.9145 8.32193 14.5927C9.22613 15.2541 10.1554 15.7899 11.0764 16.175C12.508 16.7862 13.8476 16.9285 14.9527 16.4681C15.3797 16.2922 15.7564 16.0243 16.0997 15.6392C16.2922 15.4299 16.4429 15.2039 16.5685 14.9359C16.669 14.7266 16.7192 14.509 16.7192 14.2913C16.7192 14.1573 16.6941 14.0234 16.6271 13.8727C16.602 13.8224 16.5518 13.7304 16.3927 13.6215L13.6131 11.6457C13.4457 11.5285 13.295 11.4448 13.1527 11.3861C12.9685 11.3108 12.8931 11.2354 12.6085 11.4113C12.441 11.495 12.2903 11.6206 12.1229 11.788L11.4866 12.4159C11.1601 12.7341 10.6578 12.8094 10.2726 12.6671L10.0466 12.5666C9.70334 12.3824 9.30148 12.0978 8.85775 11.721C8.45589 11.3778 8.02054 10.9759 7.49309 10.4568C7.08285 10.0382 6.67262 9.5945 6.24564 9.10055C5.85215 8.64008 5.56749 8.24659 5.39168 7.92007L5.29121 7.66891C5.24098 7.47635 5.22423 7.36751 5.22423 7.2503C5.22423 6.9489 5.33307 6.68099 5.54237 6.47169L6.17029 5.81866C6.33773 5.65121 6.46331 5.49214 6.54704 5.34981C6.61401 5.24098 6.63913 5.14888 6.63913 5.06516C6.63913 4.99818 6.61401 4.89772 6.57215 4.79725C6.51355 4.6633 6.42145 4.5126 6.30424 4.35353L4.3619 1.60746C4.27818 1.49025 4.17771 1.40652 4.05213 1.34792C3.91817 1.28931 3.77585 1.25583 3.63352 1.25583ZM10.6327 11.5201L10.4987 12.0894L10.7247 11.5034C10.6829 11.495 10.6494 11.5034 10.6327 11.5201Z" fill="#828ABA"/>
</svg>
