<svg width="22" height="22" viewBox="0 0 22 22" fill="none" xmlns="http://www.w3.org/2000/svg">
<path d="M19.7083 16.5H16.9583C16.7053 16.5 16.5 16.2947 16.5 16.0417C16.5 15.7887 16.7053 15.5833 16.9583 15.5833H19.7083C20.4664 15.5833 21.0833 14.9664 21.0833 14.2083V7.79167C21.0833 7.03358 20.4664 6.41667 19.7083 6.41667H2.29167C1.53358 6.41667 0.916667 7.03358 0.916667 7.79167V14.2083C0.916667 14.9664 1.53358 15.5833 2.29167 15.5833H5.04167C5.29467 15.5833 5.5 15.7887 5.5 16.0417C5.5 16.2947 5.29467 16.5 5.04167 16.5H2.29167C1.02758 16.5 0 15.4715 0 14.2083V7.79167C0 6.5285 1.02758 5.5 2.29167 5.5H19.7083C20.9724 5.5 22 6.5285 22 7.79167V14.2083C22 15.4715 20.9724 16.5 19.7083 16.5Z" fill="#DD3F61"/>
<path d="M13.2904 19.2502H7.79036C7.53736 19.2502 7.33203 19.0448 7.33203 18.7918C7.33203 18.5388 7.53736 18.3335 7.79036 18.3335H13.2904C13.5434 18.3335 13.7487 18.5388 13.7487 18.7918C13.7487 19.0448 13.5434 19.2502 13.2904 19.2502Z" fill="#DD3F61"/>
<path d="M13.2904 17.4167H7.79036C7.53736 17.4167 7.33203 17.2113 7.33203 16.9583C7.33203 16.7053 7.53736 16.5 7.79036 16.5H13.2904C13.5434 16.5 13.7487 16.7053 13.7487 16.9583C13.7487 17.2113 13.5434 17.4167 13.2904 17.4167Z" fill="#DD3F61"/>
<path d="M9.6237 15.5832H7.79036C7.53736 15.5832 7.33203 15.3778 7.33203 15.1248C7.33203 14.8718 7.53736 14.6665 7.79036 14.6665H9.6237C9.8767 14.6665 10.082 14.8718 10.082 15.1248C10.082 15.3778 9.8767 15.5832 9.6237 15.5832Z" fill="#DD3F61"/>
<path d="M16.957 6.41667C16.704 6.41667 16.4987 6.21133 16.4987 5.95833V2.29167C16.4987 1.53358 15.8818 0.916667 15.1237 0.916667H6.8737C6.11561 0.916667 5.4987 1.53358 5.4987 2.29167V5.95833C5.4987 6.21133 5.29336 6.41667 5.04036 6.41667C4.78736 6.41667 4.58203 6.21133 4.58203 5.95833V2.29167C4.58203 1.0285 5.60961 0 6.8737 0H15.1237C16.3878 0 17.4154 1.0285 17.4154 2.29167V5.95833C17.4154 6.21133 17.21 6.41667 16.957 6.41667Z" fill="#DD3F61"/>
<path d="M15.1237 21.9998H6.8737C5.60961 21.9998 4.58203 20.9713 4.58203 19.7082V12.3748C4.58203 12.1218 4.78736 11.9165 5.04036 11.9165H16.957C17.21 11.9165 17.4154 12.1218 17.4154 12.3748V19.7082C17.4154 20.9713 16.3878 21.9998 15.1237 21.9998ZM5.4987 12.8332V19.7082C5.4987 20.4663 6.11561 21.0832 6.8737 21.0832H15.1237C15.8818 21.0832 16.4987 20.4663 16.4987 19.7082V12.8332H5.4987Z" fill="#DD3F61"/>
</svg>
