<svg width="20" height="20" viewBox="0 0 20 20" fill="none" xmlns="http://www.w3.org/2000/svg">
<path d="M17.5644 14.2853C18.3741 12.9661 18.8017 11.4481 18.7996 9.90019C18.8018 8.35226 18.3741 6.83394 17.5644 5.5147L17.5599 5.50734C16.8086 4.28289 15.7559 3.27155 14.5024 2.56996C13.2488 1.86837 11.8363 1.49997 10.3998 1.49997C8.96324 1.49997 7.55071 1.86837 6.29716 2.56996C5.04361 3.27155 3.99092 4.28289 3.23969 5.50734L3.23516 5.5147C2.42743 6.83482 2 8.35238 2 9.9C2 11.4476 2.42743 12.9652 3.23516 14.2853L3.23988 14.2928C3.99113 15.5172 5.04383 16.5285 6.29737 17.2301C7.55091 17.9316 8.96342 18.3 10.3999 18.3C11.8364 18.2999 13.2489 17.9315 14.5024 17.23C15.756 16.5284 16.8086 15.5171 17.5599 14.2927L17.5644 14.2853ZM11.4734 16.8602C11.3134 17.0147 11.1291 17.1419 10.9279 17.2369C10.7629 17.3154 10.5824 17.3561 10.3997 17.3561C10.2169 17.3561 10.0365 17.3154 9.87143 17.2369C9.48873 17.0415 9.16113 16.7532 8.91856 16.3985C8.42322 15.6826 8.05615 14.8861 7.83376 14.0444C8.68821 13.9918 9.54355 13.965 10.3998 13.964C11.2556 13.964 12.111 13.9908 12.966 14.0444C12.8428 14.4771 12.6891 14.9005 12.5058 15.3114C12.2644 15.8892 11.9139 16.4151 11.4734 16.8602ZM2.96014 10.3719H6.34821C6.37029 11.3173 6.47278 12.2591 6.65457 13.1871C5.72838 13.2686 4.80458 13.3806 3.88318 13.5231C3.34356 12.555 3.02812 11.4781 2.96014 10.3719ZM3.88318 6.27711C4.80421 6.41981 5.72832 6.53181 6.65551 6.6131C6.4734 7.54101 6.37072 8.48275 6.34858 9.4281H2.96014C3.02815 8.32193 3.34358 7.24513 3.88318 6.27711ZM9.3261 2.93982C9.48619 2.78533 9.67046 2.65806 9.87162 2.56305C10.0367 2.48463 10.2171 2.44394 10.3999 2.44394C10.5826 2.44394 10.7631 2.48463 10.9281 2.56305C11.3108 2.75852 11.6384 3.0468 11.881 3.40153C12.3763 4.11738 12.7434 4.91393 12.9658 5.75556C12.1113 5.80816 11.256 5.83497 10.3998 5.83598C9.54393 5.83598 8.68853 5.80917 7.83357 5.75556C7.95669 5.32285 8.11048 4.89946 8.29377 4.4886C8.53512 3.91078 8.88563 3.38491 9.3261 2.93982ZM17.8394 9.4281H14.4513C14.4293 8.48271 14.3268 7.54092 14.145 6.61292C15.0712 6.53137 15.995 6.41937 16.9164 6.27692C17.456 7.245 17.7714 8.32186 17.8394 9.4281ZM7.60385 13.1137C7.41929 12.2107 7.31507 11.2932 7.29239 10.3719H13.5073C13.4849 11.2933 13.3808 12.2108 13.1965 13.1138C12.2652 13.0527 11.333 13.0215 10.3998 13.0202C9.46729 13.0202 8.53532 13.0514 7.60385 13.1137ZM13.1957 6.68634C13.3802 7.58928 13.4845 8.50678 13.5072 9.4281H7.29239C7.31485 8.50673 7.41889 7.58916 7.60328 6.68615C8.5345 6.74731 9.46673 6.77852 10.4 6.77978C11.3324 6.77978 12.2644 6.74857 13.1959 6.68615L13.1957 6.68634ZM14.451 10.3719H17.8394C17.7714 11.4781 17.456 12.5549 16.9164 13.5229C15.9952 13.3802 15.0711 13.2682 14.144 13.1869C14.3261 12.259 14.4288 11.3172 14.451 10.3719ZM16.3505 5.40843C15.5451 5.52458 14.7374 5.61657 13.9273 5.6844C13.7818 5.14229 13.594 4.61239 13.3658 4.09956C13.1574 3.62767 12.8951 3.18144 12.5843 2.76974C14.0864 3.23044 15.4045 4.15396 16.3505 5.40843ZM5.12768 4.62772C5.98936 3.76521 7.04946 3.12725 8.21505 2.76974C8.19731 2.79277 8.17919 2.81467 8.16182 2.83789C7.56269 3.70032 7.12628 4.66501 6.8741 5.6844C6.06393 5.61582 5.25566 5.52383 4.44927 5.40843C4.65722 5.13293 4.88389 4.87207 5.12768 4.62772ZM4.44927 14.3916C5.25453 14.2754 6.06223 14.1834 6.8724 14.1156C7.01797 14.6577 7.20573 15.1876 7.43396 15.7004C7.64237 16.1723 7.9046 16.6186 8.21543 17.0303C6.71334 16.5696 5.39522 15.646 4.44927 14.3916ZM15.6722 15.1723C14.8106 16.0348 13.7505 16.6728 12.5849 17.0303C12.6026 17.0072 12.6207 16.9853 12.6381 16.9621C13.2372 16.0997 13.6736 15.135 13.9258 14.1156C14.736 14.1842 15.5443 14.2762 16.3507 14.3916C16.1427 14.6671 15.916 14.9279 15.6722 15.1723Z" fill="#171717"/>
</svg>
