<svg width="98" height="94" viewBox="0 0 98 94" fill="none" xmlns="http://www.w3.org/2000/svg">
<path d="M90.5861 10.8335C89.6287 10.4782 88.6389 10.2041 87.6347 10.0303C85.5615 9.67508 83.4307 9.76389 81.3935 10.3122C80.958 10.4319 80.5297 10.567 80.105 10.7254C80.105 10.7176 79.2772 0.319039 70.0126 0.00627015C60.7445 -0.306499 49.8711 11.1462 49.0001 19.9463C48.1254 11.1462 37.2556 -0.306499 27.9875 0.00627015C18.7194 0.315178 17.8916 10.7176 17.8916 10.7254C17.4668 10.567 17.0385 10.4319 16.603 10.3122C14.5658 9.76389 12.4351 9.67508 10.3619 10.0303C9.35768 10.2041 8.36788 10.4782 7.41047 10.8335C7.41047 10.8335 -4.67588 14.2701 2.02236 34.8897C2.02236 34.8897 2.74942 8.80627 17.3085 18.7994C17.3409 18.8226 17.2581 19.3091 17.2545 19.3477C17.2077 19.8536 17.1717 20.3556 17.1429 20.8614C17.0997 21.6144 17.0745 22.3673 17.0673 23.1203C17.0565 24.047 17.0745 24.9776 17.1177 25.9043C17.1681 26.9391 17.2545 27.9701 17.3877 28.9972C17.5208 30.0668 17.708 31.1326 17.9599 32.179C18.2083 33.2216 18.5214 34.2487 18.9281 35.2372C19.3169 36.1909 19.7956 37.1099 20.3787 37.944C20.9509 38.7626 21.6312 39.4962 22.4086 40.0909C23.0781 40.6006 23.8304 40.9829 24.6042 41.2763C25.378 41.5659 26.0331 41.8246 26.9725 41.6238C27.6204 41.4848 28.1711 41.0562 28.675 40.6083C29.1933 40.1449 29.6648 39.6507 30.0535 39.056C30.6114 38.2104 30.9965 37.2451 31.2305 36.2411C31.5544 34.8665 31.6012 33.4301 31.4932 32.0207C31.3384 30.0128 30.8741 28.0396 30.2731 26.136C29.3804 23.2979 28.3187 20.4637 26.7818 17.9499C25.4284 15.7374 23.5676 13.9766 21.48 12.5788C21.2425 12.4205 21.0013 12.266 20.7566 12.1193L20.7314 12.1077C20.7242 12.1039 20.7206 12.1 20.7134 12.0961L20.7602 12.1193C21.1489 8.03787 24.7338 6.40838 24.7338 6.40838C29.9743 4.79434 36.0427 9.81409 36.0427 9.81409C43.0793 14.467 49.0001 26.1398 49.0001 26.1398C49.0001 26.1398 54.9209 14.467 61.9575 9.81409C61.9575 9.81409 68.0222 4.79434 73.2664 6.40838C73.2664 6.40838 76.8512 8.03787 77.2436 12.1193L77.2904 12.0961C77.2832 12.1 77.2796 12.1039 77.2724 12.1077L77.2472 12.1193C77.0024 12.266 76.7613 12.4205 76.5237 12.5788C74.4361 13.9766 72.5753 15.7374 71.222 17.9499C69.6851 20.4637 68.6233 23.2979 67.7307 26.136C67.1296 28.0396 66.6653 30.0128 66.5105 32.0207C66.4026 33.4301 66.4493 34.8665 66.7733 36.2411C67.0072 37.2451 67.3924 38.2104 67.9502 39.056C68.339 39.6507 68.8105 40.1449 69.3288 40.6083C69.8327 41.0562 70.3834 41.4848 71.0312 41.6238C71.9706 41.8246 72.6257 41.5659 73.3995 41.2763C74.1734 40.9829 74.9256 40.6006 75.5951 40.0909C76.3725 39.4962 77.0528 38.7626 77.6251 37.944C78.2082 37.1099 78.6869 36.1909 79.0756 35.2372C79.4823 34.2487 79.7955 33.2216 80.0438 32.179C80.2958 31.1326 80.4829 30.0668 80.6161 28.9972C80.7493 27.9701 80.8356 26.9391 80.886 25.9043C80.9292 24.9776 80.9472 24.047 80.9364 23.1203C80.9292 22.3673 80.904 21.6144 80.8608 20.8614C80.832 20.3556 80.7961 19.8536 80.7493 19.3477C80.7457 19.3091 80.6629 18.8226 80.6953 18.7994C95.2543 8.80627 95.9814 34.8897 95.9814 34.8897C102.672 14.2701 90.5861 10.8335 90.5861 10.8335ZM17.8952 10.7292L17.9132 10.7369C17.906 10.7331 17.8988 10.7292 17.8952 10.7292ZM25.414 35.7198C25.414 35.7198 19.3457 35.3569 19.4428 20.8305C19.4428 20.8305 26.1915 28.4335 25.414 35.7198ZM72.5825 35.7198C71.8051 28.4335 78.5537 20.8305 78.5537 20.8305C78.6509 35.3569 72.5825 35.7198 72.5825 35.7198ZM80.1014 10.7292C80.0942 10.7331 80.0906 10.7331 80.0834 10.7369L80.1014 10.7292Z" fill="#DD3F61"/>
<path d="M48.9379 51.751C48.9379 51.751 46.2033 49.4476 35.8929 23.6786C35.8929 23.6786 37.9956 56.3579 48.9379 58.1408C59.8764 56.3618 61.983 23.6786 61.983 23.6786C51.6726 49.4476 48.9379 51.751 48.9379 51.751Z" fill="#DD3F61"/>
<path d="M87.149 69.3294V77.9177H83.7318V69.3837H80.5758V78.2868H77.2638V69.3837H74.264V78.1275H64.5855C64.5855 68.7001 57.3803 68.9098 57.3803 68.9098H45.0726V71.8969H46.7539C44.6005 75.5638 46.7539 77.8672 46.7539 77.8672H37.6567V68.9098H32.2889C24.9784 68.9098 25.189 76.8728 25.189 76.8728V81.0602H34.7114V85.0922H37.7074V81.0602H90.2543V69.3294H87.149ZM34.7348 78.1158H27.9119V75.3657C27.9119 75.2841 27.951 71.7105 34.7348 71.7105V78.1158ZM51.5795 78.3101C49.6953 78.3101 48.1661 76.7913 48.1661 74.9112C48.1661 73.0351 49.6953 71.5124 51.5795 71.5124C53.4676 71.5124 54.9929 73.0351 54.9929 74.9112C54.9929 76.7913 53.4676 78.3101 51.5795 78.3101ZM57.0643 78.1158C59.5493 75.1676 56.8264 71.7144 56.8264 71.7144C61.6402 71.5551 61.9835 78.1158 61.9835 78.1158H57.0643Z" fill="white"/>
<path d="M23.0208 62.0066V80.9779H13.908C13.908 80.9779 6.84717 80.4263 6.41416 74.9066V71.4923H9.09416V74.9066C9.09416 74.9066 9.09416 78.1112 12.5661 78.1112C16.038 78.1112 20.1419 78.1112 20.1419 78.1112V62.0066H23.0208Z" fill="white"/>
<path d="M26.6447 93.7617C26.3287 93.6179 26.079 93.4276 25.8957 93.1828C25.7123 92.9381 25.6109 92.67 25.5953 92.3747H26.828C26.8514 92.5612 26.9411 92.7127 27.105 92.8371C27.2649 92.9575 27.4639 93.0197 27.7057 93.0197C27.9398 93.0197 28.1192 92.973 28.2519 92.8798C28.3845 92.7865 28.4469 92.6661 28.4469 92.5224C28.4469 92.367 28.365 92.2465 28.2051 92.1688C28.0451 92.0911 27.7877 92.0056 27.4405 91.9124C27.0777 91.8269 26.7812 91.7337 26.551 91.6405C26.3209 91.5472 26.1219 91.4035 25.9542 91.2131C25.7864 91.0227 25.7045 90.7624 25.7045 90.4361C25.7045 90.168 25.7825 89.9233 25.9347 89.7057C26.0907 89.4843 26.3092 89.3094 26.5978 89.1851C26.8865 89.0569 27.2259 88.9947 27.616 88.9947C28.1934 88.9947 28.6537 89.1385 28.997 89.426C29.3403 89.7135 29.5314 90.102 29.5665 90.5876H28.3962C28.3806 90.3972 28.2987 90.2418 28.1544 90.1292C28.01 90.0165 27.8189 89.9582 27.5809 89.9582C27.3585 89.9582 27.1908 89.9971 27.0699 90.0787C26.9489 90.1603 26.8904 90.2729 26.8904 90.4206C26.8904 90.5837 26.9723 90.708 27.1362 90.7896C27.3 90.8751 27.5536 90.9606 27.8969 91.046C28.248 91.1315 28.5367 91.2248 28.7629 91.318C28.9892 91.4112 29.1881 91.555 29.352 91.7492C29.5197 91.9435 29.6055 92.1999 29.6094 92.5185C29.6094 92.7982 29.5314 93.0468 29.3793 93.2683C29.2232 93.4897 29.0048 93.6607 28.7161 93.785C28.4274 93.9093 28.0919 93.9715 27.7057 93.9715C27.3156 93.9754 26.9606 93.9016 26.6447 93.7617Z" fill="#DD3F61"/>
<path d="M36.8449 91.8502H33.3028C33.3301 92.1999 33.4549 92.4719 33.6695 92.67C33.884 92.8681 34.1493 92.9653 34.4653 92.9653C34.9217 92.9653 35.2455 92.771 35.4366 92.3825H36.7591C36.6186 92.8487 36.3495 93.2294 35.9555 93.5286C35.5576 93.8277 35.0738 93.9793 34.4965 93.9793C34.0284 93.9793 33.6109 93.8744 33.2404 93.6685C32.8698 93.4625 32.5811 93.1712 32.3743 92.7943C32.1676 92.4175 32.0622 91.9823 32.0622 91.4889C32.0622 90.9878 32.1637 90.5526 32.3665 90.1719C32.5694 89.7951 32.8581 89.5037 33.2247 89.3017C33.5914 89.0996 34.0167 88.9947 34.4926 88.9947C34.9529 88.9947 35.3664 89.0919 35.7292 89.29C36.092 89.4881 36.3768 89.7679 36.5796 90.1292C36.7825 90.4905 36.88 90.9101 36.88 91.3802C36.88 91.5511 36.8683 91.7104 36.8449 91.8502ZM35.6122 91.0305C35.6044 90.7158 35.4912 90.4672 35.2689 90.2768C35.0465 90.0864 34.7774 89.9932 34.4575 89.9932C34.1532 89.9932 33.8996 90.0864 33.6929 90.269C33.4861 90.4516 33.3574 90.7042 33.3106 91.0305H35.6122Z" fill="#DD3F61"/>
<path d="M43.228 89.2397C43.5128 89.3989 43.7351 89.6359 43.899 89.9466C44.0628 90.2574 44.1408 90.6303 44.1408 91.0653V93.8971H42.9159V91.2324C42.9159 90.8478 42.8184 90.5526 42.6272 90.3467C42.4361 90.1409 42.1708 90.036 41.8392 90.036C41.4998 90.036 41.2346 90.1409 41.0395 90.3467C40.8445 90.5526 40.7469 90.8478 40.7469 91.2324V93.8971H39.522V87.449H40.7469V89.6708C40.903 89.4611 41.1136 89.298 41.375 89.1775C41.6364 89.0571 41.9289 88.9989 42.2488 88.9989C42.6194 88.9989 42.9432 89.0804 43.228 89.2397Z" fill="#DD3F61"/>
<path d="M47.9451 93.6646C47.5706 93.4587 47.2781 93.1673 47.0674 92.7904C46.8528 92.4136 46.7475 91.9785 46.7475 91.4851C46.7475 90.9917 46.8567 90.5565 47.0752 90.1797C47.2937 89.8028 47.594 89.5114 47.9724 89.3055C48.3508 89.0996 48.776 88.9947 49.2403 88.9947C49.7084 88.9947 50.1297 89.0996 50.5081 89.3055C50.8865 89.5114 51.1869 89.8028 51.4053 90.1797C51.6238 90.5565 51.733 90.9917 51.733 91.4851C51.733 91.9785 51.6199 92.4136 51.3975 92.7904C51.1752 93.1673 50.8709 93.4587 50.4886 93.6646C50.1063 93.8705 49.6811 93.9754 49.2052 93.9754C48.737 93.9754 48.3196 93.8705 47.9451 93.6646ZM49.8293 92.7516C50.0244 92.6428 50.1804 92.4835 50.2974 92.266C50.4145 92.0523 50.473 91.792 50.473 91.4812C50.473 91.0227 50.3521 90.6692 50.1102 90.4244C49.8683 90.1797 49.5719 90.0554 49.2208 90.0554C48.8697 90.0554 48.5771 90.1797 48.343 90.4244C48.1051 90.6731 47.988 91.0227 47.988 91.4812C47.988 91.9396 48.1012 92.2931 48.3352 92.5379C48.5654 92.7827 48.8541 92.907 49.2052 92.907C49.4275 92.9109 49.6343 92.8565 49.8293 92.7516Z" fill="#DD3F61"/>
<path d="M55.2749 93.6646C54.9004 93.4587 54.6078 93.1673 54.3972 92.7904C54.1826 92.4136 54.0773 91.9785 54.0773 91.4851C54.0773 90.9917 54.1865 90.5565 54.405 90.1797C54.6234 89.8028 54.9238 89.5114 55.3022 89.3055C55.6806 89.0996 56.1058 88.9947 56.5701 88.9947C57.0382 88.9947 57.4595 89.0996 57.8379 89.3055C58.2163 89.5114 58.5167 89.8028 58.7351 90.1797C58.9536 90.5565 59.0628 90.9917 59.0628 91.4851C59.0628 91.9785 58.9497 92.4136 58.7273 92.7904C58.505 93.1673 58.2007 93.4587 57.8184 93.6646C57.4361 93.8705 57.0109 93.9754 56.5349 93.9754C56.0668 93.9754 55.6494 93.8705 55.2749 93.6646ZM57.1591 92.7516C57.3542 92.6428 57.5102 92.4835 57.6272 92.266C57.7443 92.0523 57.8028 91.792 57.8028 91.4812C57.8028 91.0227 57.6818 90.6692 57.44 90.4244C57.1981 90.1797 56.9016 90.0554 56.5505 90.0554C56.1995 90.0554 55.9069 90.1797 55.6728 90.4244C55.4349 90.6731 55.3178 91.0227 55.3178 91.4812C55.3178 91.9396 55.431 92.2931 55.665 92.5379C55.8952 92.7827 56.1839 92.907 56.5349 92.907C56.7573 92.9109 56.9641 92.8565 57.1591 92.7516Z" fill="#DD3F61"/>
<path d="M62.6048 93.6646C62.2303 93.4587 61.9377 93.1673 61.727 92.7904C61.5125 92.4136 61.4072 91.9785 61.4072 91.4851C61.4072 90.9917 61.5164 90.5565 61.7348 90.1797C61.9533 89.8028 62.2537 89.5114 62.6321 89.3055C63.0105 89.0996 63.4357 88.9947 63.8999 88.9947C64.368 88.9947 64.7893 89.0996 65.1677 89.3055C65.5461 89.5114 65.8465 89.8028 66.065 90.1797C66.2834 90.5565 66.3927 90.9917 66.3927 91.4851C66.3927 91.9785 66.2795 92.4136 66.0572 92.7904C65.8348 93.1673 65.5305 93.4587 65.1482 93.6646C64.7659 93.8705 64.3407 93.9754 63.8648 93.9754C63.3967 93.9754 62.9793 93.8705 62.6048 93.6646ZM64.489 92.7516C64.684 92.6428 64.8401 92.4835 64.9571 92.266C65.0741 92.0523 65.1326 91.792 65.1326 91.4812C65.1326 91.0227 65.0117 90.6692 64.7698 90.4244C64.528 90.1797 64.2315 90.0554 63.8804 90.0554C63.5293 90.0554 63.2367 90.1797 63.0027 90.4244C62.7647 90.6731 62.6477 91.0227 62.6477 91.4812C62.6477 91.9396 62.7608 92.2931 62.9949 92.5379C63.225 92.7827 63.5137 92.907 63.8648 92.907C64.0872 92.9109 64.2939 92.8565 64.489 92.7516Z" fill="#DD3F61"/>
<path d="M70.2666 87.449V93.8971H69.0417V87.449H70.2666Z" fill="#DD3F61"/>
</svg>
