<svg width="24" height="24" viewBox="0 0 24 24" fill="none" xmlns="http://www.w3.org/2000/svg">
<path d="M22.875 18.75H22.1749L22.4632 16.4422C22.699 16.3687 22.9038 16.2193 23.0458 16.0174C23.1879 15.8154 23.2592 15.5721 23.2487 15.3254C23.2382 15.0787 23.1465 14.8424 22.9879 14.6532C22.8292 14.464 22.6125 14.3325 22.3714 14.2792L21.9176 13.3717C21.8248 13.1845 21.6813 13.0269 21.5035 12.917C21.3256 12.8071 21.1205 12.7493 20.9115 12.75H17.3385C17.3085 12.75 17.2796 12.7537 17.25 12.756V4.875C17.25 4.77554 17.2105 4.68016 17.1402 4.60984C17.0698 4.53951 16.9745 4.5 16.875 4.5H13.5V1.875C13.5 1.77555 13.4605 1.68018 13.3901 1.60988L11.8901 0.109875C11.8198 0.039544 11.7244 2.1239e-05 11.625 0L5.625 0C5.52555 2.1239e-05 5.43018 0.039544 5.35988 0.109875L3.85988 1.60988C3.78954 1.68018 3.75002 1.77555 3.75 1.875V4.5H0.375C0.275544 4.5 0.180161 4.53951 0.109835 4.60984C0.0395088 4.68016 0 4.77554 0 4.875L0 22.125C0.000595447 22.6221 0.198331 23.0987 0.549832 23.4502C0.901334 23.8017 1.3779 23.9994 1.875 24H6.375C6.47446 24 6.56984 23.9605 6.64017 23.8902C6.71049 23.8198 6.75 23.7245 6.75 23.625C6.75 23.5255 6.71049 23.4302 6.64017 23.3598C6.56984 23.2895 6.47446 23.25 6.375 23.25H1.875C1.57663 23.25 1.29048 23.1315 1.0795 22.9205C0.868526 22.7095 0.75 22.4234 0.75 22.125V5.25H3.75V8.625C3.75 8.72446 3.78951 8.81984 3.85984 8.89017C3.93016 8.96049 4.02554 9 4.125 9H5.625C5.72446 9 5.81984 8.96049 5.89016 8.89017C5.96049 8.81984 6 8.72446 6 8.625V5.25H11.25V8.625C11.25 8.72446 11.2895 8.81984 11.3598 8.89017C11.4302 8.96049 11.5255 9 11.625 9H13.125C13.2245 9 13.3198 8.96049 13.3902 8.89017C13.4605 8.81984 13.5 8.72446 13.5 8.625V5.25H16.5V13.125C16.4336 13.1994 16.3772 13.2823 16.3324 13.3714L15.8786 14.2789C15.6375 14.3322 15.4208 14.4636 15.2621 14.6528C15.1035 14.842 15.0118 15.0784 15.0013 15.3251C14.9908 15.5718 15.0621 15.815 15.2042 16.017C15.3462 16.219 15.551 16.3683 15.7867 16.4419L16.0751 18.75H13.1749L13.4633 16.4422C13.699 16.3687 13.9038 16.2193 14.0458 16.0174C14.1879 15.8154 14.2592 15.5721 14.2487 15.3254C14.2382 15.0787 14.1465 14.8424 13.9879 14.6532C13.8292 14.464 13.6125 14.3325 13.3714 14.2792L12.9176 13.3717C12.8248 13.1845 12.6813 13.0269 12.5035 12.917C12.3256 12.8071 12.1205 12.7493 11.9115 12.75H8.3385C8.12945 12.7493 7.92438 12.8071 7.74655 12.917C7.56871 13.0269 7.42523 13.1845 7.33237 13.3717L6.87862 14.2792C6.63752 14.3325 6.42079 14.464 6.26213 14.6532C6.10346 14.8424 6.01176 15.0787 6.00128 15.3254C5.99081 15.5721 6.06214 15.8154 6.20418 16.0174C6.34623 16.2193 6.55104 16.3687 6.78675 16.4422L7.07513 18.75H6.375C6.07663 18.75 5.79048 18.8685 5.5795 19.0795C5.36853 19.2905 5.25 19.5766 5.25 19.875C5.25 20.1734 5.36853 20.4595 5.5795 20.6705C5.79048 20.8815 6.07663 21 6.375 21H6.8325L7.36912 23.148C7.43001 23.3914 7.57052 23.6075 7.76832 23.7619C7.96611 23.9162 8.20984 24.0001 8.46075 24H11.7892C12.0402 24 12.284 23.9162 12.4818 23.7617C12.6796 23.6073 12.8201 23.3911 12.8809 23.1476L12.9716 22.7843C12.9919 22.703 13.0387 22.6309 13.1047 22.5794C13.1707 22.5279 13.252 22.4999 13.3358 22.5H15.9142C15.9979 22.4999 16.0792 22.5278 16.1452 22.5793C16.2112 22.6307 16.258 22.7027 16.2784 22.7839L16.3691 23.148C16.43 23.3914 16.5705 23.6075 16.7683 23.7619C16.9661 23.9162 17.2098 24.0001 17.4608 24H20.7892C21.0402 24.0001 21.2839 23.9162 21.4817 23.7619C21.6795 23.6075 21.82 23.3914 21.8809 23.148L22.4175 21H22.875C23.1734 21 23.4595 20.8815 23.6705 20.6705C23.8815 20.4595 24 20.1734 24 19.875C24 19.5766 23.8815 19.2905 23.6705 19.0795C23.4595 18.8685 23.1734 18.75 22.875 18.75ZM11.25 0.75V1.5H6V0.75H11.25ZM5.25 8.25H4.5V2.03025L5.25 1.28025V8.25ZM6 4.5V2.25H11.25V4.5H6ZM12.75 8.25H12V1.28025L12.75 2.03025V8.25ZM20.9115 13.5C20.9811 13.5 21.0494 13.5195 21.1086 13.5561C21.1678 13.5927 21.2156 13.6451 21.2467 13.7074L21.5182 14.25H16.7318L17.0033 13.7074C17.0344 13.6451 17.0822 13.5927 17.1414 13.5561C17.2006 13.5195 17.2689 13.5 17.3385 13.5H20.9115ZM16.125 15H22.125C22.2245 15 22.3198 15.0395 22.3902 15.1098C22.4605 15.1802 22.5 15.2755 22.5 15.375C22.5 15.4745 22.4605 15.5698 22.3902 15.6402C22.3198 15.7105 22.2245 15.75 22.125 15.75H16.125C16.0255 15.75 15.9302 15.7105 15.8598 15.6402C15.7895 15.5698 15.75 15.4745 15.75 15.375C15.75 15.2755 15.7895 15.1802 15.8598 15.1098C15.9302 15.0395 16.0255 15 16.125 15ZM16.5499 16.5H21.7001L21.4189 18.75H16.8311L16.5499 16.5ZM8.00325 13.7074C8.03437 13.6451 8.08222 13.5927 8.14143 13.5561C8.20064 13.5195 8.26888 13.5 8.3385 13.5H11.9115C11.9811 13.5 12.0494 13.5195 12.1086 13.5561C12.1678 13.5927 12.2156 13.6451 12.2467 13.7074L12.5182 14.25H7.73175L8.00325 13.7074ZM7.125 15H13.125C13.2245 15 13.3198 15.0395 13.3902 15.1098C13.4605 15.1802 13.5 15.2755 13.5 15.375C13.5 15.4745 13.4605 15.5698 13.3902 15.6402C13.3198 15.7105 13.2245 15.75 13.125 15.75H7.125C7.02554 15.75 6.93016 15.7105 6.85983 15.6402C6.78951 15.5698 6.75 15.4745 6.75 15.375C6.75 15.2755 6.78951 15.1802 6.85983 15.1098C6.93016 15.0395 7.02554 15 7.125 15ZM7.54987 16.5H12.7001L12.4189 18.75H7.83112L7.54987 16.5ZM22.875 20.25H20.625C20.5255 20.25 20.4302 20.2895 20.3598 20.3598C20.2895 20.4302 20.25 20.5255 20.25 20.625C20.25 20.7245 20.2895 20.8198 20.3598 20.8902C20.4302 20.9605 20.5255 21 20.625 21H21.645L21.1534 22.9657C21.1331 23.047 21.0863 23.1191 21.0203 23.1706C20.9543 23.2221 20.873 23.2501 20.7892 23.25H17.4608C17.3771 23.2501 17.2958 23.2222 17.2298 23.1707C17.1638 23.1193 17.117 23.0473 17.0966 22.9661L17.0059 22.602C16.945 22.3586 16.8045 22.1425 16.6067 21.9881C16.4089 21.8338 16.1652 21.7499 15.9142 21.75H13.3358C13.0848 21.75 12.841 21.8338 12.6432 21.9883C12.4454 22.1427 12.3049 22.3589 12.2441 22.6024L12.1534 22.9657C12.1331 23.047 12.0863 23.1191 12.0203 23.1706C11.9543 23.2221 11.873 23.2501 11.7892 23.25H8.46075C8.37704 23.2501 8.29571 23.2221 8.22972 23.1706C8.16374 23.1191 8.11688 23.047 8.09662 22.9657L7.605 21H19.125C19.2245 21 19.3198 20.9605 19.3902 20.8902C19.4605 20.8198 19.5 20.7245 19.5 20.625C19.5 20.5255 19.4605 20.4302 19.3902 20.3598C19.3198 20.2895 19.2245 20.25 19.125 20.25H6.375C6.27554 20.25 6.18016 20.2105 6.10983 20.1402C6.03951 20.0698 6 19.9745 6 19.875C6 19.7755 6.03951 19.6802 6.10983 19.6098C6.18016 19.5395 6.27554 19.5 6.375 19.5H22.875C22.9745 19.5 23.0698 19.5395 23.1402 19.6098C23.2105 19.6802 23.25 19.7755 23.25 19.875C23.25 19.9745 23.2105 20.0698 23.1402 20.1402C23.0698 20.2105 22.9745 20.25 22.875 20.25Z" fill="#171717"/>
</svg>
