<svg width="45" height="14" viewBox="0 0 45 14" fill="none" xmlns="http://www.w3.org/2000/svg">
<path d="M16.4982 13.2847L18.7837 0.428457H22.3549L20.1408 13.2847H16.4982Z" fill="#3C58BF"/>
<path d="M16.4982 13.2847L19.4265 0.428457H22.3549L20.1408 13.2847H16.4982Z" fill="#293688"/>
<path d="M33.0676 0.571388C32.3534 0.285694 31.2106 0 29.7821 0C26.211 0 23.6397 1.78559 23.6397 4.35684C23.6397 6.28527 25.4253 7.2852 26.8538 7.92801C28.2822 8.57083 28.7108 8.99937 28.7108 9.57076C28.7108 10.4278 27.568 10.8564 26.5681 10.8564C25.1396 10.8564 24.3539 10.6421 23.1397 10.1421L22.6398 9.92787L22.1398 12.8562C22.9969 13.2134 24.5682 13.5705 26.211 13.5705C29.9964 13.5705 32.4962 11.7849 32.4962 9.07079C32.4962 7.5709 31.5677 6.42812 29.425 5.49961C28.1394 4.8568 27.3537 4.49968 27.3537 3.85687C27.3537 3.28548 27.9965 2.71409 29.425 2.71409C30.6392 2.71409 31.4963 2.92837 32.1391 3.21406L32.4962 3.35691L33.0676 0.571388Z" fill="#3C58BF"/>
<path d="M33.0676 0.571388C32.3534 0.285694 31.2106 0 29.7821 0C26.211 0 24.2825 1.78559 24.2825 4.35684C24.2825 6.28527 25.4253 7.2852 26.8538 7.92801C28.2822 8.57083 28.7108 8.99937 28.7108 9.57076C28.7108 10.4278 27.568 10.8564 26.5681 10.8564C25.1396 10.8564 24.3539 10.6421 23.1397 10.1421L22.6398 9.92787L22.1398 12.8562C22.9969 13.2134 24.5682 13.5705 26.211 13.5705C29.9964 13.5705 32.4962 11.7849 32.4962 9.07079C32.4962 7.5709 31.5677 6.42812 29.425 5.49961C28.1394 4.8568 27.3537 4.49968 27.3537 3.85687C27.3537 3.28548 27.9965 2.71409 29.425 2.71409C30.6392 2.71409 31.4963 2.92837 32.1391 3.21406L32.4962 3.35691L33.0676 0.571388Z" fill="#293688"/>
<path d="M39.2118 0.428457C38.3547 0.428457 37.7119 0.499882 37.3548 1.35696L31.998 13.2847H35.8549L36.5691 11.142H41.1402L41.5688 13.2847H44.9971L41.9973 0.428457H39.2118ZM37.569 8.99929C37.7833 8.35647 38.9975 5.21384 38.9975 5.21384C38.9975 5.21384 39.2832 4.42818 39.4975 3.92821L39.7117 5.14241C39.7117 5.14241 40.426 8.35647 40.5688 9.07071H37.569V8.99929Z" fill="#3C58BF"/>
<path d="M40.0689 0.428457C39.2118 0.428457 38.569 0.499882 38.2118 1.35696L31.998 13.2847H35.8549L36.5691 11.142H41.1402L41.5688 13.2847H44.9971L41.9973 0.428457H40.0689ZM37.569 8.99929C37.8547 8.28505 38.9975 5.21384 38.9975 5.21384C38.9975 5.21384 39.2832 4.42818 39.4975 3.92821L39.7117 5.14241C39.7117 5.14241 40.426 8.35647 40.5688 9.07071H37.569V8.99929Z" fill="#293688"/>
<path d="M9.92567 9.42785L9.56855 7.57084C8.92574 5.42813 6.85446 3.07116 4.56891 1.92838L7.78297 13.3562H11.6398L17.4251 0.499908H13.5683L9.92567 9.42785Z" fill="#3C58BF"/>
<path d="M9.92567 9.42785L9.56855 7.57084C8.92574 5.42813 6.85446 3.07116 4.56891 1.92838L7.78297 13.3562H11.6398L17.4251 0.499908H14.2825L9.92567 9.42785Z" fill="#293688"/>
<path d="M0 0.428457L0.642812 0.571305C5.21392 1.64266 8.35656 4.35675 9.57076 7.57081L8.28513 1.49981C8.07086 0.642728 7.42805 0.428457 6.64239 0.428457H0Z" fill="#FFBC00"/>
<path d="M0 0.428457C4.57111 1.49981 8.35656 4.28533 9.57076 7.49939L8.35656 2.42832C8.14229 1.57124 7.42805 1.07127 6.64239 1.07127L0 0.428457Z" fill="#F7981D"/>
<path d="M0 0.428457C4.57111 1.49981 8.35656 4.28533 9.57076 7.49939L8.71367 4.71387C8.4994 3.85679 8.21371 2.99971 7.21378 2.64259L0 0.428457Z" fill="#ED7C00"/>
<path d="M13.4998 8.99933L11.0714 6.57093L9.92864 9.28503L9.64294 7.49944C9.00013 5.35673 6.92885 2.99975 4.64329 1.85697L7.85735 13.2847H11.7142L13.4998 8.99933Z" fill="#051244"/>
<path d="M20.1447 13.2847L17.0735 10.142L16.5021 13.2847H20.1447Z" fill="#051244"/>
<path d="M28.3537 8.85641C28.6394 9.14211 28.7822 9.35638 28.7108 9.64208C28.7108 10.4992 27.568 10.9277 26.5681 10.9277C25.1396 10.9277 24.3539 10.7134 23.1397 10.2135L22.6398 9.99919L22.1398 12.9276C22.9969 13.2847 24.5682 13.6418 26.211 13.6418C28.4965 13.6418 30.3535 12.999 31.4249 11.8562L28.3537 8.85641Z" fill="#051244"/>
<path d="M32.4991 13.2848H35.856L36.5703 11.1421H41.1414L41.5699 13.2848H44.9983L43.7841 8.07087L39.4986 3.9283L39.7129 5.07108C39.7129 5.07108 40.4271 8.28514 40.57 8.99937H37.5702C37.8559 8.28514 38.9987 5.21392 38.9987 5.21392C38.9987 5.21392 39.2844 4.42826 39.4986 3.9283" fill="#051244"/>
</svg>
